Fraunces144ptSharp-Italic.ufo
<glyph name="exclam" format="2">
  <advance width="555.1999999999999"/>
  <unicode hex="0021"/>
  <outline>
    <contour>
      <point x="558.4" y="1446.8" type="curve" smooth="yes"/>
      <point x="485.00000000000006" y="1446.8"/>
      <point x="441.59999999999997" y="1412.8"/>
      <point x="427.59999999999997" y="1348.2" type="curve" smooth="yes"/>
      <point x="421.4" y="1323.0"/>
      <point x="420.20000000000005" y="1302.0"/>
      <point x="418.4" y="1276.2" type="curve" smooth="yes"/>
      <point x="249.60000000000002" y="389.59999999999997" type="line" smooth="yes"/>
      <point x="249.0" y="386.0"/>
      <point x="250.0" y="383.59999999999997"/>
      <point x="253.2" y="383.59999999999997" type="curve" smooth="yes"/>
      <point x="256.8" y="383.59999999999997"/>
      <point x="258.2" y="386.0"/>
      <point x="260.0" y="389.2" type="curve" smooth="yes"/>
      <point x="612.0" y="1270.1999999999998" type="line" smooth="yes"/>
      <point x="632.496847880794" y="1309.695172680885"/>
      <point x="647.5999999999999" y="1347.7238095238095"/>
      <point x="648.8" y="1373.0" type="curve" smooth="yes"/>
      <point x="651.1999999999999" y="1415.8053691275168"/>
      <point x="622.8" y="1446.8"/>
    </contour>
    <component base="period" xOffset="47.0" yOffset="6.6"/>
  </outline>
</glyph>
<glyph name="numbersign" format="2">
  <advance width="1097.4"/>
  <unicode hex="0023"/>
  <outline>
    <contour>
      <point x="473.79999999999995" y="694.1999999999999" type="curve" smooth="yes"/>
      <point x="519.1999999999999" y="775.6"/>
      <point x="798.4000000000001" y="1295.8"/>
      <point x="849.8" y="1387.3999999999999" type="curve" smooth="yes"/>
      <point x="854.0" y="1396.2"/>
      <point x="852.6" y="1401.8"/>
      <point x="847.1999999999999" y="1404.0" type="curve" smooth="yes"/>
      <point x="840.2" y="1406.2"/>
      <point x="833.6" y="1402.1999999999998"/>
      <point x="829.0" y="1394.0" type="curve" smooth="yes"/>
      <point x="785.4000000000001" y="1312.8"/>
      <point x="510.20000000000005" y="784.6"/>
      <point x="462.20000000000005" y="699.0" type="curve" smooth="yes"/>
      <point x="422.40000000000003" y="624.8000000000001"/>
      <point x="119.39999999999999" y="84.6"/>
      <point x="80.6" y="14.000000000000004" type="curve" smooth="yes"/>
      <point x="76.19999999999999" y="5.999999999999998"/>
      <point x="77.4" y="0.19999999999999962"/>
      <point x="82.4" y="-2.0" type="curve" smooth="yes"/>
      <point x="89.39999999999999" y="-4.199999999999999"/>
      <point x="95.99999999999999" y="0.0"/>
      <point x="100.39999999999999" y="7.999999999999997" type="curve" smooth="yes"/>
      <point x="144.39999999999998" y="87.8"/>
      <point x="435.40000000000003" y="624.6"/>
    </contour>
    <contour>
      <point x="702.8" y="867.8" type="curve" smooth="yes"/>
      <point x="756.8" y="867.8"/>
      <point x="1093.3999999999999" y="861.8000000000001"/>
      <point x="1156.6000000000001" y="861.8000000000001" type="curve" smooth="yes"/>
      <point x="1164.6000000000001" y="861.8"/>
      <point x="1171.2" y="866.1999999999999"/>
      <point x="1173.3999999999999" y="873.6" type="curve" smooth="yes"/>
      <point x="1175.6" y="881.0"/>
      <point x="1170.6000000000001" y="884.8000000000001"/>
      <point x="1162.6" y="884.8000000000001" type="curve" smooth="yes"/>
      <point x="1107.8" y="884.8000000000001"/>
      <point x="762.8000000000001" y="880.8"/>
      <point x="706.0" y="880.8" type="curve" smooth="yes"/>
      <point x="648.1999999999999" y="880.2"/>
      <point x="281.40000000000003" y="885.4000000000001"/>
      <point x="225.99999999999997" y="885.4" type="curve" smooth="yes"/>
      <point x="218.20000000000002" y="885.4"/>
      <point x="211.6" y="881.6"/>
      <point x="209.4" y="874.2" type="curve" smooth="yes"/>
      <point x="207.20000000000002" y="866.8000000000001"/>
      <point x="212.2" y="862.4"/>
      <point x="220.6" y="862.4" type="curve" smooth="yes"/>
      <point x="283.8" y="862.4"/>
      <point x="649.2" y="867.1999999999999"/>
    </contour>
    <contour>
      <point x="789.5999999999999" y="694.1999999999999" type="curve" smooth="yes"/>
      <point x="834.2" y="775.1999999999999"/>
      <point x="1114.2" y="1296.2"/>
      <point x="1164.8" y="1387.0" type="curve" smooth="yes"/>
      <point x="1169.8" y="1395.8"/>
      <point x="1168.4" y="1401.8"/>
      <point x="1163.0" y="1404.0" type="curve" smooth="yes"/>
      <point x="1156.0" y="1406.2"/>
      <point x="1149.4" y="1401.8"/>
      <point x="1144.3999999999999" y="1393.6" type="curve" smooth="yes"/>
      <point x="1101.2" y="1313.1999999999998"/>
      <point x="826.0" y="785.0"/>
      <point x="778.0" y="699.0" type="curve" smooth="yes"/>
      <point x="738.2" y="624.4"/>
      <point x="434.79999999999995" y="84.2"/>
      <point x="396.4" y="14.000000000000004" type="curve" smooth="yes"/>
      <point x="392.0" y="6.399999999999999"/>
      <point x="393.2" y="0.19999999999999962"/>
      <point x="398.6" y="-2.0" type="curve" smooth="yes"/>
      <point x="405.20000000000005" y="-4.199999999999999"/>
      <point x="411.79999999999995" y="0.39999999999999947"/>
      <point x="416.19999999999993" y="7.999999999999997" type="curve" smooth="yes"/>
      <point x="460.20000000000005" y="87.39999999999999"/>
      <point x="751.2" y="624.6"/>
    </contour>
    <contour>
      <point x="543.4" y="511.4" type="curve" smooth="yes"/>
      <point x="597.0" y="511.4"/>
      <point x="933.8" y="505.4"/>
      <point x="997.0" y="505.4" type="curve" smooth="yes"/>
      <point x="1005.0" y="505.4"/>
      <point x="1012.6000000000001" y="509.8"/>
      <point x="1014.8" y="517.2" type="curve" smooth="yes"/>
      <point x="1016.4000000000001" y="524.6"/>
      <point x="1011.5999999999999" y="528.4000000000001"/>
      <point x="1003.6" y="528.4000000000001" type="curve" smooth="yes"/>
      <point x="949.2" y="528.4"/>
      <point x="604.1999999999999" y="524.4"/>
      <point x="547.0" y="524.4" type="curve" smooth="yes"/>
      <point x="489.0" y="523.8000000000001"/>
      <point x="122.4" y="529.0"/>
      <point x="67.4" y="529.0" type="curve" smooth="yes"/>
      <point x="59.599999999999994" y="529.0"/>
      <point x="53.00000000000001" y="525.2"/>
      <point x="50.800000000000004" y="517.8" type="curve" smooth="yes"/>
      <point x="48.60000000000001" y="510.4"/>
      <point x="53.6" y="506.00000000000006"/>
      <point x="62.00000000000001" y="506.00000000000006" type="curve" smooth="yes"/>
      <point x="124.4" y="506.00000000000006"/>
      <point x="489.8" y="510.8"/>
    </contour>
  </outline>
</glyph>
<glyph name="dollar" format="2">
  <advance width="961.2"/>
  <unicode hex="0024"/>
  <outline>
    <contour>
      <point x="385.20000000000005" y="5.799999999999999" type="curve" smooth="yes"/>
      <point x="609.0" y="5.799999999999999"/>
      <point x="816.2" y="119.6"/>
      <point x="868.2" y="293.8" type="curve" smooth="yes"/>
      <point x="918.8000000000001" y="465.0"/>
      <point x="863.2" y="610.4"/>
      <point x="636.2" y="780.1999999999999" type="curve" smooth="yes"/>
      <point x="434.40000000000003" y="932.4"/>
      <point x="391.8" y="1035.1999999999998"/>
      <point x="431.0" y="1168.6000000000001" type="curve" smooth="yes"/>
      <point x="470.0" y="1300.6"/>
      <point x="602.4" y="1376.3999999999999"/>
      <point x="757.0" y="1376.3999999999999" type="curve" smooth="yes"/>
      <point x="890.4" y="1376.3999999999999"/>
      <point x="945.6" y="1322.3999999999999"/>
      <point x="956.5999999999999" y="1187.8" type="curve" smooth="yes"/>
      <point x="960.8" y="1110.0" type="line" smooth="yes"/>
      <point x="961.6" y="1050.3999999999999"/>
      <point x="982.8" y="1020.6"/>
      <point x="1025.8000000000002" y="1020.2" type="curve" smooth="yes"/>
      <point x="1078.6" y="1019.8"/>
      <point x="1117.8" y="1066.0"/>
      <point x="1114.1999999999998" y="1138.1999999999998" type="curve" smooth="yes"/>
      <point x="1104.6" y="1286.6"/>
      <point x="988.1999999999999" y="1391.6"/>
      <point x="762.1999999999999" y="1391.6" type="curve" smooth="yes"/>
      <point x="517.0" y="1391.6"/>
      <point x="331.0" y="1272.2"/>
      <point x="276.4" y="1090.2" type="curve" smooth="yes"/>
      <point x="219.8" y="903.1999999999999"/>
      <point x="279.2" y="758.8"/>
      <point x="515.6" y="599.1999999999999" type="curve" smooth="yes"/>
      <point x="707.1999999999999" y="469.0"/>
      <point x="748.0" y="353.59999999999997"/>
      <point x="706.6" y="212.6" type="curve" smooth="yes"/>
      <point x="668.8000000000001" y="84.60000000000001"/>
      <point x="537.2" y="20.6"/>
      <point x="389.59999999999997" y="20.6" type="curve" smooth="yes"/>
      <point x="248.60000000000005" y="20.6"/>
      <point x="174.4" y="85.4"/>
      <point x="170.0" y="211.79999999999998" type="curve" smooth="yes"/>
      <point x="168.0" y="309.40000000000003" type="line" smooth="yes"/>
      <point x="166.6" y="372.2"/>
      <point x="146.60000000000002" y="404.4"/>
      <point x="103.6" y="404.40000000000003" type="curve" smooth="yes"/>
      <point x="55.400000000000006" y="404.40000000000003"/>
      <point x="18.200000000000003" y="359.8"/>
      <point x="18.6" y="272.8" type="curve" smooth="yes"/>
      <point x="20.2" y="110.0"/>
      <point x="136.20000000000002" y="5.799999999999999"/>
    </contour>
    <contour>
      <point x="592.4000000000001" y="715.8" type="line"/>
      <point x="722.0" y="1154.1999999999998"/>
      <point x="800.2" y="1395.0"/>
      <point x="828.4" y="1499.6" type="curve" smooth="yes"/>
      <point x="834.0" y="1516.6"/>
      <point x="829.6" y="1526.3999999999999"/>
      <point x="818.0" y="1526.3999999999999" type="curve" smooth="yes"/>
      <point x="805.8" y="1526.3999999999999"/>
      <point x="796.6" y="1516.6"/>
      <point x="792.2" y="1500.2" type="curve" smooth="yes"/>
      <point x="758.0" y="1377.8"/>
      <point x="705.1999999999999" y="1148.0"/>
      <point x="577.6" y="715.8" type="curve"/>
    </contour>
    <contour>
      <point x="556.8000000000001" y="688.0" type="line"/>
      <point x="427.2" y="254.0"/>
      <point x="353.0" y="24.200000000000003"/>
      <point x="319.0" y="-98.2" type="curve" smooth="yes"/>
      <point x="314.4" y="-113.99999999999999"/>
      <point x="318.79999999999995" y="-122.60000000000001"/>
      <point x="331.0" y="-122.60000000000001" type="curve" smooth="yes"/>
      <point x="342.6" y="-122.60000000000001"/>
      <point x="351.79999999999995" y="-113.4"/>
      <point x="356.4" y="-97.60000000000001" type="curve" smooth="yes"/>
      <point x="385.0" y="7.4"/>
      <point x="441.2" y="247.80000000000004"/>
      <point x="571.5999999999999" y="688.0" type="curve"/>
    </contour>
  </outline>
</glyph>
<glyph name="ampersand" format="2">
  <advance width="1195.8"/>
  <unicode hex="0026"/>
  <outline>
    <contour>
      <point x="172.6" y="175.8" type="line" smooth="yes"/>
      <point x="16.199999999999996" y="41.8"/>
      <point x="-69.6" y="-77.0"/>
      <point x="-68.4" y="-193.8" type="curve" smooth="yes"/>
      <point x="-67.19999999999999" y="-300.40000000000003"/>
      <point x="-28.999999999999996" y="-353.4"/>
      <point x="28.400000000000006" y="-352.2" type="curve" smooth="yes"/>
      <point x="76.6" y="-351.0"/>
      <point x="107.0" y="-314.79999999999995"/>
      <point x="106.19999999999999" y="-274.20000000000005" type="curve" smooth="yes"/>
      <point x="104.60000000000001" y="-218.8"/>
      <point x="28.599999999999998" y="-194.39999999999998"/>
      <point x="27.8" y="-99.0" type="curve" smooth="yes"/>
      <point x="26.599999999999998" y="-5.4"/>
      <point x="90.0" y="85.6"/>
      <point x="211.40000000000003" y="188.2" type="curve" smooth="yes"/>
      <point x="1105.3999999999999" y="951.2" type="line" smooth="yes"/>
      <point x="1277.6" y="1098.4"/>
      <point x="1336.4" y="1198.2"/>
      <point x="1335.2" y="1325.1999999999998" type="curve" smooth="yes"/>
      <point x="1334.0" y="1418.0"/>
      <point x="1283.8000000000002" y="1478.8"/>
      <point x="1233.0" y="1477.6" type="curve" smooth="yes"/>
      <point x="1184.2" y="1476.3999999999999"/>
      <point x="1157.3999999999999" y="1441.4"/>
      <point x="1158.2" y="1397.2" type="curve" smooth="yes"/>
      <point x="1159.8000000000002" y="1333.3999999999999"/>
      <point x="1235.8" y="1295.6"/>
      <point x="1236.6000000000001" y="1212.4" type="curve" smooth="yes"/>
      <point x="1238.2" y="1114.2"/>
      <point x="1196.8" y="1048.6"/>
      <point x="1068.4" y="940.0" type="curve" smooth="yes"/>
    </contour>
    <contour>
      <point x="981.1999999999999" y="326.6" type="curve" smooth="yes"/>
      <point x="973.6" y="167.2"/>
      <point x="823.1999999999999" y="10.600000000000001"/>
      <point x="624.8000000000001" y="10.600000000000001" type="curve" smooth="yes"/>
      <point x="450.40000000000003" y="10.600000000000001"/>
      <point x="318.4" y="196.39999999999998"/>
      <point x="394.20000000000005" y="549.8000000000001" type="curve" smooth="yes"/>
      <point x="464.99999999999994" y="886.6"/>
      <point x="597.4" y="1056.0"/>
      <point x="742.4" y="1056.0" type="curve" smooth="yes"/>
      <point x="823.8000000000001" y="1056.0"/>
      <point x="861.4" y="978.8000000000001"/>
      <point x="853.8" y="852.8000000000001" type="curve" smooth="yes"/>
      <point x="846.1999999999999" y="775.4"/>
      <point x="834.2" y="734.1999999999999"/>
      <point x="826.4" y="714.4" type="curve"/>
      <point x="887.2" y="766.8000000000001"/>
      <point x="933.0" y="785.8000000000001"/>
      <point x="996.0" y="785.8000000000001" type="curve" smooth="yes"/>
      <point x="1012.8" y="785.8"/>
      <point x="1026.2" y="801.4000000000001"/>
      <point x="1027.8" y="828.4" type="curve" smooth="yes"/>
      <point x="1034.6" y="956.8000000000001"/>
      <point x="951.6" y="1068.6000000000001"/>
      <point x="761.2" y="1068.6000000000001" type="curve"/>
      <point x="507.4000000000001" y="1068.6000000000001"/>
      <point x="256.4" y="856.8"/>
      <point x="185.2" y="532.1999999999999" type="curve" smooth="yes"/>
      <point x="115.39999999999999" y="207.6"/>
      <point x="278.2" y="-20.0"/>
      <point x="548.2" y="-20.0" type="curve" smooth="yes"/>
      <point x="850.2" y="-20.0"/>
      <point x="1100.2" y="207.0"/>
      <point x="1114.6000000000001" y="528.6" type="curve" smooth="yes"/>
      <point x="1119.8" y="592.8"/>
      <point x="1089.6000000000001" y="627.0"/>
      <point x="1043.6" y="627.0" type="curve" smooth="yes"/>
      <point x="978.4" y="627.0"/>
      <point x="936.4" y="575.1999999999999"/>
      <point x="933.1999999999999" y="531.6" type="curve" smooth="yes"/>
      <point x="927.5999999999999" y="460.0"/>
      <point x="986.4" y="407.2"/>
    </contour>
  </outline>
</glyph>
<glyph name="quotesingle" format="2">
  <advance width="256.20000000000005"/>
  <unicode hex="0027"/>
  <outline>
    <contour>
      <point x="260.4" y="924.0" type="curve" smooth="yes"/>
      <point x="265.4" y="924.0"/>
      <point x="269.6" y="927.2"/>
      <point x="274.8" y="937.0" type="curve" smooth="yes"/>
      <point x="485.6" y="1441.8" type="line" smooth="yes"/>
      <point x="524.6" y="1524.4"/>
      <point x="507.20000000000005" y="1572.0"/>
      <point x="440.40000000000003" y="1572.0" type="curve" smooth="yes"/>
      <point x="373.4" y="1572.0"/>
      <point x="329.0" y="1524.3999999999999"/>
      <point x="322.2" y="1441.3999999999999" type="curve" smooth="yes"/>
      <point x="253.20000000000002" y="937.0" type="line" smooth="yes"/>
      <point x="251.99999999999997" y="928.0"/>
      <point x="255.4" y="924.0"/>
    </contour>
  </outline>
</glyph>
<glyph name="parenleft" format="2">
  <advance width="618.4000000000001"/>
  <unicode hex="0028"/>
  <outline>
    <contour>
      <point x="209.0" y="636.0" type="curve" smooth="yes"/>
      <point x="94.19999999999999" y="236.6"/>
      <point x="207.6" y="-93.00000000000001"/>
      <point x="394.40000000000003" y="-208.0" type="curve" smooth="yes"/>
      <point x="411.8" y="-218.60000000000002"/>
      <point x="423.40000000000003" y="-224.6"/>
      <point x="427.6" y="-221.20000000000002" type="curve" smooth="yes"/>
      <point x="430.6" y="-218.8"/>
      <point x="429.59999999999997" y="-214.0"/>
      <point x="412.79999999999995" y="-190.8" type="curve" smooth="yes"/>
      <point x="285.0" y="-31.6"/>
      <point x="255.60000000000002" y="286.2"/>
      <point x="356.59999999999997" y="636.0" type="curve" smooth="yes"/>
      <point x="450.40000000000003" y="962.4"/>
      <point x="598.4" y="1242.6"/>
      <point x="841.4" y="1414.8" type="curve" smooth="yes"/>
      <point x="870.2" y="1438.0"/>
      <point x="874.2" y="1442.8"/>
      <point x="872.8000000000001" y="1445.1999999999998" type="curve" smooth="yes"/>
      <point x="871.6" y="1448.6"/>
      <point x="856.1999999999999" y="1442.6000000000001"/>
      <point x="831.8000000000001" y="1432.0" type="curve" smooth="yes"/>
      <point x="544.8000000000001" y="1302.6"/>
      <point x="313.59999999999997" y="1000.5999999999999"/>
    </contour>
  </outline>
</glyph>
<glyph name="asterisk" format="2">
  <advance width="1074.3999999999999"/>
  <unicode hex="002A"/>
  <outline>
    <contour>
      <point x="663.0" y="1017.0" type="line"/>
      <point x="729.5999999999999" y="1314.1999999999998"/>
      <point x="815.4" y="1372.0"/>
      <point x="833.6" y="1446.6" type="curve" smooth="yes"/>
      <point x="847.0" y="1500.8"/>
      <point x="827.4" y="1529.0"/>
      <point x="779.0" y="1529.0" type="curve" smooth="yes"/>
      <point x="727.8000000000001" y="1529.0"/>
      <point x="694.1999999999999" y="1500.8000000000002"/>
      <point x="680.8000000000001" y="1446.6000000000001" type="curve" smooth="yes"/>
      <point x="662.5999999999999" y="1372.3999999999999"/>
      <point x="722.1999999999999" y="1314.1999999999998"/>
      <point x="655.5999999999999" y="1017.0" type="curve"/>
    </contour>
    <contour>
      <point x="659.6" y="1020.9999999999999" type="curve"/>
      <point x="659.1999999999999" y="1013.0" type="line"/>
      <point x="941.1999999999999" y="1105.0"/>
      <point x="1001.8000000000001" y="1052.3999999999999"/>
      <point x="1075.6" y="1075.6000000000001" type="curve" smooth="yes"/>
      <point x="1129.8" y="1092.3999999999999"/>
      <point x="1156.4" y="1127.0"/>
      <point x="1153.2" y="1174.0" type="curve" smooth="yes"/>
      <point x="1150.2" y="1223.8"/>
      <point x="1120.6" y="1241.0"/>
      <point x="1065.8" y="1224.2" type="curve" smooth="yes"/>
      <point x="992.4" y="1201.0"/>
      <point x="940.8000000000001" y="1113.0"/>
    </contour>
    <contour>
      <point x="661.0" y="1021.0" type="line"/>
      <point x="420.0" y="1113.0"/>
      <point x="413.20000000000005" y="1201.0"/>
      <point x="350.4" y="1224.2" type="curve" smooth="yes"/>
      <point x="304.4" y="1241.0"/>
      <point x="265.40000000000003" y="1223.0"/>
      <point x="238.6" y="1176.0" type="curve" smooth="yes"/>
      <point x="209.79999999999998" y="1126.2"/>
      <point x="219.20000000000002" y="1092.3999999999999"/>
      <point x="265.2" y="1075.6" type="curve" smooth="yes"/>
      <point x="327.59999999999997" y="1052.3999999999999"/>
      <point x="415.59999999999997" y="1105.0"/>
      <point x="657.2" y="1013.0" type="curve"/>
    </contour>
    <contour>
      <point x="656.6" y="1019.0" type="line"/>
      <point x="440.79999999999995" y="779.2"/>
      <point x="351.4" y="775.8000000000001"/>
      <point x="293.8" y="715.8000000000001" type="curve" smooth="yes"/>
      <point x="251.0" y="671.2"/>
      <point x="248.4" y="632.4000000000001"/>
      <point x="279.0" y="603.0" type="curve" smooth="yes"/>
      <point x="313.20000000000005" y="572.8"/>
      <point x="352.2" y="579.6"/>
      <point x="394.0" y="623.1999999999999" type="curve" smooth="yes"/>
      <point x="450.8" y="683.4"/>
      <point x="446.4" y="774.1999999999999"/>
      <point x="661.0" y="1015.0" type="curve"/>
    </contour>
    <contour>
      <point x="655.6" y="1015.0" type="line"/>
      <point x="763.4" y="774.2"/>
      <point x="714.8" y="683.8000000000001"/>
      <point x="741.4" y="623.2" type="curve" smooth="yes"/>
      <point x="762.2" y="579.6"/>
      <point x="799.0" y="573.2"/>
      <point x="844.6" y="602.0" type="curve" smooth="yes"/>
      <point x="894.0" y="633.1999999999999"/>
      <point x="908.8" y="671.2"/>
      <point x="889.0" y="715.8" type="curve" smooth="yes"/>
      <point x="862.4" y="775.4000000000001"/>
      <point x="771.2" y="779.1999999999999"/>
      <point x="662.0" y="1019.0" type="curve"/>
    </contour>
  </outline>
</glyph>
<glyph name="plus" format="2">
  <advance width="910.0"/>
  <unicode hex="002B"/>
  <outline>
    <contour>
      <point x="435.6" y="336.0" type="curve" smooth="yes"/>
      <point x="440.2" y="335.2"/>
      <point x="443.4" y="338.0"/>
      <point x="444.80000000000007" y="343.6" type="curve" smooth="yes"/>
      <point x="616.2" y="1040.6" type="line" smooth="yes"/>
      <point x="617.2" y="1045.3999999999999"/>
      <point x="615.8000000000001" y="1050.0"/>
      <point x="611.6" y="1050.8000000000002" type="curve" smooth="yes"/>
      <point x="607.4" y="1051.8000000000002"/>
      <point x="603.8" y="1048.6"/>
      <point x="602.8000000000001" y="1044.3999999999999" type="curve" smooth="yes"/>
      <point x="431.4" y="347.40000000000003" type="line" smooth="yes"/>
      <point x="430.0" y="342.2"/>
      <point x="431.4" y="337.0"/>
    </contour>
    <component base="minus" xOffset="-8.000000000000002" yOffset="4.0"/>
  </outline>
</glyph>
<glyph name="comma" format="2">
  <advance width="358.0"/>
  <unicode hex="002C"/>
  <outline>
    <contour>
      <point x="100.8" y="0.0" type="curve" smooth="yes"/>
      <point x="150.0" y="0.0" type="line" smooth="yes"/>
      <point x="178.39611650485438" y="0.0"/>
      <point x="186.39999999999998" y="-9.8"/>
      <point x="184.59999999999997" y="-29.799999999999997" type="curve" smooth="yes"/>
      <point x="164.8" y="-129.79999999999998"/>
      <point x="75.0" y="-260.59999999999997"/>
      <point x="-72.0" y="-312.8" type="curve" smooth="yes"/>
      <point x="-80.6" y="-315.8"/>
      <point x="-82.80000000000001" y="-321.2"/>
      <point x="-82.0" y="-325.0" type="curve" smooth="yes"/>
      <point x="-80.0" y="-329.0"/>
      <point x="-75.8" y="-328.8"/>
      <point x="-64.6" y="-325.59999999999997" type="curve" smooth="yes"/>
      <point x="81.2" y="-275.2"/>
      <point x="219.60000000000005" y="-132.8"/>
      <point x="247.80000000000004" y="78.0" type="curve"/>
      <point x="258.59999999999997" y="162.20000000000002"/>
      <point x="227.6" y="208.20000000000002"/>
      <point x="166.6" y="208.20000000000002" type="curve" smooth="yes"/>
      <point x="88.0" y="208.20000000000002"/>
      <point x="28.400000000000002" y="146.8"/>
      <point x="23.6" y="86.4" type="curve" smooth="yes"/>
      <point x="17.599999999999998" y="35.4"/>
      <point x="43.80000000000001" y="0.0"/>
    </contour>
  </outline>
</glyph>
<glyph name="hyphen" format="2">
  <advance width="526.0"/>
  <unicode hex="002D"/>
  <outline>
    <contour>
      <point x="496.6" y="536.0" type="curve" smooth="yes"/>
      <point x="83.4" y="536.0" type="line" smooth="yes"/>
      <point x="77.6" y="536.0"/>
      <point x="73.80000000000001" y="534.1999999999999"/>
      <point x="70.8" y="528.4" type="curve" smooth="yes"/>
      <point x="38.800000000000004" y="447.79999999999995" type="line" smooth="yes"/>
      <point x="35.4" y="440.4"/>
      <point x="37.800000000000004" y="436.0"/>
      <point x="44.6" y="436.0" type="curve" smooth="yes"/>
      <point x="454.20000000000005" y="436.0" type="line" smooth="yes"/>
      <point x="462.4" y="436.0"/>
      <point x="467.4" y="439.0"/>
      <point x="470.4" y="444.79999999999995" type="curve" smooth="yes"/>
      <point x="503.59999999999997" y="527.1999999999999" type="line" smooth="yes"/>
      <point x="506.8" y="533.4"/>
      <point x="503.4" y="536.0"/>
    </contour>
  </outline>
</glyph>
<glyph name="period" format="2">
  <advance width="361.40000000000003"/>
  <unicode hex="002E"/>
  <outline>
    <contour>
      <point x="105.39999999999999" y="-16.4" type="curve" smooth="yes"/>
      <point x="191.6" y="-16.4"/>
      <point x="245.2" y="43.199999999999996"/>
      <point x="250.59999999999997" y="107.2" type="curve" smooth="yes"/>
      <point x="256.0" y="160.60000000000002"/>
      <point x="225.20000000000005" y="202.60000000000002"/>
      <point x="164.8" y="202.60000000000002" type="curve" smooth="yes"/>
      <point x="86.19999999999999" y="202.60000000000002"/>
      <point x="26.600000000000005" y="146.0"/>
      <point x="21.200000000000003" y="78.00000000000001" type="curve" smooth="yes"/>
      <point x="15.800000000000004" y="23.2"/>
      <point x="47.39999999999999" y="-16.4"/>
    </contour>
  </outline>
</glyph>
<glyph name="slash" format="2">
  <advance width="775.0"/>
  <unicode hex="002F"/>
  <outline>
    <contour>
      <point x="409.8" y="604.0" type="curve" smooth="yes"/>
      <point x="505.76462238094297" y="790.9310873462119"/>
      <point x="742.0443979691672" y="1227.0858112009116"/>
      <point x="861.0" y="1457.0" type="curve" smooth="yes"/>
      <point x="868.0" y="1475.0"/>
      <point x="867.6" y="1486.6"/>
      <point x="856.0" y="1491.0" type="curve" smooth="yes"/>
      <point x="843.0" y="1495.8000000000002"/>
      <point x="831.4" y="1487.2"/>
      <point x="822.4" y="1470.8" type="curve" smooth="yes"/>
      <point x="721.0" y="1274.8000000000002"/>
      <point x="493.33707911866037" y="812.2662498266286"/>
      <point x="389.2" y="610.0" type="curve" smooth="yes"/>
      <point x="287.2384752448748" y="412.07468724005105"/>
      <point x="44.199999999999996" y="-37.599999999999994"/>
      <point x="-54.0" y="-230.0" type="curve" smooth="yes"/>
      <point x="-63.00000000000001" y="-248.0"/>
      <point x="-61.199999999999996" y="-259.59999999999997"/>
      <point x="-49.0" y="-264.0" type="curve" smooth="yes"/>
      <point x="-36.599999999999994" y="-268.8"/>
      <point x="-24.999999999999993" y="-260.6"/>
      <point x="-15.0" y="-243.0" type="curve" smooth="yes"/>
      <point x="100.4" y="-16.0"/>
      <point x="312.760795039277" y="417.9248234773766"/>
    </contour>
  </outline>
</glyph>
<glyph name="zero" format="2">
  <advance width="1235.6"/>
  <unicode hex="0030"/>
  <outline>
    <contour>
      <point x="908.5589772487308" y="1421.6" type="curve" smooth="yes"/>
      <point x="588.7589772487308" y="1421.6"/>
      <point x="302.437142235007" y="1149.0"/>
      <point x="178.60450327280395" y="716.8" type="curve" smooth="yes"/>
      <point x="55.541457453548475" y="288.8"/>
      <point x="168.64102275126925" y="-20.0"/>
      <point x="477.8410227512693" y="-20.0" type="curve" smooth="yes"/>
      <point x="797.4410227512693" y="-20.0"/>
      <point x="1091.7488937130504" y="239.0"/>
      <point x="1223.3605865973395" y="696.4" type="curve" smooth="yes"/>
      <point x="1344.6375964685376" y="1118.8"/>
      <point x="1229.3589772487308" y="1421.6"/>
    </contour>
    <contour>
      <point x="1007.5441437922298" y="690.8" type="curve" smooth="yes"/>
      <point x="870.8720914273663" y="209.2"/>
      <point x="673.8734541279583" y="-4.3999999999999915"/>
      <point x="483.07345412795837" y="-4.3999999999999915" type="curve" smooth="yes"/>
      <point x="306.6734541279584" y="-4.3999999999999915"/>
      <point x="245.10295251794946" y="192.2"/>
      <point x="398.1695931429475" y="736.8000000000001" type="curve" smooth="yes"/>
      <point x="517.5209265466624" y="1159.2"/>
      <point x="698.3265458720416" y="1406.0"/>
      <point x="904.5265458720417" y="1406.0" type="curve" smooth="yes"/>
      <point x="1101.3265458720416" y="1406.0"/>
      <point x="1152.959885715792" y="1210.6"/>
    </contour>
  </outline>
</glyph>
<glyph name="one" format="2">
  <advance width="769.4"/>
  <unicode hex="0031"/>
  <outline>
    <contour>
      <point x="355.0" y="1331.2" type="line" smooth="yes"/>
      <point x="347.6" y="1331.2"/>
      <point x="345.0" y="1334.6"/>
      <point x="345.6" y="1339.0" type="curve" smooth="yes"/>
      <point x="346.2" y="1343.6"/>
      <point x="350.0" y="1346.8000000000002"/>
      <point x="356.8" y="1346.8000000000002" type="curve" smooth="yes"/>
      <point x="532.8" y="1351.0" type="line" smooth="yes"/>
      <point x="654.1999999999999" y="1351.6000000000001"/>
      <point x="706.4000000000001" y="1365.0"/>
      <point x="760.8000000000001" y="1426.0" type="curve" smooth="yes"/>
      <point x="769.0" y="1436.0"/>
      <point x="773.8000000000001" y="1440.4"/>
      <point x="778.6" y="1440.4" type="curve" smooth="yes"/>
      <point x="785.4" y="1440.4"/>
      <point x="786.6" y="1435.6000000000001"/>
      <point x="784.8" y="1426.6" type="curve" smooth="yes"/>
      <point x="393.6" y="59.2" type="line" smooth="yes"/>
      <point x="390.2" y="45.59999999999998"/>
      <point x="391.40000000000003" y="34.19999999999999"/>
      <point x="415.00000000000006" y="32.0" type="curve" smooth="yes"/>
      <point x="583.8" y="13.0" type="line" smooth="yes"/>
      <point x="592.0" y="12.0"/>
      <point x="595.8000000000001" y="10.399999999999991"/>
      <point x="595.1999999999999" y="6.600000000000001" type="curve" smooth="yes"/>
      <point x="594.6" y="1.7999999999999972"/>
      <point x="591.4" y="0.0"/>
      <point x="583.4" y="0.0" type="curve" smooth="yes"/>
      <point x="-42.6" y="0.0" type="line" smooth="yes"/>
      <point x="-48.2" y="0.0"/>
      <point x="-51.6" y="3.0"/>
      <point x="-51.0" y="6.800000000000004" type="curve" smooth="yes"/>
      <point x="-50.400000000000006" y="11.200000000000003"/>
      <point x="-47.0" y="13.599999999999994"/>
      <point x="-40.4" y="14.0" type="curve" smooth="yes"/>
      <point x="156.6" y="32.39999999999999" type="line" smooth="yes"/>
      <point x="172.20000000000002" y="33.80000000000001"/>
      <point x="185.4" y="44.400000000000006"/>
      <point x="191.6" y="63.400000000000006" type="curve" smooth="yes"/>
      <point x="546.8000000000001" y="1292.1999999999998" type="line" smooth="yes"/>
      <point x="553.6" y="1316.6000000000001"/>
      <point x="546.8" y="1327.0"/>
      <point x="529.4000000000001" y="1327.0" type="curve" smooth="yes"/>
    </contour>
  </outline>
</glyph>
<glyph name="two" format="2">
  <advance width="1058.8"/>
  <unicode hex="0032"/>
  <outline>
    <contour>
      <point x="152.4" y="268.6" type="line"/>
      <point x="486.8" y="445.79999999999995" type="line" smooth="yes"/>
      <point x="926.2101678105977" y="691.6883931465421"/>
      <point x="1105.198587182704" y="854.4544192201846"/>
      <point x="1160.0" y="1046.3999999999999" type="curve" smooth="yes"/>
      <point x="1223.837812327759" y="1268.08866711952"/>
      <point x="1112.8000000000002" y="1421.6000000000001"/>
      <point x="856.6" y="1421.6000000000001" type="curve" smooth="yes"/>
      <point x="565.6" y="1421.6000000000001"/>
      <point x="349.60088889066697" y="1243.1440329283962"/>
      <point x="297.8" y="1063.4" type="curve" smooth="yes"/>
      <point x="277.59999999999997" y="991.0"/>
      <point x="303.0" y="953.4000000000001"/>
      <point x="361.40000000000003" y="953.4000000000001" type="curve"/>
      <point x="418.59999999999997" y="953.4000000000001"/>
      <point x="473.59999999999997" y="998.8"/>
      <point x="495.4" y="1078.6000000000001" type="curve" smooth="yes"/>
      <point x="524.6" y="1180.8" type="line" smooth="yes"/>
      <point x="563.4911341038701" y="1310.7802782099545"/>
      <point x="665.4" y="1404.0"/>
      <point x="814.0" y="1404.0" type="curve" smooth="yes"/>
      <point x="939.4000000000001" y="1404.0"/>
      <point x="1019.6" y="1298.3999999999999"/>
      <point x="948.2" y="1047.8" type="curve" smooth="yes"/>
      <point x="876.8000000000001" y="797.2"/>
      <point x="711.6" y="616.6"/>
      <point x="394.40000000000003" y="425.4" type="curve" smooth="yes"/>
      <point x="147.6" y="279.2" type="line"/>
    </contour>
    <contour>
      <point x="-9.399999999999999" y="92.0" type="curve" smooth="yes"/>
      <point x="-27.800000000000004" y="26.4"/>
      <point x="-9.6" y="-12.8"/>
      <point x="36.599999999999994" y="-12.8" type="curve" smooth="yes"/>
      <point x="92.60000000000001" y="-12.8"/>
      <point x="141.20000000000002" y="22.4"/>
      <point x="183.6" y="151.4" type="curve" smooth="yes"/>
      <point x="219.22089700950718" y="268.8500542621718"/>
      <point x="256.6" y="306.40000000000003"/>
      <point x="297.59999999999997" y="306.40000000000003" type="curve" smooth="yes"/>
      <point x="329.2" y="306.40000000000003"/>
      <point x="356.69642356016533" y="282.09828193776787"/>
      <point x="399.0" y="216.2" type="curve" smooth="yes"/>
      <point x="460.59999999999997" y="37.800000000000004"/>
      <point x="521.6" y="-15.8"/>
      <point x="637.1999999999999" y="-15.8" type="curve" smooth="yes"/>
      <point x="773.4" y="-15.8"/>
      <point x="886.8" y="60.4"/>
      <point x="997.4" y="319.40000000000003" type="curve" smooth="yes"/>
      <point x="999.4000000000001" y="323.0"/>
      <point x="999.3999999999999" y="325.8"/>
      <point x="996.6" y="326.79999999999995" type="curve" smooth="yes"/>
      <point x="994.1999999999999" y="327.8"/>
      <point x="992.0" y="326.59999999999997"/>
      <point x="988.0" y="320.8" type="curve" smooth="yes"/>
      <point x="920.8000000000001" y="209.0"/>
      <point x="862.8" y="173.8"/>
      <point x="767.6" y="173.8" type="curve" smooth="yes"/>
      <point x="623.8" y="173.8"/>
      <point x="481.0" y="320.4"/>
      <point x="322.2" y="320.4" type="curve" smooth="yes"/>
      <point x="154.39999999999998" y="320.4"/>
      <point x="28.0" y="225.4"/>
    </contour>
  </outline>
</glyph>
<glyph name="three" format="2">
  <advance width="996.8000000000001"/>
  <unicode hex="0033"/>
  <outline>
    <contour>
      <point x="476.672" y="753.0" type="line"/>
      <point x="1175.432" y="1364.6000000000001" type="line" smooth="yes"/>
      <point x="1187.7520000000002" y="1375.6000000000001"/>
      <point x="1194.696" y="1383.2"/>
      <point x="1195.896" y="1389.0" type="curve" smooth="yes"/>
      <point x="1197.096" y="1396.2"/>
      <point x="1192.136" y="1400.0"/>
      <point x="1183.44" y="1400.0" type="curve" smooth="yes"/>
      <point x="435.72" y="1400.0" type="line" smooth="yes"/>
      <point x="422.24800000000005" y="1400.0"/>
      <point x="414.544" y="1391.8"/>
      <point x="408.408" y="1378.6000000000001" type="curve" smooth="yes"/>
      <point x="285.32000000000005" y="1094.6" type="line" smooth="yes"/>
      <point x="282.552" y="1087.0"/>
      <point x="283.544" y="1082.2"/>
      <point x="287.69599999999997" y="1081.8000000000002" type="curve" smooth="yes"/>
      <point x="291.848" y="1081.3999999999999"/>
      <point x="295.81600000000003" y="1084.2"/>
      <point x="299.576" y="1090.3999999999999" type="curve" smooth="yes"/>
      <point x="374.72" y="1211.0" type="line" smooth="yes"/>
      <point x="385.264" y="1227.6000000000001"/>
      <point x="397.168" y="1232.2"/>
      <point x="415.73600000000005" y="1232.2" type="curve" smooth="yes"/>
      <point x="1000.1519999999999" y="1232.2" type="line"/>
      <point x="1006.6080000000001" y="1247.8" type="line"/>
      <point x="472.176" y="771.1999999999999" type="line" smooth="yes"/>
      <point x="460.896" y="761.0"/>
      <point x="455.568" y="757.4"/>
      <point x="454.968" y="753.1999999999999" type="curve" smooth="yes"/>
      <point x="453.76800000000003" y="748.2"/>
      <point x="455.54400000000004" y="745.5999999999999"/>
      <point x="464.47200000000004" y="745.5999999999999" type="curve" smooth="yes"/>
      <point x="515.808" y="745.5999999999999" type="line" smooth="yes"/>
      <point x="699.992" y="745.5999999999999"/>
      <point x="790.2959999999999" y="615.6"/>
      <point x="712.664" y="346.20000000000005" type="curve" smooth="yes"/>
      <point x="646.016" y="114.39999999999998"/>
      <point x="504.376" y="-5.0"/>
      <point x="352.25600000000003" y="-5.599999999999994" type="curve" smooth="yes"/>
      <point x="200.00000000000003" y="-6.199999999999989"/>
      <point x="143.776" y="65.00000000000001"/>
      <point x="181.68000000000004" y="194.39999999999998" type="curve" smooth="yes"/>
      <point x="204.312" y="271.8" type="line" smooth="yes"/>
      <point x="222.64800000000008" y="334.0"/>
      <point x="193.15200000000002" y="387.40000000000003"/>
      <point x="135.12800000000001" y="387.40000000000003" type="curve" smooth="yes"/>
      <point x="84.27200000000002" y="387.40000000000003"/>
      <point x="37.70400000000002" y="342.0"/>
      <point x="27.504000000000023" y="260.6" type="curve" smooth="yes"/>
      <point x="-1.295999999999978" y="107.79999999999998"/>
      <point x="101.70400000000002" y="-20.0"/>
      <point x="350.752" y="-20.0" type="curve" smooth="yes"/>
      <point x="623.464" y="-20.0"/>
      <point x="848.824" y="133.0"/>
      <point x="919.0720000000001" y="367.0" type="curve" smooth="yes"/>
      <point x="1001.616" y="638.4000000000001"/>
      <point x="846.968" y="772.8000000000001"/>
      <point x="538.616" y="763.2" type="curve" smooth="yes"/>
      <point x="521.9839999999999" y="762.8000000000001"/>
      <point x="489.248" y="761.6"/>
      <point x="472.36000000000007" y="760.8" type="curve"/>
    </contour>
  </outline>
</glyph>
<glyph name="four" format="2">
  <advance width="1019.8"/>
  <unicode hex="0034"/>
  <outline>
    <contour>
      <point x="685.8000000000001" y="787.5999999999999" type="curve" smooth="yes"/>
      <point x="471.4" y="62.19999999999999" type="line" smooth="yes"/>
      <point x="465.59999999999997" y="42.999999999999986"/>
      <point x="454.2" y="30.400000000000006"/>
      <point x="436.4" y="28.599999999999994" type="curve" smooth="yes"/>
      <point x="289.59999999999997" y="14.600000000000009" type="line" smooth="yes"/>
      <point x="283.0" y="14.200000000000003"/>
      <point x="279.0" y="11.799999999999997"/>
      <point x="278.4" y="6.799999999999997" type="curve" smooth="yes"/>
      <point x="277.79999999999995" y="2.0"/>
      <point x="280.6" y="0.0"/>
      <point x="286.8" y="0.0" type="curve" smooth="yes"/>
      <point x="823.2" y="0.0" type="line" smooth="yes"/>
      <point x="831.2" y="0.0"/>
      <point x="834.4" y="3.0"/>
      <point x="835.0" y="7.199999999999996" type="curve" smooth="yes"/>
      <point x="835.6" y="11.599999999999994"/>
      <point x="832.4" y="14.599999999999994"/>
      <point x="824.8000000000001" y="15.399999999999991" type="curve" smooth="yes"/>
      <point x="695.4" y="28.400000000000006" type="line" smooth="yes"/>
      <point x="675.2" y="30.599999999999994"/>
      <point x="668.8" y="41.60000000000001"/>
      <point x="673.4" y="57.39999999999999" type="curve" smooth="yes"/>
      <point x="942.8" y="994.2" type="line" smooth="yes"/>
      <point x="944.6" y="1001.1999999999998"/>
      <point x="944.0" y="1004.6"/>
      <point x="939.4" y="1004.6" type="curve" smooth="yes"/>
      <point x="934.8" y="1004.6"/>
      <point x="931.4000000000001" y="1002.8000000000001"/>
      <point x="922.4" y="995.0" type="curve" smooth="yes"/>
      <point x="702.0" y="810.8" type="line" smooth="yes"/>
      <point x="692.6" y="802.8"/>
      <point x="688.2" y="796.1999999999999"/>
    </contour>
    <contour>
      <point x="636.1999999999999" y="966.6" type="curve" smooth="yes"/>
      <point x="-2.8000000000000043" y="366.19999999999993" type="line" smooth="yes"/>
      <point x="-7.199999999999998" y="362.2"/>
      <point x="-10.599999999999998" y="357.59999999999997"/>
      <point x="-11.200000000000001" y="354.0" type="curve" smooth="yes"/>
      <point x="-12.399999999999999" y="350.4"/>
      <point x="-10.000000000000002" y="347.0"/>
      <point x="-4.0" y="347.0" type="curve" smooth="yes"/>
      <point x="946.8000000000001" y="347.0" type="line" smooth="yes"/>
      <point x="953.0" y="347.0"/>
      <point x="959.4000000000001" y="351.4"/>
      <point x="960.0" y="357.0" type="curve" smooth="yes"/>
      <point x="960.6" y="362.6"/>
      <point x="956.4" y="364.4"/>
      <point x="950.4" y="364.4" type="curve" smooth="yes"/>
      <point x="4.799999999999997" y="364.4" type="line"/>
      <point x="6.400000000000006" y="352.6" type="line"/>
      <point x="774.6" y="1065.0" type="line" smooth="yes"/>
      <point x="886.2" y="1164.6"/>
      <point x="940.6" y="1233.8"/>
      <point x="950.8" y="1311.6000000000001" type="curve" smooth="yes"/>
      <point x="960.4" y="1375.4"/>
      <point x="930.5999999999999" y="1415.0"/>
      <point x="870.2" y="1415.0" type="curve" smooth="yes"/>
      <point x="797.8" y="1415.0"/>
      <point x="738.8000000000001" y="1363.8"/>
      <point x="717.4000000000001" y="1285.6000000000001" type="curve" smooth="yes"/>
      <point x="697.4000000000001" y="1212.6"/>
      <point x="731.8" y="1137.6"/>
      <point x="712.4" y="1072.4" type="curve" smooth="yes"/>
      <point x="700.8" y="1029.6"/>
      <point x="674.2" y="1000.0"/>
    </contour>
  </outline>
</glyph>
<glyph name="five" format="2">
  <advance width="1011.8000000000001"/>
  <unicode hex="0035"/>
  <outline>
    <contour>
      <point x="58.60804000000001" y="272.2" type="curve" smooth="yes"/>
      <point x="29.208040000000008" y="116.79999999999998"/>
      <point x="139.62804" y="-20.0"/>
      <point x="380.97108" y="-20.0" type="curve" smooth="yes"/>
      <point x="647.4013199999999" y="-20.0"/>
      <point x="884.77796" y="146.4"/>
      <point x="961.6374799999999" y="402.4" type="curve" smooth="yes"/>
      <point x="1037.32276" y="657.8"/>
      <point x="913.09476" y="827.1999999999999"/>
      <point x="663.11012" y="827.1999999999999" type="curve" smooth="yes"/>
      <point x="486.34148" y="827.1999999999999"/>
      <point x="339.27795999999995" y="741.6"/>
      <point x="206.3826" y="588.2" type="curve"/>
      <point x="210.53508" y="584.6" type="line"/>
      <point x="406.22835999999995" y="1259.4" type="line"/>
      <point x="393.62436" y="1246.8" type="line"/>
      <point x="481.9100072382937" y="1173.9495282885289"/>
      <point x="620.570672827133" y="1123.4"/>
      <point x="781.99596" y="1123.4" type="curve" smooth="yes"/>
      <point x="999.59596" y="1123.4"/>
      <point x="1136.06796" y="1212.0"/>
      <point x="1217.01196" y="1413.6" type="curve" smooth="yes"/>
      <point x="1219.38796" y="1420.0"/>
      <point x="1218.99596" y="1422.1999999999998"/>
      <point x="1216.82796" y="1423.0" type="curve" smooth="yes"/>
      <point x="1214.65996" y="1423.8"/>
      <point x="1211.49996" y="1421.1999999999998"/>
      <point x="1208.15596" y="1417.2" type="curve" smooth="yes"/>
      <point x="1147.34796" y="1330.0"/>
      <point x="1024.96396" y="1295.2"/>
      <point x="855.81996" y="1295.2" type="curve" smooth="yes"/>
      <point x="716.5189355472156" y="1295.2"/>
      <point x="575.7242626380854" y="1345.5510574186028"/>
      <point x="467.49587999999994" y="1414.8" type="curve" smooth="yes"/>
      <point x="459.33348" y="1419.2"/>
      <point x="453.1394" y="1422.2"/>
      <point x="446.56116" y="1422.2" type="curve" smooth="yes"/>
      <point x="437.58291999999994" y="1422.2"/>
      <point x="431.67796" y="1416.0"/>
      <point x="429.54132" y="1406.2" type="curve" smooth="yes"/>
      <point x="193.73108" y="580.0" type="line" smooth="yes"/>
      <point x="191.9786" y="573.1999999999999"/>
      <point x="193.73108" y="568.0"/>
      <point x="199.97268" y="568.0" type="curve" smooth="yes"/>
      <point x="206.3826" y="568.0"/>
      <point x="211.64004000000003" y="572.8"/>
      <point x="222.44403999999997" y="583.2" type="curve" smooth="yes"/>
      <point x="335.31556" y="719.0"/>
      <point x="484.7098000000001" y="807.1999999999999"/>
      <point x="607.16932" y="807.1999999999999" type="curve" smooth="yes"/>
      <point x="774.3002" y="807.1999999999999"/>
      <point x="840.1656399999999" y="658.8"/>
      <point x="762.15364" y="388.8" type="curve" smooth="yes"/>
      <point x="683.9258" y="115.19999999999999"/>
      <point x="532.01476" y="-5.599999999999994"/>
      <point x="381.377" y="-5.599999999999994" type="curve" smooth="yes"/>
      <point x="231.05012000000002" y="-5.599999999999994"/>
      <point x="169.7946" y="67.99999999999999"/>
      <point x="209.20852000000002" y="201.0" type="curve" smooth="yes"/>
      <point x="229.87588" y="273.0" type="line" smooth="yes"/>
      <point x="249.87396000000004" y="342.0"/>
      <point x="220.15108000000004" y="388.0"/>
      <point x="160.68356" y="388.0" type="curve" smooth="yes"/>
      <point x="112.35668000000001" y="388.0"/>
      <point x="65.20804000000001" y="341.8"/>
    </contour>
  </outline>
</glyph>
<glyph name="six" format="2">
  <advance width="1103.2"/>
  <unicode hex="0036"/>
  <outline>
    <contour>
      <point x="912.4" y="1421.6" type="curve" smooth="yes"/>
      <point x="613.4000000000001" y="1421.6"/>
      <point x="317.59999999999997" y="1169.8000000000002"/>
      <point x="172.4" y="680.1999999999999" type="curve" smooth="yes"/>
      <point x="41.199999999999996" y="239.20000000000002"/>
      <point x="176.0" y="-20.0"/>
      <point x="480.6" y="-20.0" type="curve" smooth="yes"/>
      <point x="731.4" y="-20.0"/>
      <point x="972.0" y="156.0"/>
      <point x="1048.6000000000001" y="416.6" type="curve" smooth="yes"/>
      <point x="1131.0" y="695.4"/>
      <point x="977.4000000000001" y="851.1999999999999"/>
      <point x="752.0" y="851.1999999999999" type="curve" smooth="yes"/>
      <point x="551.4" y="851.1999999999999"/>
      <point x="376.0" y="731.4"/>
      <point x="307.8" y="508.99999999999994" type="curve"/>
      <point x="318.8" y="505.00000000000006" type="line"/>
      <point x="379.2" y="705.4"/>
      <point x="551.0" y="827.6"/>
      <point x="691.0" y="827.6" type="curve" smooth="yes"/>
      <point x="852.4" y="827.6"/>
      <point x="927.1999999999999" y="696.4"/>
      <point x="847.8000000000001" y="410.0" type="curve" smooth="yes"/>
      <point x="768.8" y="131.2"/>
      <point x="635.0" y="-4.400000000000006"/>
      <point x="472.0" y="-4.400000000000006" type="curve" smooth="yes"/>
      <point x="298.00000000000006" y="-4.400000000000006"/>
      <point x="230.39999999999998" y="158.4"/>
      <point x="365.6" y="631.4" type="curve" smooth="yes"/>
      <point x="524.0" y="1184.2"/>
      <point x="720.1999999999999" y="1406.0"/>
      <point x="911.8" y="1406.0" type="curve" smooth="yes"/>
      <point x="1044.2" y="1406.0"/>
      <point x="1092.0" y="1335.2"/>
      <point x="1058.8" y="1224.0" type="curve" smooth="yes"/>
      <point x="1039.0" y="1156.6" type="line" smooth="yes"/>
      <point x="1016.8000000000001" y="1079.8"/>
      <point x="1044.4" y="1033.0"/>
      <point x="1108.4" y="1033.0" type="curve" smooth="yes"/>
      <point x="1164.6000000000001" y="1033.0"/>
      <point x="1213.0" y="1078.0"/>
      <point x="1222.0" y="1155.8" type="curve" smooth="yes"/>
      <point x="1246.0" y="1293.2"/>
      <point x="1133.4" y="1421.6"/>
    </contour>
  </outline>
</glyph>
<glyph name="seven" format="2">
  <advance width="855.4"/>
  <unicode hex="0037"/>
  <outline>
    <contour>
      <point x="1015.0" y="1251.0" type="line"/>
      <point x="546.2" y="672.0" type="line" smooth="yes"/>
      <point x="373.59999999999997" y="463.0"/>
      <point x="224.3414175140599" y="311.7779315067852"/>
      <point x="180.79999999999998" y="158.59999999999997" type="curve" smooth="yes"/>
      <point x="147.4" y="41.8"/>
      <point x="174.0" y="-18.0"/>
      <point x="254.2" y="-18.0" type="curve" smooth="yes"/>
      <point x="330.20000000000005" y="-18.0"/>
      <point x="387.6" y="34.0"/>
      <point x="407.59999999999997" y="100.60000000000001" type="curve" smooth="yes"/>
      <point x="434.20000000000005" y="195.4"/>
      <point x="378.6" y="276.8"/>
      <point x="413.6" y="393.8" type="curve" smooth="yes"/>
      <point x="440.364496674444" y="483.1551762762484"/>
      <point x="496.40000000000003" y="579.1999999999999"/>
      <point x="581.2" y="685.0" type="curve" smooth="yes"/>
      <point x="1133.2" y="1363.6" type="line" smooth="yes"/>
      <point x="1143.1999999999998" y="1375.6"/>
      <point x="1151.3999999999999" y="1384.6000000000001"/>
      <point x="1152.0" y="1392.2" type="curve" smooth="yes"/>
      <point x="1152.6" y="1396.4"/>
      <point x="1149.4" y="1400.0"/>
      <point x="1141.2" y="1400.0" type="curve" smooth="yes"/>
      <point x="361.40000000000003" y="1400.0" type="line" smooth="yes"/>
      <point x="351.0" y="1400.0"/>
      <point x="345.2" y="1393.4"/>
      <point x="340.4" y="1382.2" type="curve" smooth="yes"/>
      <point x="206.4" y="1095.8000000000002" type="line" smooth="yes"/>
      <point x="202.6" y="1088.2"/>
      <point x="203.4" y="1083.6000000000001"/>
      <point x="207.6" y="1083.1999999999998" type="curve" smooth="yes"/>
      <point x="212.8" y="1082.8"/>
      <point x="217.8" y="1086.6000000000001"/>
      <point x="222.6" y="1092.8" type="curve" smooth="yes"/>
      <point x="299.4" y="1212.2" type="line" smooth="yes"/>
      <point x="306.2" y="1221.3999999999999"/>
      <point x="314.4" y="1228.0"/>
      <point x="331.2" y="1228.0" type="curve" smooth="yes"/>
      <point x="1003.4" y="1228.0" type="line"/>
    </contour>
  </outline>
</glyph>
<glyph name="eight" format="2">
  <advance width="1011.2"/>
  <unicode hex="0038"/>
  <outline>
    <contour>
      <point x="379.0" y="-21.2" type="curve" smooth="yes"/>
      <point x="629.0" y="-21.2"/>
      <point x="842.0" y="111.8"/>
      <point x="899.0" y="304.20000000000005" type="curve" smooth="yes"/>
      <point x="945.6" y="460.8"/>
      <point x="877.1999999999999" y="585.1999999999999"/>
      <point x="658.0" y="719.8" type="curve" smooth="yes"/>
      <point x="464.6" y="834.0"/>
      <point x="389.40000000000003" y="945.2"/>
      <point x="451.0" y="1136.6" type="curve" smooth="yes"/>
      <point x="500.6" y="1291.0"/>
      <point x="656.8000000000001" y="1405.6"/>
      <point x="814.8000000000001" y="1405.6" type="curve" smooth="yes"/>
      <point x="1003.8" y="1405.6"/>
      <point x="1078.2" y="1250.6"/>
      <point x="997.0" y="1021.5999999999999" type="curve" smooth="yes"/>
      <point x="939.8" y="856.2"/>
      <point x="810.2" y="735.4000000000001"/>
      <point x="671.4000000000001" y="661.4" type="curve"/>
      <point x="671.5999999999999" y="653.0" type="line"/>
      <point x="865.6" y="703.5999999999999"/>
      <point x="1087.2" y="860.8000000000001"/>
      <point x="1144.8" y="1041.6" type="curve" smooth="yes"/>
      <point x="1219.0" y="1271.8"/>
      <point x="1080.0" y="1421.2"/>
      <point x="830.8000000000001" y="1421.2" type="curve" smooth="yes"/>
      <point x="575.0" y="1421.2"/>
      <point x="322.59999999999997" y="1258.0"/>
      <point x="265.20000000000005" y="1049.6" type="curve" smooth="yes"/>
      <point x="206.79999999999998" y="841.6"/>
      <point x="296.0" y="726.6"/>
      <point x="531.1999999999999" y="580.2" type="curve" smooth="yes"/>
      <point x="698.0" y="487.20000000000005"/>
      <point x="761.8" y="383.0"/>
      <point x="712.0" y="233.2" type="curve" smooth="yes"/>
      <point x="666.5999999999999" y="95.80000000000001"/>
      <point x="537.4" y="-5.799999999999997"/>
      <point x="384.4" y="-5.799999999999997" type="curve" smooth="yes"/>
      <point x="221.0" y="-5.799999999999997"/>
      <point x="137.39999999999998" y="97.79999999999998"/>
      <point x="219.2" y="343.2" type="curve" smooth="yes"/>
      <point x="256.2" y="457.40000000000003"/>
      <point x="361.2" y="587.2"/>
      <point x="493.00000000000006" y="646.4000000000001" type="curve"/>
      <point x="492.59999999999997" y="654.6" type="line"/>
      <point x="244.6" y="594.5999999999999"/>
      <point x="107.8" y="444.8"/>
      <point x="70.6" y="323.4" type="curve" smooth="yes"/>
      <point x="10.600000000000001" y="123.60000000000001"/>
      <point x="131.6" y="-21.2"/>
    </contour>
  </outline>
</glyph>
<glyph name="nine" format="2">
  <advance width="1095.0"/>
  <unicode hex="0039"/>
  <outline>
    <contour>
      <point x="367.8" y="-20.0" type="curve" smooth="yes"/>
      <point x="665.5999999999999" y="-20.0"/>
      <point x="960.8" y="231.8"/>
      <point x="1106.0" y="721.4" type="curve" smooth="yes"/>
      <point x="1237.2" y="1162.4"/>
      <point x="1103.6000000000001" y="1421.6"/>
      <point x="799.6" y="1421.6" type="curve" smooth="yes"/>
      <point x="548.8" y="1421.6"/>
      <point x="308.2" y="1245.6000000000001"/>
      <point x="231.6" y="985.0" type="curve" smooth="yes"/>
      <point x="149.8" y="706.2"/>
      <point x="302.8" y="550.4"/>
      <point x="528.1999999999999" y="550.4" type="curve" smooth="yes"/>
      <point x="728.8" y="550.4"/>
      <point x="904.2" y="670.1999999999999"/>
      <point x="972.3999999999999" y="892.6" type="curve"/>
      <point x="961.4" y="896.6" type="line"/>
      <point x="901.6" y="696.1999999999999"/>
      <point x="729.1999999999999" y="574.0"/>
      <point x="589.2" y="574.0" type="curve" smooth="yes"/>
      <point x="427.8" y="574.0"/>
      <point x="352.99999999999994" y="705.2"/>
      <point x="432.40000000000003" y="991.6" type="curve" smooth="yes"/>
      <point x="510.8" y="1270.3999999999999"/>
      <point x="645.2" y="1406.0"/>
      <point x="808.2" y="1406.0" type="curve" smooth="yes"/>
      <point x="982.2" y="1406.0"/>
      <point x="1049.8" y="1243.2"/>
      <point x="914.6" y="770.1999999999999" type="curve" smooth="yes"/>
      <point x="756.8" y="217.39999999999998"/>
      <point x="560.0" y="-4.400000000000006"/>
      <point x="368.4" y="-4.400000000000006" type="curve" smooth="yes"/>
      <point x="234.2" y="-4.400000000000006"/>
      <point x="185.2" y="66.99999999999999"/>
      <point x="218.39999999999998" y="178.2" type="curve" smooth="yes"/>
      <point x="238.8" y="246.8" type="line" smooth="yes"/>
      <point x="260.4" y="322.4"/>
      <point x="234.00000000000006" y="368.6"/>
      <point x="171.8" y="368.6" type="curve" smooth="yes"/>
      <point x="115.60000000000001" y="368.6"/>
      <point x="67.8" y="323.59999999999997"/>
      <point x="58.2" y="245.8" type="curve" smooth="yes"/>
      <point x="33.599999999999994" y="108.39999999999999"/>
      <point x="146.8" y="-20.0"/>
    </contour>
  </outline>
</glyph>
<glyph name="less" format="2">
  <advance width="863.0"/>
  <unicode hex="003C"/>
  <outline>
    <contour>
      <point x="140.39999999999998" y="683.1999999999999" type="line"/>
      <point x="737.0" y="273.0" type="line" smooth="yes"/>
      <point x="739.9007862597991" y="271.0330126401059"/>
      <point x="742.3067859955389" y="268.22714398215584"/>
      <point x="742.0" y="265.2" type="curve" smooth="yes"/>
      <point x="741.6" y="262.40000000000003"/>
      <point x="739.8000000000001" y="261.0"/>
      <point x="737.0" y="261.0" type="curve" smooth="yes"/>
      <point x="734.1999999999999" y="261.0"/>
      <point x="731.8" y="262.4"/>
      <point x="727.8000000000001" y="265.0" type="curve" smooth="yes"/>
      <point x="135.4" y="671.0" type="line" smooth="yes"/>
      <point x="129.79999999999998" y="675.2"/>
      <point x="127.4" y="678.6"/>
      <point x="128.8" y="684.1999999999999" type="curve" smooth="yes"/>
      <point x="130.20000000000002" y="689.2"/>
      <point x="133.4" y="692.0"/>
      <point x="140.6" y="695.6" type="curve" smooth="yes"/>
      <point x="921.8000000000001" y="1099.8" type="line" smooth="yes"/>
      <point x="925.8000000000001" y="1102.0"/>
      <point x="928.6" y="1102.6"/>
      <point x="930.5999999999999" y="1102.6" type="curve" smooth="yes"/>
      <point x="934.1999999999999" y="1102.6"/>
      <point x="935.6000000000001" y="1101.2"/>
      <point x="934.8000000000001" y="1098.4" type="curve" smooth="yes"/>
      <point x="934.2862822931289" y="1095.1451291725155"/>
      <point x="931.9047750979341" y="1092.3895822065085"/>
      <point x="926.4" y="1089.6000000000001" type="curve" smooth="yes"/>
      <point x="139.99999999999997" y="681.8" type="line"/>
    </contour>
  </outline>
</glyph>
<glyph name="question" format="2">
  <advance width="781.8000000000001"/>
  <unicode hex="003F"/>
  <outline>
    <contour>
      <point x="318.2" y="598.4" type="line" smooth="yes"/>
      <point x="327.0" y="631.4000000000001"/>
      <point x="338.6" y="651.4"/>
      <point x="376.0" y="670.0" type="curve" smooth="yes"/>
      <point x="418.4" y="691.4" type="line" smooth="yes"/>
      <point x="587.8610878489534" y="776.6205586251383"/>
      <point x="683.702924343152" y="903.5409368866906"/>
      <point x="752.8" y="1131.6" type="curve" smooth="yes"/>
      <point x="812.0" y="1328.8"/>
      <point x="759.2" y="1422.6000000000001"/>
      <point x="639.2" y="1422.6000000000001" type="curve" smooth="yes"/>
      <point x="500.2" y="1422.6000000000001"/>
      <point x="418.2" y="1343.8"/>
      <point x="382.8" y="1227.6000000000001" type="curve" smooth="yes"/>
      <point x="356.6" y="1140.4" type="line" smooth="yes"/>
      <point x="336.6" y="1076.3999999999999"/>
      <point x="297.8" y="1045.6"/>
      <point x="246.4" y="1045.6" type="curve" smooth="yes"/>
      <point x="196.2" y="1045.6"/>
      <point x="171.2" y="1088.6"/>
      <point x="187.8" y="1148.8000000000002" type="curve" smooth="yes"/>
      <point x="232.2" y="1302.2"/>
      <point x="417.0" y="1438.8"/>
      <point x="650.0" y="1438.8" type="curve" smooth="yes"/>
      <point x="889.6" y="1438.8"/>
      <point x="1005.1999999999999" y="1303.0"/>
      <point x="946.0" y="1099.1999999999998" type="curve" smooth="yes"/>
      <point x="889.1985969708979" y="904.321220578524"/>
      <point x="732.6256296151894" y="762.5054431935712"/>
      <point x="470.4" y="669.4" type="curve" smooth="yes"/>
      <point x="410.8" y="651.4" type="line" smooth="yes"/>
      <point x="363.79999999999995" y="635.8"/>
      <point x="347.2" y="617.0"/>
      <point x="335.6" y="580.0" type="curve" smooth="yes"/>
      <point x="273.6" y="376.79999999999995" type="line" smooth="yes"/>
      <point x="271.0" y="369.0"/>
      <point x="267.20000000000005" y="365.6"/>
      <point x="262.6" y="365.6" type="curve" smooth="yes"/>
      <point x="257.6" y="365.6"/>
      <point x="256.2" y="370.40000000000003"/>
      <point x="258.0" y="377.8" type="curve" smooth="yes"/>
    </contour>
    <component base="period" xOffset="56.0" yOffset="0.40000000000000013"/>
  </outline>
</glyph>
<glyph name="at" format="2">
  <advance width="1445.6000000000001"/>
  <unicode hex="0040"/>
  <outline>
    <contour>
      <point x="551.2" y="410.4" type="curve" smooth="yes"/>
      <point x="591.4000000000001" y="695.1999999999999"/>
      <point x="778.0" y="981.1999999999999"/>
      <point x="975.1999999999999" y="981.1999999999999" type="curve" smooth="yes"/>
      <point x="1017.5999999999999" y="981.1999999999999"/>
      <point x="1019.8" y="947.4"/>
      <point x="1003.4000000000001" y="888.2" type="curve" smooth="yes"/>
      <point x="873.6" y="421.40000000000003"/>
      <point x="735.2" y="202.8"/>
      <point x="624.2" y="202.8" type="curve" smooth="yes"/>
      <point x="568.4" y="202.8"/>
      <point x="526.6" y="263.20000000000005"/>
    </contour>
    <contour>
      <point x="945.4000000000001" y="149.0" type="curve" smooth="yes"/>
      <point x="1157.5590909090909" y="149.0"/>
      <point x="1382.7522731509332" y="313.79555812414736"/>
      <point x="1455.0" y="607.0" type="curve" smooth="yes"/>
      <point x="1571.0" y="1076.6"/>
      <point x="1340.2" y="1351.0"/>
      <point x="973.8000000000001" y="1351.0" type="curve" smooth="yes"/>
      <point x="545.4" y="1351.0"/>
      <point x="196.0" y="1022.3999999999999"/>
      <point x="85.4" y="576.0" type="curve" smooth="yes"/>
      <point x="-37.400000000000006" y="79.2"/>
      <point x="197.2" y="-231.0"/>
      <point x="596.8" y="-231.0" type="curve" smooth="yes"/>
      <point x="862.0" y="-231.0"/>
      <point x="1126.8" y="-112.4"/>
      <point x="1339.0" y="111.8" type="curve" smooth="yes"/>
      <point x="1342.2" y="115.39999999999998"/>
      <point x="1344.6000000000001" y="122.6"/>
      <point x="1342.2" y="124.60000000000001" type="curve" smooth="yes"/>
      <point x="1339.0" y="128.4"/>
      <point x="1334.8" y="127.0"/>
      <point x="1328.0" y="120.19999999999999" type="curve" smooth="yes"/>
      <point x="1126.0" y="-96.2"/>
      <point x="860.8" y="-217.0"/>
      <point x="601.0" y="-217.0" type="curve" smooth="yes"/>
      <point x="200.4" y="-217.0"/>
      <point x="-17.39999999999999" y="101.6"/>
      <point x="100.19999999999999" y="576.0" type="curve" smooth="yes"/>
      <point x="207.0" y="1010.0"/>
      <point x="551.8000000000001" y="1337.0"/>
      <point x="969.6" y="1337.0" type="curve" smooth="yes"/>
      <point x="1328.2" y="1337.0"/>
      <point x="1554.0" y="1066.2"/>
      <point x="1440.2" y="607.0" type="curve" smooth="yes"/>
      <point x="1373.3549441884086" y="331.4021768272319"/>
      <point x="1161.915294117647" y="186.8"/>
      <point x="1033.1999999999998" y="186.8" type="curve" smooth="yes"/>
      <point x="996.1999999999999" y="186.8"/>
      <point x="979.8" y="217.60000000000002"/>
      <point x="1014.0" y="346.20000000000005" type="curve" smooth="yes"/>
      <point x="1165.2" y="918.2" type="line" smooth="yes"/>
      <point x="1170.2" y="936.4"/>
      <point x="1197.0" y="936.2"/>
      <point x="1197.0" y="952.6" type="curve" smooth="yes"/>
      <point x="1197.0" y="968.0"/>
      <point x="1115.0" y="999.2"/>
      <point x="999.6" y="999.2" type="curve" smooth="yes"/>
      <point x="700.1999999999999" y="999.2"/>
      <point x="422.6" y="732.6"/>
      <point x="387.8" y="435.4" type="curve" smooth="yes"/>
      <point x="360.2" y="238.6"/>
      <point x="426.8" y="149.0"/>
      <point x="544.8000000000001" y="149.0" type="curve" smooth="yes"/>
      <point x="706.2" y="149.0"/>
      <point x="829.4" y="318.2"/>
      <point x="927.2" y="575.6" type="curve"/>
      <point x="919.8" y="579.5999999999999" type="line"/>
      <point x="865.0" y="390.0"/>
      <point x="838.8000000000001" y="282.8"/>
      <point x="838.8" y="234.4" type="curve" smooth="yes"/>
      <point x="838.8" y="177.6"/>
      <point x="867.5999999999999" y="149.0"/>
    </contour>
  </outline>
</glyph>
<glyph name="A" format="2">
  <advance width="1102.0"/>
  <unicode hex="0041"/>
  <anchor x="952.4" y="1532.0" name="center"/>
  <outline>
    <contour>
      <point x="139.8" y="216.60000000000002" type="curve" smooth="yes"/>
      <point x="766.2" y="1194.8" type="line" smooth="yes"/>
      <point x="796.4" y="1242.8000000000002"/>
      <point x="800.8000000000001" y="1249.1999999999998"/>
      <point x="804.0" y="1252.4" type="curve"/>
      <point x="790.8" y="1251.6000000000001" type="line"/>
      <point x="788.1999999999999" y="1167.6"/>
      <point x="716.1999999999999" y="166.0"/>
      <point x="709.1999999999999" y="70.39999999999998" type="curve" smooth="yes"/>
      <point x="707.0" y="47.20000000000002"/>
      <point x="698.5999999999999" y="33.2"/>
      <point x="671.0" y="29.19999999999999" type="curve" smooth="yes"/>
      <point x="550.0" y="11.600000000000009" type="line" smooth="yes"/>
      <point x="545.1999999999999" y="11.200000000000003"/>
      <point x="542.4000000000001" y="8.799999999999997"/>
      <point x="542.4000000000001" y="5.600000000000001" type="curve" smooth="yes"/>
      <point x="542.4" y="2.400000000000002"/>
      <point x="546.4" y="0.0"/>
      <point x="550.8000000000001" y="0.0" type="curve" smooth="yes"/>
      <point x="998.0" y="0.0" type="line" smooth="yes"/>
      <point x="1004.8" y="0.0"/>
      <point x="1008.0" y="2.3999999999999986"/>
      <point x="1007.9999999999999" y="6.0" type="curve" smooth="yes"/>
      <point x="1007.9999999999999" y="9.199999999999996"/>
      <point x="1004.8000000000001" y="11.600000000000009"/>
      <point x="997.1999999999999" y="12.399999999999991" type="curve" smooth="yes"/>
      <point x="911.4" y="24.799999999999997"/>
      <point x="900.6" y="39.19999999999999"/>
      <point x="901.5999999999999" y="78.0" type="curve" smooth="yes"/>
      <point x="904.8" y="165.60000000000002"/>
      <point x="966.0" y="1220.8"/>
      <point x="969.8000000000001" y="1280.0" type="curve" smooth="yes"/>
      <point x="976.4" y="1361.2"/>
      <point x="1018.1999999999999" y="1404.3999999999999"/>
      <point x="1077.8000000000002" y="1404.4" type="curve" smooth="yes"/>
      <point x="1086.6000000000001" y="1404.4"/>
      <point x="1089.3999999999999" y="1407.6000000000001"/>
      <point x="1089.3999999999999" y="1411.6" type="curve" smooth="yes"/>
      <point x="1090.0" y="1416.8"/>
      <point x="1085.6" y="1418.8000000000002"/>
      <point x="1075.2" y="1418.8000000000002" type="curve" smooth="yes"/>
      <point x="962.8000000000001" y="1418.8000000000002"/>
      <point x="853.0" y="1358.8"/>
      <point x="756.6" y="1208.3999999999999" type="curve" smooth="yes"/>
      <point x="120.8" y="222.0" type="line" smooth="yes"/>
      <point x="39.8" y="95.80000000000001"/>
      <point x="-28.199999999999996" y="32.79999999999998"/>
      <point x="-90.79999999999998" y="18.0" type="curve" smooth="yes"/>
      <point x="-102.80000000000001" y="13.600000000000009"/>
      <point x="-108.4" y="11.599999999999994"/>
      <point x="-108.4" y="6.0" type="curve" smooth="yes"/>
      <point x="-108.4" y="2.0"/>
      <point x="-105.6" y="0.0"/>
      <point x="-97.60000000000001" y="0.0" type="curve" smooth="yes"/>
      <point x="232.4" y="0.0" type="line" smooth="yes"/>
      <point x="239.60000000000002" y="0.0"/>
      <point x="244.0" y="2.400000000000002"/>
      <point x="244.0" y="6.799999999999997" type="curve" smooth="yes"/>
      <point x="244.00000000000003" y="11.600000000000001"/>
      <point x="240.0" y="13.599999999999994"/>
      <point x="232.8" y="14.400000000000006" type="curve" smooth="yes"/>
      <point x="199.60000000000002" y="18.799999999999997" type="line" smooth="yes"/>
      <point x="110.8" y="34.39999999999999"/>
      <point x="71.99999999999999" y="109.6"/>
    </contour>
    <contour>
      <point x="273.20000000000005" y="448.0" type="line"/>
      <point x="799.2" y="448.0" type="line"/>
      <point x="798.4000000000001" y="463.6" type="line"/>
      <point x="281.2" y="463.6" type="line"/>
    </contour>
  </outline>
</glyph>
<glyph name="B" format="2">
  <advance width="1192.4"/>
  <unicode hex="0042"/>
  <outline>
    <contour>
      <point x="679.0" y="1304.4" type="curve" smooth="yes"/>
      <point x="694.6" y="1360.4"/>
      <point x="721.2" y="1385.6"/>
      <point x="811.6" y="1385.6" type="curve" smooth="yes"/>
      <point x="968.1999999999999" y="1385.6"/>
      <point x="1062.8" y="1278.6"/>
      <point x="1035.4" y="1079.8" type="curve" smooth="yes"/>
      <point x="1001.2" y="827.0"/>
      <point x="854.6" y="668.4"/>
      <point x="642.0" y="668.4" type="curve" smooth="yes"/>
      <point x="453.6" y="668.4" type="line"/>
      <point x="452.0" y="654.0" type="line"/>
      <point x="630.4" y="654.0" type="line" smooth="yes"/>
      <point x="822.0" y="654.0"/>
      <point x="928.1999999999999" y="541.8"/>
      <point x="898.6" y="349.40000000000003" type="curve" smooth="yes"/>
      <point x="866.8" y="139.0"/>
      <point x="730.4" y="15.599999999999994"/>
      <point x="511.40000000000003" y="15.599999999999994" type="curve" smooth="yes"/>
      <point x="389.00000000000006" y="15.599999999999994"/>
      <point x="337.6" y="41.59999999999998"/>
      <point x="352.0" y="99.99999999999999" type="curve" smooth="yes"/>
      <point x="422.80000000000007" y="380.4"/>
      <point x="574.6" y="936.8000000000001"/>
    </contour>
    <contour>
      <point x="353.20000000000005" y="1400.0" type="line" smooth="yes"/>
      <point x="347.2" y="1400.0"/>
      <point x="342.8" y="1397.6"/>
      <point x="342.79999999999995" y="1393.2" type="curve" smooth="yes"/>
      <point x="342.79999999999995" y="1388.8"/>
      <point x="344.20000000000005" y="1386.0"/>
      <point x="355.8" y="1384.4" type="curve" smooth="yes"/>
      <point x="459.8" y="1370.8" type="line" smooth="yes"/>
      <point x="480.59999999999997" y="1368.0"/>
      <point x="491.6" y="1356.3999999999999"/>
      <point x="486.40000000000003" y="1330.0" type="curve" smooth="yes"/>
      <point x="426.20000000000005" y="1092.4"/>
      <point x="210.8" y="307.2"/>
      <point x="141.6" y="73.60000000000001" type="curve" smooth="yes"/>
      <point x="132.39999999999998" y="45.2"/>
      <point x="120.39999999999999" y="29.200000000000003"/>
      <point x="95.19999999999999" y="26.799999999999997" type="curve" smooth="yes"/>
      <point x="-5.399999999999999" y="15.200000000000003" type="line" smooth="yes"/>
      <point x="-12.600000000000001" y="14.800000000000011"/>
      <point x="-17.8" y="12.0"/>
      <point x="-17.8" y="6.399999999999999" type="curve" smooth="yes"/>
      <point x="-17.8" y="2.0"/>
      <point x="-13.8" y="0.0"/>
      <point x="-6.999999999999993" y="0.0" type="curve" smooth="yes"/>
      <point x="533.8" y="0.0" type="line" smooth="yes"/>
      <point x="891.8" y="0.0"/>
      <point x="1080.4" y="134.6"/>
      <point x="1105.2" y="343.0" type="curve" smooth="yes"/>
      <point x="1129.2" y="543.0"/>
      <point x="958.8" y="664.8000000000001"/>
      <point x="654.8" y="664.8000000000001" type="curve"/>
      <point x="668.8000000000001" y="659.6" type="line"/>
      <point x="961.0" y="659.6"/>
      <point x="1188.2" y="818.2"/>
      <point x="1219.0" y="1053.0" type="curve" smooth="yes"/>
      <point x="1247.8" y="1269.3999999999999"/>
      <point x="1112.0" y="1400.0"/>
      <point x="849.1999999999999" y="1400.0" type="curve" smooth="yes"/>
    </contour>
  </outline>
</glyph>
<glyph name="C" format="2">
  <advance width="1191.4"/>
  <unicode hex="0043"/>
  <anchor x="937.6" y="1510.0" name="center"/>
  <outline>
    <contour>
      <point x="1109.3999999999999" y="392.40000000000003" type="curve" smooth="yes"/>
      <point x="1105.8000000000002" y="394.4"/>
      <point x="1099.0" y="389.8"/>
      <point x="1093.6" y="379.2" type="curve" smooth="yes"/>
      <point x="971.1999999999999" y="129.0"/>
      <point x="798.6" y="46.40000000000002"/>
      <point x="654.6" y="46.40000000000002" type="curve" smooth="yes"/>
      <point x="435.59999999999997" y="46.40000000000002"/>
      <point x="293.2" y="205.0"/>
      <point x="375.8" y="654.6" type="curve" smooth="yes"/>
      <point x="451.2" y="1067.6"/>
      <point x="678.1999999999999" y="1393.0"/>
      <point x="948.2" y="1393.0" type="curve" smooth="yes"/>
      <point x="1080.4" y="1393.0"/>
      <point x="1184.8" y="1317.0"/>
      <point x="1244.6000000000001" y="1109.3999999999999" type="curve" smooth="yes"/>
      <point x="1270.6" y="1019.0" type="line" smooth="yes"/>
      <point x="1273.6" y="1009.4000000000001"/>
      <point x="1277.0" y="1002.5999999999999"/>
      <point x="1284.0" y="1003.8" type="curve" smooth="yes"/>
      <point x="1288.6000000000001" y="1004.4"/>
      <point x="1291.2" y="1008.6"/>
      <point x="1291.6" y="1019.1999999999999" type="curve" smooth="yes"/>
      <point x="1312.2" y="1400.8" type="line" smooth="yes"/>
      <point x="1312.6" y="1412.2"/>
      <point x="1310.0" y="1416.8"/>
      <point x="1304.4" y="1416.8" type="curve" smooth="yes"/>
      <point x="1293.1999999999998" y="1416.8"/>
      <point x="1213.6" y="1290.0"/>
      <point x="1193.2" y="1290.0" type="curve" smooth="yes"/>
      <point x="1178.6" y="1290.0"/>
      <point x="1117.8" y="1420.4"/>
      <point x="918.8" y="1420.4" type="curve" smooth="yes"/>
      <point x="557.0" y="1420.4"/>
      <point x="228.0" y="1065.4"/>
      <point x="149.2" y="629.2" type="curve" smooth="yes"/>
      <point x="72.0" y="202.20000000000005"/>
      <point x="272.40000000000003" y="-17.0"/>
      <point x="553.6" y="-17.0" type="curve" smooth="yes"/>
      <point x="786.0" y="-17.0"/>
      <point x="982.6" y="101.8"/>
      <point x="1108.2" y="372.0" type="curve" smooth="yes"/>
      <point x="1113.4" y="384.2"/>
      <point x="1113.4" y="388.59999999999997"/>
    </contour>
  </outline>
</glyph>
<glyph name="D" format="2">
  <advance width="1339.4"/>
  <unicode hex="0044"/>
  <anchor x="949.0" y="1485.0" name="center"/>
  <outline>
    <contour>
      <point x="-15.999999999999996" y="7.0" type="curve" smooth="yes"/>
      <point x="-16.0" y="2.599999999999998"/>
      <point x="-12.600000000000001" y="0.0"/>
      <point x="-4.599999999999994" y="0.0" type="curve" smooth="yes"/>
      <point x="478.40000000000003" y="0.0" type="line" smooth="yes"/>
      <point x="934.1999999999999" y="0.0"/>
      <point x="1262.8" y="305.6"/>
      <point x="1337.4" y="733.2" type="curve" smooth="yes"/>
      <point x="1415.6000000000001" y="1176.2"/>
      <point x="1188.0" y="1400.0"/>
      <point x="859.2" y="1400.0" type="curve" smooth="yes"/>
      <point x="355.6" y="1400.0" type="line" smooth="yes"/>
      <point x="347.8" y="1400.0"/>
      <point x="344.6" y="1397.6000000000001"/>
      <point x="344.59999999999997" y="1393.2" type="curve" smooth="yes"/>
      <point x="344.6" y="1388.2"/>
      <point x="347.2" y="1385.4"/>
      <point x="362.4" y="1383.8" type="curve" smooth="yes"/>
      <point x="453.8" y="1372.0" type="line" smooth="yes"/>
      <point x="487.8" y="1367.3999999999999"/>
      <point x="494.6" y="1355.8"/>
      <point x="486.4" y="1323.3999999999999" type="curve" smooth="yes"/>
      <point x="412.20000000000005" y="1047.0"/>
      <point x="228.6" y="377.99999999999994"/>
      <point x="145.2" y="78.4" type="curve" smooth="yes"/>
      <point x="135.2" y="44.0"/>
      <point x="121.4" y="28.60000000000001"/>
      <point x="84.4" y="25.0" type="curve" smooth="yes"/>
      <point x="-3.0" y="15.200000000000003" type="line" smooth="yes"/>
      <point x="-12.0" y="14.200000000000003"/>
      <point x="-16.0" y="11.400000000000006"/>
    </contour>
    <contour>
      <point x="485.59999999999997" y="15.599999999999994" type="curve" smooth="yes"/>
      <point x="413.40000000000003" y="15.599999999999994" type="line" smooth="yes"/>
      <point x="357.66315789473686" y="15.599999999999994"/>
      <point x="339.6890018881345" y="51.34320007809208"/>
      <point x="358.0" y="122.8" type="curve" smooth="yes"/>
      <point x="435.2" y="404.0"/>
      <point x="598.6" y="1011.0"/>
      <point x="682.4" y="1310.6" type="curve" smooth="yes"/>
      <point x="697.2" y="1363.8"/>
      <point x="724.2" y="1384.3999999999999"/>
      <point x="757.5999999999999" y="1384.3999999999999" type="curve" smooth="yes"/>
      <point x="854.6" y="1384.3999999999999" type="line" smooth="yes"/>
      <point x="1067.8197183098591" y="1384.3999999999999"/>
      <point x="1211.4598959024106" y="1189.6650948273355"/>
      <point x="1126.8" y="744.4000000000001" type="curve" smooth="yes"/>
      <point x="1035.6" y="268.20000000000005"/>
      <point x="770.8" y="15.599999999999994"/>
    </contour>
  </outline>
</glyph>
<glyph name="E" format="2">
  <advance width="1148.3999999999999"/>
  <unicode hex="0045"/>
  <anchor x="876.4" y="1468.0" name="center"/>
  <outline>
    <contour>
      <point x="464.59999999999997" y="722.4" type="line"/>
      <point x="459.40000000000003" y="708.0" type="line"/>
      <point x="755.0" y="708.0" type="line" smooth="yes"/>
      <point x="871.8000000000001" y="708.0"/>
      <point x="930.4" y="658.8"/>
      <point x="972.3999999999999" y="535.6" type="curve" smooth="yes"/>
      <point x="976.0" y="527.2"/>
      <point x="979.1999999999999" y="525.1999999999999"/>
      <point x="983.6" y="526.8" type="curve" smooth="yes"/>
      <point x="988.4" y="528.4"/>
      <point x="987.5999999999999" y="532.4000000000001"/>
      <point x="986.5999999999999" y="547.6" type="curve" smooth="yes"/>
      <point x="950.1999999999999" y="900.4" type="line" smooth="yes"/>
      <point x="948.5999999999999" y="912.0"/>
      <point x="945.0" y="915.6"/>
      <point x="940.1999999999999" y="915.6" type="curve" smooth="yes"/>
      <point x="935.4" y="915.6"/>
      <point x="932.6" y="910.8000000000001"/>
      <point x="931.8" y="904.4" type="curve" smooth="yes"/>
      <point x="917.4" y="766.0"/>
      <point x="842.2" y="722.4"/>
      <point x="758.2" y="722.4" type="curve" smooth="yes"/>
    </contour>
    <contour>
      <point x="705.0" y="0.0" type="line" smooth="yes"/>
      <point x="740.6" y="0.0"/>
      <point x="762.4" y="-20.0"/>
      <point x="794.4" y="-20.0" type="curve" smooth="yes"/>
      <point x="920.0" y="-20.0"/>
      <point x="1037.2" y="130.8"/>
      <point x="1054.2" y="359.6" type="curve" smooth="yes"/>
      <point x="1055.2" y="367.59999999999997"/>
      <point x="1054.0" y="372.79999999999995"/>
      <point x="1049.6" y="372.79999999999995" type="curve" smooth="yes"/>
      <point x="1046.4" y="372.79999999999995"/>
      <point x="1044.0" y="370.0"/>
      <point x="1039.0" y="361.6" type="curve" smooth="yes"/>
      <point x="901.8" y="112.80000000000001"/>
      <point x="779.4" y="14.400000000000006"/>
      <point x="629.0" y="14.400000000000006" type="curve" smooth="yes"/>
      <point x="473.0" y="14.400000000000006" type="line" smooth="yes"/>
      <point x="354.2" y="14.400000000000006"/>
      <point x="336.00000000000006" y="34.39999999999999"/>
      <point x="349.6" y="91.60000000000001" type="curve" smooth="yes"/>
      <point x="408.0" y="320.79999999999995"/>
      <point x="617.1999999999999" y="1101.2"/>
      <point x="701.2" y="1385.6000000000001" type="curve"/>
      <point x="985.1999999999999" y="1385.6000000000001" type="line" smooth="yes"/>
      <point x="1109.2" y="1385.6000000000001"/>
      <point x="1162.6" y="1336.4"/>
      <point x="1226.2" y="1080.3999999999999" type="curve" smooth="yes"/>
      <point x="1229.6" y="1069.6000000000001"/>
      <point x="1233.0" y="1066.0"/>
      <point x="1238.2" y="1066.0" type="curve" smooth="yes"/>
      <point x="1243.8" y="1066.0"/>
      <point x="1244.2" y="1072.2"/>
      <point x="1243.4" y="1084.8" type="curve" smooth="yes"/>
      <point x="1237.1999999999998" y="1412.0" type="line" smooth="yes"/>
      <point x="1237.0" y="1425.2"/>
      <point x="1232.2" y="1430.0"/>
      <point x="1224.2" y="1430.0" type="curve" smooth="yes"/>
      <point x="1206.0" y="1430.0"/>
      <point x="1177.8" y="1400.0"/>
      <point x="1107.6000000000001" y="1400.0" type="curve" smooth="yes"/>
      <point x="353.2" y="1400.0" type="line" smooth="yes"/>
      <point x="347.2" y="1400.0"/>
      <point x="342.8" y="1397.6000000000001"/>
      <point x="342.8" y="1393.2" type="curve" smooth="yes"/>
      <point x="342.8" y="1388.8"/>
      <point x="344.59999999999997" y="1386.0"/>
      <point x="355.8" y="1384.4" type="curve" smooth="yes"/>
      <point x="459.8" y="1370.8" type="line" smooth="yes"/>
      <point x="481.4" y="1368.0"/>
      <point x="491.6" y="1356.3999999999999"/>
      <point x="486.40000000000003" y="1330.0" type="curve" smooth="yes"/>
      <point x="427.79999999999995" y="1097.6000000000001"/>
      <point x="212.8" y="315.2"/>
      <point x="141.60000000000002" y="73.60000000000001" type="curve" smooth="yes"/>
      <point x="132.4" y="45.19999999999999"/>
      <point x="120.4" y="29.200000000000003"/>
      <point x="95.2" y="26.799999999999997" type="curve" smooth="yes"/>
      <point x="-5.400000000000006" y="15.200000000000003" type="line" smooth="yes"/>
      <point x="-13.8" y="14.799999999999997"/>
      <point x="-17.799999999999997" y="10.799999999999997"/>
      <point x="-17.799999999999997" y="6.399999999999999" type="curve" smooth="yes"/>
      <point x="-17.8" y="2.0"/>
      <point x="-13.800000000000004" y="0.0"/>
      <point x="-7.000000000000007" y="0.0" type="curve" smooth="yes"/>
    </contour>
  </outline>
</glyph>
<glyph name="F" format="2">
  <advance width="1079.0"/>
  <unicode hex="0046"/>
  <outline>
    <contour>
      <point x="342.79999999999995" y="1393.2" type="curve" smooth="yes"/>
      <point x="342.8" y="1388.8000000000002"/>
      <point x="344.59999999999997" y="1386.0"/>
      <point x="355.8" y="1384.3999999999999" type="curve" smooth="yes"/>
      <point x="459.8" y="1370.8000000000002" type="line" smooth="yes"/>
      <point x="481.0" y="1368.0"/>
      <point x="492.00000000000006" y="1356.8"/>
      <point x="486.4" y="1330.0" type="curve" smooth="yes"/>
      <point x="426.99999999999994" y="1094.4"/>
      <point x="212.8" y="315.2"/>
      <point x="141.6" y="73.6" type="curve" smooth="yes"/>
      <point x="132.4" y="45.2"/>
      <point x="120.39999999999999" y="29.200000000000003"/>
      <point x="95.19999999999999" y="26.799999999999997" type="curve" smooth="yes"/>
      <point x="-5.399999999999999" y="15.200000000000003" type="line" smooth="yes"/>
      <point x="-13.800000000000004" y="14.799999999999997"/>
      <point x="-17.799999999999997" y="10.799999999999997"/>
      <point x="-17.8" y="6.399999999999999" type="curve" smooth="yes"/>
      <point x="-17.8" y="2.0"/>
      <point x="-13.8" y="0.0"/>
      <point x="-6.999999999999993" y="0.0" type="curve" smooth="yes"/>
      <point x="527.0" y="0.0" type="line" smooth="yes"/>
      <point x="534.2" y="0.0"/>
      <point x="537.0" y="2.8000000000000007"/>
      <point x="537.0" y="7.600000000000001" type="curve" smooth="yes"/>
      <point x="537.0" y="12.181818181818173"/>
      <point x="531.3997683135675" y="14.833824027631152"/>
      <point x="525.0" y="15.200000000000003" type="curve" smooth="yes"/>
      <point x="370.40000000000003" y="27.60000000000001" type="line" smooth="yes"/>
      <point x="341.605167372945" y="29.67840017008251"/>
      <point x="338.945933986218" y="52.23780195865393"/>
      <point x="345.6" y="76.40000000000002" type="curve" smooth="yes"/>
      <point x="404.4" y="308.8"/>
      <point x="616.8" y="1097.6"/>
      <point x="701.6" y="1385.6000000000001" type="curve"/>
      <point x="954.8" y="1385.6000000000001" type="line" smooth="yes"/>
      <point x="1084.0" y="1385.6000000000001"/>
      <point x="1133.4" y="1328.8"/>
      <point x="1184.2" y="1150.0" type="curve" smooth="yes"/>
      <point x="1206.8000000000002" y="1071.2" type="line" smooth="yes"/>
      <point x="1209.6" y="1061.6"/>
      <point x="1212.3999999999999" y="1058.0"/>
      <point x="1216.3999999999999" y="1058.0" type="curve" smooth="yes"/>
      <point x="1222.0" y="1058.0"/>
      <point x="1222.4" y="1064.4"/>
      <point x="1221.6000000000001" y="1076.8000000000002" type="curve" smooth="yes"/>
      <point x="1216.0" y="1412.0" type="line" smooth="yes"/>
      <point x="1215.8" y="1425.2"/>
      <point x="1211.0" y="1430.0"/>
      <point x="1203.0" y="1430.0" type="curve" smooth="yes"/>
      <point x="1184.8" y="1430.0"/>
      <point x="1156.6" y="1400.0"/>
      <point x="1086.3999999999999" y="1400.0" type="curve" smooth="yes"/>
      <point x="353.2" y="1400.0" type="line" smooth="yes"/>
      <point x="347.20000000000005" y="1400.0"/>
      <point x="342.8" y="1397.6"/>
    </contour>
    <contour>
      <point x="456.6" y="699.2" type="line"/>
      <point x="450.79999999999995" y="684.8000000000001" type="line"/>
      <point x="722.4" y="684.8000000000001" type="line" smooth="yes"/>
      <point x="842.4" y="684.8000000000001"/>
      <point x="894.2" y="630.0"/>
      <point x="948.8000000000001" y="504.40000000000003" type="curve" smooth="yes"/>
      <point x="952.4" y="496.0"/>
      <point x="955.0" y="494.0"/>
      <point x="959.9999999999999" y="495.59999999999997" type="curve" smooth="yes"/>
      <point x="964.8" y="497.2"/>
      <point x="964.4" y="501.2"/>
      <point x="962.4" y="516.4" type="curve" smooth="yes"/>
      <point x="917.6" y="885.2" type="line" smooth="yes"/>
      <point x="916.5999999999999" y="896.8"/>
      <point x="913.0" y="900.4"/>
      <point x="908.2" y="900.4" type="curve" smooth="yes"/>
      <point x="903.4000000000001" y="900.4"/>
      <point x="900.0" y="895.6"/>
      <point x="899.1999999999999" y="889.2" type="curve" smooth="yes"/>
      <point x="874.0" y="748.4"/>
      <point x="813.4000000000001" y="699.2"/>
      <point x="726.1999999999999" y="699.2" type="curve" smooth="yes"/>
    </contour>
  </outline>
</glyph>
<glyph name="G" format="2">
  <advance width="1295.1999999999998"/>
  <unicode hex="0047"/>
  <anchor x="980.2" y="1566.0" name="center"/>
  <outline>
    <contour>
      <point x="930.4" y="1426.4" type="curve" smooth="yes"/>
      <point x="538.0" y="1426.4"/>
      <point x="195.8" y="1046.0"/>
      <point x="128.8" y="615.4000000000001" type="curve" smooth="yes"/>
      <point x="63.6" y="202.0"/>
      <point x="257.6" y="-20.0"/>
      <point x="561.4" y="-20.0" type="curve" smooth="yes"/>
      <point x="753.4" y="-20.0"/>
      <point x="858.4" y="113.0"/>
      <point x="876.4" y="113.0" type="curve" smooth="yes"/>
      <point x="885.8" y="113.0"/>
      <point x="1006.2" y="-18.8"/>
      <point x="1014.6" y="-18.8" type="curve" smooth="yes"/>
      <point x="1021.8" y="-18.8"/>
      <point x="1024.6000000000001" y="-15.6"/>
      <point x="1028.8" y="0.0" type="curve" smooth="yes"/>
      <point x="1185.1999999999998" y="542.0" type="line" smooth="yes"/>
      <point x="1192.2" y="566.4"/>
      <point x="1204.6000000000001" y="580.0"/>
      <point x="1224.3999999999999" y="584.0" type="curve" smooth="yes"/>
      <point x="1308.0" y="601.6" type="line" smooth="yes"/>
      <point x="1318.0" y="603.6"/>
      <point x="1320.3999999999999" y="606.4000000000001"/>
      <point x="1321.0" y="610.4" type="curve" smooth="yes"/>
      <point x="1321.0" y="613.2"/>
      <point x="1318.6" y="615.5999999999999"/>
      <point x="1312.6" y="615.5999999999999" type="curve" smooth="yes"/>
      <point x="858.5999999999999" y="615.5999999999999" type="line" smooth="yes"/>
      <point x="852.6" y="615.5999999999999"/>
      <point x="848.1999999999999" y="613.1999999999999"/>
      <point x="848.2" y="608.8000000000001" type="curve" smooth="yes"/>
      <point x="847.6" y="604.4"/>
      <point x="849.6" y="601.6"/>
      <point x="861.1999999999999" y="600.0" type="curve" smooth="yes"/>
      <point x="976.0" y="586.4" type="line" smooth="yes"/>
      <point x="1002.8000000000001" y="583.4"/>
      <point x="1008.1999999999999" y="565.2"/>
      <point x="1000.4" y="537.5999999999999" type="curve" smooth="yes"/>
      <point x="912.4000000000001" y="236.8" type="line" smooth="yes"/>
      <point x="871.8854931136312" y="97.51596870053008"/>
      <point x="724.8" y="2.4000000000000057"/>
      <point x="581.2" y="2.4000000000000057" type="curve" smooth="yes"/>
      <point x="384.8" y="2.4000000000000057"/>
      <point x="277.61652120533034" y="169.84575473435666"/>
      <point x="347.40000000000003" y="619.6" type="curve" smooth="yes"/>
      <point x="413.5548001156388" y="1041.7928729247703"/>
      <point x="665.8000000000001" y="1401.2"/>
      <point x="966.8" y="1401.2" type="curve" smooth="yes"/>
      <point x="1122.4" y="1401.2"/>
      <point x="1225.1574571216547" y="1315.1740833951733"/>
      <point x="1287.6000000000001" y="1109.2" type="curve" smooth="yes"/>
      <point x="1314.6" y="1019.1999999999999" type="line" smooth="yes"/>
      <point x="1317.4" y="1009.1999999999999"/>
      <point x="1320.4" y="1006.4000000000001"/>
      <point x="1324.0" y="1006.4" type="curve" smooth="yes"/>
      <point x="1329.2" y="1006.4"/>
      <point x="1330.3999999999999" y="1009.3999999999999"/>
      <point x="1330.8" y="1019.4000000000001" type="curve" smooth="yes"/>
      <point x="1360.6" y="1395.4" type="line" smooth="yes"/>
      <point x="1361.0" y="1405.4"/>
      <point x="1358.4" y="1409.6"/>
      <point x="1352.8" y="1409.6" type="curve" smooth="yes"/>
      <point x="1341.4939890710382" y="1409.6"/>
      <point x="1250.0" y="1286.0"/>
      <point x="1235.3999999999999" y="1286.0" type="curve" smooth="yes"/>
      <point x="1215.3999999999999" y="1286.0"/>
      <point x="1154.1105413105413" y="1426.4"/>
    </contour>
  </outline>
</glyph>
<glyph name="H" format="2">
  <advance width="1410.2"/>
  <unicode hex="0048"/>
  <anchor x="989.1999999999999" y="1499.0" name="center"/>
  <outline>
    <contour>
      <point x="344.8" y="72.40000000000002" type="curve" smooth="yes"/>
      <point x="402.40000000000003" y="300.0"/>
      <point x="616.5999999999999" y="1094.3999999999999"/>
      <point x="684.2" y="1326.4" type="curve" smooth="yes"/>
      <point x="693.6" y="1355.6000000000001"/>
      <point x="705.4000000000001" y="1366.0"/>
      <point x="723.0" y="1368.3999999999999" type="curve" smooth="yes"/>
      <point x="832.6" y="1386.0" type="line" smooth="yes"/>
      <point x="843.2" y="1387.6"/>
      <point x="845.6" y="1390.8"/>
      <point x="845.6" y="1394.8" type="curve" smooth="yes"/>
      <point x="845.6" y="1397.6"/>
      <point x="843.1999999999999" y="1400.0"/>
      <point x="837.2" y="1400.0" type="curve" smooth="yes"/>
      <point x="353.2" y="1400.0" type="line" smooth="yes"/>
      <point x="347.20000000000005" y="1400.0"/>
      <point x="342.79999999999995" y="1397.6"/>
      <point x="342.79999999999995" y="1393.2" type="curve" smooth="yes"/>
      <point x="342.8" y="1388.8"/>
      <point x="344.2" y="1386.0"/>
      <point x="355.79999999999995" y="1384.4" type="curve" smooth="yes"/>
      <point x="459.8" y="1370.8" type="line" smooth="yes"/>
      <point x="480.6" y="1368.0"/>
      <point x="491.20000000000005" y="1356.3999999999999"/>
      <point x="487.19999999999993" y="1332.8" type="curve" smooth="yes"/>
      <point x="428.19999999999993" y="1099.6000000000001"/>
      <point x="212.0" y="312.0"/>
      <point x="141.6" y="73.60000000000001" type="curve" smooth="yes"/>
      <point x="132.0" y="43.60000000000002"/>
      <point x="119.20000000000002" y="29.19999999999999"/>
      <point x="95.19999999999999" y="26.799999999999997" type="curve" smooth="yes"/>
      <point x="-5.399999999999999" y="15.200000000000003" type="line" smooth="yes"/>
      <point x="-12.600000000000001" y="14.800000000000011"/>
      <point x="-17.8" y="12.0"/>
      <point x="-17.8" y="6.399999999999999" type="curve" smooth="yes"/>
      <point x="-17.8" y="3.1999999999999993"/>
      <point x="-13.799999999999997" y="0.0"/>
      <point x="-6.999999999999993" y="0.0" type="curve" smooth="yes"/>
      <point x="479.0" y="0.0" type="line" smooth="yes"/>
      <point x="485.80000000000007" y="0.0"/>
      <point x="489.00000000000006" y="2.400000000000002"/>
      <point x="489.00000000000006" y="7.200000000000003" type="curve" smooth="yes"/>
      <point x="489.0" y="11.600000000000009"/>
      <point x="484.6" y="14.0"/>
      <point x="477.0" y="14.799999999999997" type="curve" smooth="yes"/>
      <point x="369.2" y="26.0" type="line" smooth="yes"/>
      <point x="346.0" y="28.799999999999997"/>
      <point x="339.0" y="49.20000000000002"/>
    </contour>
    <contour>
      <point x="425.4" y="671.6" type="line"/>
      <point x="422.0" y="657.1999999999999" type="line"/>
      <point x="1130.0" y="657.1999999999999" type="line"/>
      <point x="1134.6000000000001" y="671.6" type="line"/>
    </contour>
    <contour>
      <point x="1090.0" y="72.39999999999999" type="curve" smooth="yes"/>
      <point x="1147.6000000000001" y="300.0"/>
      <point x="1361.8" y="1094.4"/>
      <point x="1429.4" y="1326.3999999999999" type="curve" smooth="yes"/>
      <point x="1438.8" y="1355.6"/>
      <point x="1450.6000000000001" y="1366.0"/>
      <point x="1468.2" y="1368.4" type="curve" smooth="yes"/>
      <point x="1577.8000000000002" y="1386.0" type="line" smooth="yes"/>
      <point x="1588.4" y="1387.6"/>
      <point x="1590.8" y="1390.8"/>
      <point x="1590.8" y="1394.8000000000002" type="curve" smooth="yes"/>
      <point x="1590.8" y="1397.6000000000001"/>
      <point x="1588.4" y="1400.0"/>
      <point x="1582.3999999999999" y="1400.0" type="curve" smooth="yes"/>
      <point x="1098.3999999999999" y="1400.0" type="line" smooth="yes"/>
      <point x="1092.3999999999999" y="1400.0"/>
      <point x="1088.0" y="1397.6000000000001"/>
      <point x="1088.0" y="1393.2" type="curve" smooth="yes"/>
      <point x="1088.0" y="1388.8"/>
      <point x="1089.3999999999999" y="1386.0"/>
      <point x="1101.0" y="1384.3999999999999" type="curve" smooth="yes"/>
      <point x="1205.0" y="1370.8000000000002" type="line" smooth="yes"/>
      <point x="1225.8" y="1368.0"/>
      <point x="1236.3999999999999" y="1356.4"/>
      <point x="1232.3999999999999" y="1332.8" type="curve" smooth="yes"/>
      <point x="1173.3999999999999" y="1099.6"/>
      <point x="957.2" y="312.0"/>
      <point x="886.8000000000001" y="73.59999999999998" type="curve" smooth="yes"/>
      <point x="877.1999999999999" y="43.599999999999994"/>
      <point x="864.4" y="29.200000000000003"/>
      <point x="840.4" y="26.80000000000001" type="curve" smooth="yes"/>
      <point x="739.8" y="15.200000000000003" type="line" smooth="yes"/>
      <point x="732.5999999999999" y="14.799999999999997"/>
      <point x="727.4" y="12.0"/>
      <point x="727.4" y="6.399999999999999" type="curve" smooth="yes"/>
      <point x="727.4" y="3.1999999999999993"/>
      <point x="731.4000000000001" y="0.0"/>
      <point x="738.1999999999999" y="0.0" type="curve" smooth="yes"/>
      <point x="1224.2" y="0.0" type="line" smooth="yes"/>
      <point x="1231.0" y="0.0"/>
      <point x="1234.2" y="2.3999999999999986"/>
      <point x="1234.2" y="7.199999999999996" type="curve" smooth="yes"/>
      <point x="1234.2" y="11.599999999999994"/>
      <point x="1229.8" y="14.0"/>
      <point x="1222.2" y="14.799999999999997" type="curve" smooth="yes"/>
      <point x="1114.4" y="26.0" type="line" smooth="yes"/>
      <point x="1091.2" y="28.799999999999997"/>
      <point x="1084.2" y="49.2"/>
    </contour>
  </outline>
</glyph>
<glyph name="I" format="2">
  <advance width="670.4"/>
  <unicode hex="0049"/>
  <anchor x="640.2" y="1468.0" name="center"/>
  <outline>
    <contour>
      <point x="345.8" y="72.40000000000002" type="curve" smooth="yes"/>
      <point x="403.40000000000003" y="300.0"/>
      <point x="616.4000000000001" y="1094.3999999999999"/>
      <point x="684.0" y="1326.4" type="curve" smooth="yes"/>
      <point x="693.4" y="1355.6000000000001"/>
      <point x="705.2" y="1366.0"/>
      <point x="722.8000000000001" y="1368.3999999999999" type="curve" smooth="yes"/>
      <point x="832.4" y="1386.0" type="line" smooth="yes"/>
      <point x="843.0" y="1387.6000000000001"/>
      <point x="845.4" y="1390.8000000000002"/>
      <point x="845.4" y="1394.8000000000002" type="curve" smooth="yes"/>
      <point x="845.4" y="1397.6"/>
      <point x="843.0" y="1400.0"/>
      <point x="837.0" y="1400.0" type="curve" smooth="yes"/>
      <point x="353.0" y="1400.0" type="line" smooth="yes"/>
      <point x="347.0" y="1400.0"/>
      <point x="342.59999999999997" y="1397.6"/>
      <point x="342.6" y="1393.2" type="curve" smooth="yes"/>
      <point x="342.6" y="1388.8"/>
      <point x="344.0" y="1386.0"/>
      <point x="355.6" y="1384.4" type="curve" smooth="yes"/>
      <point x="459.6" y="1370.8" type="line" smooth="yes"/>
      <point x="480.40000000000003" y="1368.0"/>
      <point x="491.0" y="1356.3999999999999"/>
      <point x="487.00000000000006" y="1332.8" type="curve" smooth="yes"/>
      <point x="428.00000000000006" y="1099.6000000000001"/>
      <point x="213.0" y="312.0"/>
      <point x="142.6" y="73.60000000000001" type="curve" smooth="yes"/>
      <point x="133.0" y="43.60000000000002"/>
      <point x="120.19999999999999" y="29.19999999999999"/>
      <point x="96.19999999999999" y="26.799999999999997" type="curve" smooth="yes"/>
      <point x="-4.400000000000006" y="15.200000000000003" type="line" smooth="yes"/>
      <point x="-11.600000000000001" y="14.800000000000011"/>
      <point x="-16.8" y="12.0"/>
      <point x="-16.8" y="6.399999999999999" type="curve" smooth="yes"/>
      <point x="-16.8" y="3.1999999999999993"/>
      <point x="-12.8" y="0.0"/>
      <point x="-6.0" y="0.0" type="curve" smooth="yes"/>
      <point x="480.0" y="0.0" type="line" smooth="yes"/>
      <point x="486.8" y="0.0"/>
      <point x="490.0" y="2.400000000000002"/>
      <point x="490.0" y="7.200000000000003" type="curve" smooth="yes"/>
      <point x="490.00000000000006" y="11.600000000000009"/>
      <point x="485.6" y="14.0"/>
      <point x="478.0" y="14.799999999999997" type="curve" smooth="yes"/>
      <point x="370.2" y="26.0" type="line" smooth="yes"/>
      <point x="347.00000000000006" y="28.799999999999997"/>
      <point x="340.00000000000006" y="49.20000000000002"/>
    </contour>
  </outline>
</glyph>
<glyph name="J" format="2">
  <advance width="646.2"/>
  <unicode hex="004A"/>
  <anchor x="638.4" y="1468.0" name="center"/>
  <outline>
    <contour>
      <point x="683.4" y="1330.6000000000001" type="curve" smooth="yes"/>
      <point x="690.1999999999999" y="1356.0"/>
      <point x="700.1999999999999" y="1364.8"/>
      <point x="725.2" y="1369.0" type="curve" smooth="yes"/>
      <point x="830.0" y="1386.0" type="line" smooth="yes"/>
      <point x="839.4" y="1387.0"/>
      <point x="843.0" y="1390.8"/>
      <point x="843.0" y="1394.1999999999998" type="curve" smooth="yes"/>
      <point x="843.0" y="1398.2"/>
      <point x="840.6" y="1400.0"/>
      <point x="834.6" y="1400.0" type="curve" smooth="yes"/>
      <point x="351.79999999999995" y="1400.0" type="line" smooth="yes"/>
      <point x="345.20000000000005" y="1400.0"/>
      <point x="340.2" y="1397.6"/>
      <point x="340.2" y="1393.2" type="curve" smooth="yes"/>
      <point x="339.59999999999997" y="1387.6000000000001"/>
      <point x="344.0" y="1385.3999999999999"/>
      <point x="354.4" y="1384.4" type="curve" smooth="yes"/>
      <point x="451.2" y="1372.0" type="line" smooth="yes"/>
      <point x="482.0" y="1368.1999999999998"/>
      <point x="490.8" y="1354.3999999999999"/>
      <point x="482.0" y="1321.0" type="curve" smooth="yes"/>
      <point x="467.8029297822212" y="1261.0105472159964"/>
      <point x="179.1843646188715" y="214.34006437234086"/>
      <point x="141.4" y="86.39999999999999" type="curve" smooth="yes"/>
      <point x="113.75421792264343" y="-13.4662609978228"/>
      <point x="206.6" y="-76.35495495495496"/>
      <point x="206.00000000000003" y="-131.6" type="curve" smooth="yes"/>
      <point x="203.0" y="-231.00000000000003"/>
      <point x="172.8" y="-260.8"/>
      <point x="135.6" y="-260.8" type="curve" smooth="yes"/>
      <point x="73.92358803986711" y="-260.8"/>
      <point x="17.800000000000004" y="-183.4"/>
      <point x="-58.8" y="-183.4" type="curve" smooth="yes"/>
      <point x="-103.8" y="-183.4"/>
      <point x="-132.60000000000002" y="-211.4"/>
      <point x="-133.20000000000002" y="-252.4" type="curve" smooth="yes"/>
      <point x="-133.8" y="-298.0"/>
      <point x="-94.2" y="-332.4"/>
      <point x="-18.399999999999995" y="-332.4" type="curve" smooth="yes"/>
      <point x="134.4" y="-332.4"/>
      <point x="268.40000000000003" y="-241.20000000000002"/>
      <point x="319.00000000000006" y="-15.399999999999999" type="curve" smooth="yes"/>
      <point x="332.19818352455263" y="42.191371741624835"/>
      <point x="665.0040360297953" y="1267.811300883427"/>
    </contour>
  </outline>
</glyph>
<glyph name="K" format="2">
  <advance width="1276.8"/>
  <unicode hex="004B"/>
  <anchor x="623.8" y="1487.0" name="center"/>
  <outline>
    <contour>
      <point x="344.8" y="72.40000000000002" type="curve" smooth="yes"/>
      <point x="402.40000000000003" y="300.0"/>
      <point x="617.0" y="1094.4"/>
      <point x="684.6" y="1326.3999999999999" type="curve" smooth="yes"/>
      <point x="692.0" y="1352.4"/>
      <point x="701.8000000000001" y="1360.4"/>
      <point x="721.0" y="1363.6" type="curve" smooth="yes"/>
      <point x="838.2" y="1384.8" type="line" smooth="yes"/>
      <point x="848.8000000000001" y="1386.8"/>
      <point x="850.8000000000001" y="1389.6000000000001"/>
      <point x="850.8000000000001" y="1393.6000000000001" type="curve" smooth="yes"/>
      <point x="850.8000000000001" y="1397.2"/>
      <point x="848.0" y="1400.0"/>
      <point x="842.4000000000001" y="1400.0" type="curve" smooth="yes"/>
      <point x="353.2" y="1400.0" type="line" smooth="yes"/>
      <point x="347.2" y="1400.0"/>
      <point x="342.79999999999995" y="1397.6000000000001"/>
      <point x="342.79999999999995" y="1393.2" type="curve" smooth="yes"/>
      <point x="342.79999999999995" y="1388.4"/>
      <point x="344.59999999999997" y="1386.0"/>
      <point x="355.8" y="1384.4" type="curve" smooth="yes"/>
      <point x="459.8" y="1370.8000000000002" type="line" smooth="yes"/>
      <point x="481.0" y="1368.0"/>
      <point x="491.59999999999997" y="1356.4"/>
      <point x="486.80000000000007" y="1331.6" type="curve" smooth="yes"/>
      <point x="427.79999999999995" y="1098.3999999999999"/>
      <point x="212.0" y="311.99999999999994"/>
      <point x="141.6" y="73.60000000000002" type="curve" smooth="yes"/>
      <point x="132.4" y="45.20000000000002"/>
      <point x="120.4" y="29.19999999999999"/>
      <point x="95.2" y="26.799999999999997" type="curve" smooth="yes"/>
      <point x="-5.399999999999999" y="15.200000000000003" type="line" smooth="yes"/>
      <point x="-12.600000000000001" y="14.799999999999997"/>
      <point x="-17.8" y="12.0"/>
      <point x="-17.8" y="6.399999999999999" type="curve" smooth="yes"/>
      <point x="-17.8" y="3.1999999999999993"/>
      <point x="-13.8" y="0.0"/>
      <point x="-6.999999999999993" y="0.0" type="curve" smooth="yes"/>
      <point x="479.0" y="0.0" type="line" smooth="yes"/>
      <point x="485.8" y="0.0"/>
      <point x="489.00000000000006" y="2.400000000000002"/>
      <point x="489.00000000000006" y="7.200000000000003" type="curve" smooth="yes"/>
      <point x="489.0" y="12.0"/>
      <point x="483.40000000000003" y="14.400000000000006"/>
      <point x="477.0" y="14.799999999999997" type="curve" smooth="yes"/>
      <point x="369.20000000000005" y="26.0" type="line" smooth="yes"/>
      <point x="346.0" y="28.799999999999997"/>
      <point x="339.0" y="49.2"/>
    </contour>
    <contour>
      <point x="669.0" y="742.6" type="line"/>
      <point x="843.6" y="142.0" type="line" smooth="yes"/>
      <point x="879.803946764929" y="17.543423587298285"/>
      <point x="922.2028985507246" y="-24.0"/>
      <point x="999.8" y="-24.0" type="curve" smooth="yes"/>
      <point x="1093.0685082872928" y="-24.0"/>
      <point x="1166.4784073210894" y="23.15681464217864"/>
      <point x="1207.4" y="106.8" type="curve" smooth="yes"/>
      <point x="1210.4" y="112.79999999999998"/>
      <point x="1210.2" y="116.80000000000001"/>
      <point x="1207.4" y="117.6" type="curve" smooth="yes"/>
      <point x="1204.6" y="118.4"/>
      <point x="1201.8" y="116.60000000000001"/>
      <point x="1198.6000000000001" y="111.0" type="curve" smooth="yes"/>
      <point x="1177.2" y="75.8"/>
      <point x="1156.6" y="61.19999999999999"/>
      <point x="1129.6" y="61.19999999999999" type="curve" smooth="yes"/>
      <point x="1088.4" y="61.19999999999999"/>
      <point x="1058.8" y="96.4"/>
      <point x="1026.6" y="195.6" type="curve" smooth="yes"/>
      <point x="809.1999999999999" y="898.4" type="line"/>
    </contour>
    <contour>
      <point x="389.79999999999995" y="420.79999999999995" type="line"/>
      <point x="1097.2" y="1198.4" type="line" smooth="yes"/>
      <point x="1173.0" y="1282.2"/>
      <point x="1223.4" y="1300.8"/>
      <point x="1288.8000000000002" y="1300.8" type="curve" smooth="yes"/>
      <point x="1326.6" y="1300.8"/>
      <point x="1352.8" y="1281.4"/>
      <point x="1396.1999999999998" y="1281.4" type="curve" smooth="yes"/>
      <point x="1464.1999999999998" y="1281.4"/>
      <point x="1500.0" y="1313.6000000000001"/>
      <point x="1500.6" y="1358.6000000000001" type="curve" smooth="yes"/>
      <point x="1501.2" y="1396.6000000000001"/>
      <point x="1470.0" y="1428.0"/>
      <point x="1411.8" y="1428.0" type="curve" smooth="yes"/>
      <point x="1316.6" y="1428.0"/>
      <point x="1237.6000000000001" y="1380.2"/>
      <point x="1138.1999999999998" y="1270.6000000000001" type="curve" smooth="yes"/>
      <point x="378.79999999999995" y="435.4" type="line"/>
    </contour>
  </outline>
</glyph>
<glyph name="L" format="2">
  <advance width="1000.8"/>
  <unicode hex="004C"/>
  <anchor x="883.0" y="1236.0" name="right"/>
  <outline>
    <contour>
      <point x="619.2" y="0.0" type="line" smooth="yes"/>
      <point x="659.6" y="0.0"/>
      <point x="681.6" y="-18.800000000000004"/>
      <point x="718.6" y="-18.800000000000004" type="curve" smooth="yes"/>
      <point x="831.2" y="-18.800000000000004"/>
      <point x="957.4000000000001" y="127.60000000000001"/>
      <point x="977.5999999999999" y="375.6" type="curve" smooth="yes"/>
      <point x="978.6" y="384.0"/>
      <point x="977.4" y="388.8"/>
      <point x="972.9999999999999" y="388.8" type="curve" smooth="yes"/>
      <point x="969.8" y="388.8"/>
      <point x="966.9999999999999" y="385.6"/>
      <point x="960.0000000000001" y="372.8" type="curve" smooth="yes"/>
      <point x="809.2" y="114.4"/>
      <point x="712.5999999999999" y="15.599999999999994"/>
      <point x="544.0" y="15.599999999999994" type="curve" smooth="yes"/>
      <point x="433.0" y="15.599999999999994" type="line" smooth="yes"/>
      <point x="356.6" y="15.599999999999994"/>
      <point x="336.8" y="35.39999999999999"/>
      <point x="350.20000000000005" y="91.60000000000002" type="curve" smooth="yes"/>
      <point x="408.20000000000005" y="318.4"/>
      <point x="616.8000000000001" y="1093.6"/>
      <point x="685.2" y="1326.4" type="curve" smooth="yes"/>
      <point x="692.6" y="1353.2"/>
      <point x="705.2" y="1366.0"/>
      <point x="723.6" y="1368.4" type="curve" smooth="yes"/>
      <point x="833.2" y="1386.0" type="line" smooth="yes"/>
      <point x="843.8000000000001" y="1387.6"/>
      <point x="846.2" y="1390.8"/>
      <point x="846.2" y="1394.8" type="curve" smooth="yes"/>
      <point x="846.2" y="1398.0"/>
      <point x="843.4000000000001" y="1400.0"/>
      <point x="837.8" y="1400.0" type="curve" smooth="yes"/>
      <point x="353.8" y="1400.0" type="line"/>
      <point x="347.40000000000003" y="1400.0"/>
      <point x="343.40000000000003" y="1397.6000000000001"/>
      <point x="343.40000000000003" y="1392.8" type="curve" smooth="yes"/>
      <point x="343.40000000000003" y="1388.8000000000002"/>
      <point x="345.6" y="1386.0"/>
      <point x="356.40000000000003" y="1384.4" type="curve" smooth="yes"/>
      <point x="460.40000000000003" y="1370.8000000000002" type="line" smooth="yes"/>
      <point x="482.0" y="1368.0"/>
      <point x="492.19999999999993" y="1356.4"/>
      <point x="486.99999999999994" y="1330.0" type="curve" smooth="yes"/>
      <point x="428.00000000000006" y="1096.0"/>
      <point x="212.60000000000002" y="312.8"/>
      <point x="142.20000000000002" y="73.60000000000001" type="curve" smooth="yes"/>
      <point x="133.0" y="45.2"/>
      <point x="121.0" y="29.200000000000003"/>
      <point x="95.79999999999998" y="26.799999999999997" type="curve" smooth="yes"/>
      <point x="-4.799999999999997" y="15.200000000000003" type="line" smooth="yes"/>
      <point x="-12.0" y="14.800000000000011"/>
      <point x="-17.2" y="12.0"/>
      <point x="-17.2" y="6.399999999999999" type="curve" smooth="yes"/>
      <point x="-17.2" y="2.0"/>
      <point x="-13.200000000000003" y="0.0"/>
      <point x="-6.399999999999999" y="0.0" type="curve"/>
    </contour>
  </outline>
</glyph>
<glyph name="M" format="2">
  <advance width="1546.2"/>
  <unicode hex="004D"/>
  <anchor x="610.5999999999999" y="1445.0" name="center"/>
  <outline>
    <contour>
      <point x="791.0" y="384.0" type="line"/>
      <point x="750.6" y="726.0"/>
      <point x="714.8000000000001" y="1093.2"/>
      <point x="687.2" y="1369.2" type="curve" smooth="yes"/>
      <point x="685.0" y="1396.3999999999999"/>
      <point x="669.8" y="1400.0"/>
      <point x="643.4" y="1400.0" type="curve" smooth="yes"/>
      <point x="367.0" y="1400.0" type="line" smooth="yes"/>
      <point x="361.0" y="1400.0"/>
      <point x="356.6" y="1397.6"/>
      <point x="356.59999999999997" y="1393.1999999999998" type="curve" smooth="yes"/>
      <point x="356.59999999999997" y="1388.8"/>
      <point x="358.0" y="1386.0"/>
      <point x="369.6" y="1384.3999999999999" type="curve" smooth="yes"/>
      <point x="473.59999999999997" y="1370.8" type="line" smooth="yes"/>
      <point x="499.20000000000005" y="1368.0"/>
      <point x="506.99999999999994" y="1354.0"/>
      <point x="498.8" y="1326.4" type="curve" smooth="yes"/>
      <point x="147.4" y="214.2" type="line" smooth="yes"/>
      <point x="105.6" y="80.0"/>
      <point x="38.60000000000001" y="32.59999999999998"/>
      <point x="-29.400000000000006" y="20.200000000000003" type="curve" smooth="yes"/>
      <point x="-67.19999999999999" y="15.200000000000003" type="line" smooth="yes"/>
      <point x="-74.8" y="14.0"/>
      <point x="-79.19999999999999" y="11.599999999999994"/>
      <point x="-79.19999999999999" y="6.399999999999999" type="curve" smooth="yes"/>
      <point x="-79.20000000000002" y="2.0"/>
      <point x="-75.2" y="0.0"/>
      <point x="-68.40000000000002" y="0.0" type="curve" smooth="yes"/>
      <point x="286.79999999999995" y="0.0" type="line" smooth="yes"/>
      <point x="292.8" y="0.0"/>
      <point x="296.0" y="2.3999999999999986"/>
      <point x="296.0" y="6.800000000000004" type="curve" smooth="yes"/>
      <point x="296.0" y="11.600000000000009"/>
      <point x="292.0" y="13.600000000000009"/>
      <point x="286.0" y="14.400000000000006" type="curve" smooth="yes"/>
      <point x="240.79999999999995" y="20.400000000000006" type="line" smooth="yes"/>
      <point x="157.2" y="35.0"/>
      <point x="124.4" y="86.60000000000001"/>
      <point x="162.39999999999998" y="209.0" type="curve" smooth="yes"/>
      <point x="513.4" y="1318.8000000000002" type="line"/>
      <point x="499.4" y="1310.8" type="line"/>
      <point x="543.2" y="944.0"/>
      <point x="592.4" y="470.8"/>
      <point x="621.4" y="162.8" type="curve" smooth="yes"/>
      <point x="622.6" y="148.8"/>
      <point x="624.6" y="134.8"/>
      <point x="632.6" y="134.8" type="curve" smooth="yes"/>
      <point x="641.0" y="134.8"/>
      <point x="647.0" y="144.39999999999998"/>
      <point x="655.8" y="159.59999999999997" type="curve" smooth="yes"/>
      <point x="1374.8" y="1322.4" type="line"/>
      <point x="1345.6" y="1291.6000000000001" type="line"/>
      <point x="1255.2" y="849.5999999999999"/>
      <point x="1158.8000000000002" y="456.8"/>
      <point x="1071.3999999999999" y="74.80000000000001" type="curve" smooth="yes"/>
      <point x="1064.1999999999998" y="45.199999999999974"/>
      <point x="1050.2" y="29.19999999999999"/>
      <point x="1025.0" y="26.799999999999997" type="curve" smooth="yes"/>
      <point x="924.4000000000001" y="15.200000000000003" type="line" smooth="yes"/>
      <point x="917.2" y="14.799999999999997"/>
      <point x="912.0" y="12.399999999999991"/>
      <point x="912.0" y="6.800000000000004" type="curve" smooth="yes"/>
      <point x="912.0" y="2.3999999999999986"/>
      <point x="916.0" y="0.0"/>
      <point x="922.8000000000001" y="0.0" type="curve" smooth="yes"/>
      <point x="1412.8" y="0.0" type="line" smooth="yes"/>
      <point x="1419.6" y="0.0"/>
      <point x="1422.8" y="2.400000000000002"/>
      <point x="1422.8" y="7.200000000000003" type="curve" smooth="yes"/>
      <point x="1422.8000000000002" y="11.600000000000009"/>
      <point x="1418.4" y="14.0"/>
      <point x="1410.8" y="14.799999999999997" type="curve" smooth="yes"/>
      <point x="1299.0" y="26.0" type="line" smooth="yes"/>
      <point x="1275.8000000000002" y="28.39999999999999"/>
      <point x="1270.0" y="49.20000000000002"/>
      <point x="1274.6000000000001" y="72.4" type="curve" smooth="yes"/>
      <point x="1319.0" y="304.80000000000007"/>
      <point x="1495.8" y="1076.4"/>
      <point x="1551.6" y="1326.3999999999999" type="curve" smooth="yes"/>
      <point x="1557.4" y="1352.8"/>
      <point x="1571.6000000000001" y="1365.2"/>
      <point x="1590.4" y="1368.3999999999999" type="curve" smooth="yes"/>
      <point x="1704.0" y="1386.0" type="line" smooth="yes"/>
      <point x="1714.6000000000001" y="1387.6000000000001"/>
      <point x="1717.0" y="1390.8"/>
      <point x="1717.0" y="1394.8" type="curve" smooth="yes"/>
      <point x="1717.0" y="1397.6"/>
      <point x="1714.6" y="1400.0"/>
      <point x="1708.6000000000001" y="1400.0" type="curve" smooth="yes"/>
      <point x="1455.4" y="1400.0" type="line" smooth="yes"/>
      <point x="1414.2" y="1400.0"/>
      <point x="1399.8" y="1394.8"/>
      <point x="1372.3999999999999" y="1350.8" type="curve" smooth="yes"/>
      <point x="743.4" y="330.4" type="line"/>
    </contour>
  </outline>
</glyph>
<glyph name="N" format="2">
  <advance width="1199.8"/>
  <unicode hex="004E"/>
  <anchor x="934.2" y="1497.0" name="center"/>
  <outline>
    <contour>
      <point x="168.2" y="201.2" type="line" smooth="yes"/>
      <point x="139.2" y="89.00000000000001"/>
      <point x="171.2" y="34.60000000000001"/>
      <point x="245.4" y="21.0" type="curve" smooth="yes"/>
      <point x="297.2" y="14.399999999999991" type="line" smooth="yes"/>
      <point x="303.2" y="13.599999999999994"/>
      <point x="307.2" y="11.600000000000001"/>
      <point x="307.2" y="6.800000000000004" type="curve" smooth="yes"/>
      <point x="307.2" y="2.400000000000002"/>
      <point x="304.0" y="0.0"/>
      <point x="298.0" y="0.0" type="curve" smooth="yes"/>
      <point x="-51.2" y="0.0" type="line" smooth="yes"/>
      <point x="-62.8" y="0.0"/>
      <point x="-68.0" y="0.7999999999999972"/>
      <point x="-68.0" y="6.399999999999999" type="curve" smooth="yes"/>
      <point x="-68.0" y="10.400000000000006"/>
      <point x="-64.8" y="14.0"/>
      <point x="-56.0" y="15.200000000000003" type="curve" smooth="yes"/>
      <point x="-17.0" y="20.200000000000003" type="line" smooth="yes"/>
      <point x="53.79999999999999" y="33.8"/>
      <point x="122.79999999999998" y="87.8"/>
      <point x="153.2" y="204.60000000000002" type="curve" smooth="yes"/>
      <point x="406.8" y="1133.6" type="line" smooth="yes"/>
      <point x="414.2" y="1160.4"/>
      <point x="408.0" y="1180.8000000000002"/>
      <point x="399.8" y="1202.8000000000002" type="curve" smooth="yes"/>
      <point x="330.0" y="1384.0" type="line" smooth="yes"/>
      <point x="327.4" y="1393.2"/>
      <point x="329.8" y="1400.0"/>
      <point x="340.20000000000005" y="1400.0" type="curve" smooth="yes"/>
      <point x="507.0" y="1400.0" type="line" smooth="yes"/>
      <point x="524.1999999999999" y="1400.0"/>
      <point x="535.0" y="1393.6"/>
      <point x="544.0" y="1365.2" type="curve" smooth="yes"/>
      <point x="730.0" y="837.4"/>
      <point x="824.8" y="572.4"/>
      <point x="948.2" y="212.0" type="curve"/>
      <point x="932.2" y="202.4" type="line"/>
      <point x="1197.2" y="1245.6" type="line" smooth="yes"/>
      <point x="1230.6000000000001" y="1374.8"/>
      <point x="1286.3999999999999" y="1429.2"/>
      <point x="1347.2" y="1429.2" type="curve" smooth="yes"/>
      <point x="1389.6" y="1429.2"/>
      <point x="1415.4" y="1403.6000000000001"/>
      <point x="1414.8" y="1368.8" type="curve" smooth="yes"/>
      <point x="1414.2" y="1324.0"/>
      <point x="1384.6" y="1290.0"/>
      <point x="1308.6" y="1244.0" type="curve" smooth="yes"/>
      <point x="1231.0" y="1196.8000000000002"/>
      <point x="1188.4" y="1144.4"/>
      <point x="1167.6" y="1058.8" type="curve" smooth="yes"/>
      <point x="956.5999999999999" y="234.40000000000003" type="line" smooth="yes"/>
      <point x="952.4000000000001" y="214.0"/>
      <point x="950.2" y="202.8"/>
      <point x="961.6000000000001" y="170.79999999999998" type="curve" smooth="yes"/>
      <point x="1012.1999999999999" y="19.60000000000001" type="line" smooth="yes"/>
      <point x="1015.6" y="6.399999999999999"/>
      <point x="1013.5999999999999" y="0.0"/>
      <point x="1002.0000000000001" y="0.0" type="curve" smooth="yes"/>
      <point x="811.6" y="0.0" type="line" smooth="yes"/>
      <point x="797.5999999999999" y="0.0"/>
      <point x="794.0" y="8.0"/>
      <point x="795.4" y="26.0" type="curve" smooth="yes"/>
      <point x="795.6" y="48.39999999999999"/>
      <point x="794.6" y="58.000000000000014"/>
      <point x="786.8000000000001" y="82.0" type="curve" smooth="yes"/>
      <point x="692.6" y="356.79999999999995"/>
      <point x="557.8" y="748.4"/>
      <point x="418.2" y="1146.3999999999999" type="curve"/>
      <point x="428.0" y="1154.0" type="line"/>
    </contour>
  </outline>
</glyph>
<glyph name="O" format="2">
  <advance width="1371.6"/>
  <unicode hex="004F"/>
  <anchor x="997.8" y="1546.0" name="center"/>
  <outline>
    <contour>
      <point x="952.6" y="1421.6000000000001" type="curve" smooth="yes"/>
      <point x="591.0" y="1421.6000000000001"/>
      <point x="276.8" y="1129.6"/>
      <point x="167.6" y="729.0" type="curve" smooth="yes"/>
      <point x="40.599999999999994" y="257.20000000000005"/>
      <point x="247.0" y="-20.0"/>
      <point x="564.8" y="-20.0" type="curve" smooth="yes"/>
      <point x="910.4" y="-20.0"/>
      <point x="1239.8" y="242.20000000000002"/>
      <point x="1347.8" y="684.4" type="curve" smooth="yes"/>
      <point x="1457.2" y="1132.1999999999998"/>
      <point x="1262.2" y="1421.6000000000001"/>
    </contour>
    <contour>
      <point x="571.4" y="-4.0" type="curve" smooth="yes"/>
      <point x="420.2" y="-4.0"/>
      <point x="324.20000000000005" y="102.6"/>
      <point x="325.2" y="328.59999999999997" type="curve" smooth="yes"/>
      <point x="325.6" y="423.2"/>
      <point x="344.0" y="547.2"/>
      <point x="385.2" y="713.2" type="curve" smooth="yes"/>
      <point x="500.40000000000003" y="1174.4"/>
      <point x="724.6" y="1407.2"/>
      <point x="947.6" y="1407.2" type="curve" smooth="yes"/>
      <point x="1084.6" y="1407.2"/>
      <point x="1190.6" y="1296.2"/>
      <point x="1188.4" y="1067.2" type="curve" smooth="yes"/>
      <point x="1188.4" y="972.4"/>
      <point x="1169.6000000000001" y="849.4000000000001"/>
      <point x="1128.6000000000001" y="692.6" type="curve" smooth="yes"/>
      <point x="989.0" y="175.2"/>
      <point x="777.8" y="-4.0"/>
    </contour>
  </outline>
</glyph>
<glyph name="P" format="2">
  <advance width="1186.3999999999999"/>
  <unicode hex="0050"/>
  <outline>
    <contour>
      <point x="1270.0" y="962.4" type="curve" smooth="yes"/>
      <point x="1304.4" y="1232.8000000000002"/>
      <point x="1123.8" y="1400.0"/>
      <point x="843.6" y="1400.0" type="curve" smooth="yes"/>
      <point x="358.6" y="1400.0" type="line" smooth="yes"/>
      <point x="348.4" y="1400.0"/>
      <point x="343.40000000000003" y="1398.8"/>
      <point x="343.40000000000003" y="1393.1999999999998" type="curve" smooth="yes"/>
      <point x="343.40000000000003" y="1389.4"/>
      <point x="344.8" y="1386.0"/>
      <point x="358.8" y="1384.3999999999999" type="curve" smooth="yes"/>
      <point x="455.0" y="1372.0" type="line" smooth="yes"/>
      <point x="484.20000000000005" y="1368.0"/>
      <point x="491.6" y="1352.2"/>
      <point x="485.6" y="1322.0" type="curve" smooth="yes"/>
      <point x="470.99999999999994" y="1249.4"/>
      <point x="155.0" y="114.00000000000003"/>
      <point x="142.20000000000002" y="73.60000000000001" type="curve" smooth="yes"/>
      <point x="131.20000000000002" y="42.80000000000001"/>
      <point x="120.4" y="29.799999999999997"/>
      <point x="89.19999999999999" y="26.19999999999999" type="curve" smooth="yes"/>
      <point x="-6.600000000000001" y="15.200000000000003" type="line" smooth="yes"/>
      <point x="-15.000000000000004" y="14.200000000000003"/>
      <point x="-17.799999999999997" y="10.800000000000011"/>
      <point x="-17.800000000000004" y="6.399999999999999" type="curve" smooth="yes"/>
      <point x="-17.799999999999997" y="2.0"/>
      <point x="-13.800000000000004" y="0.0"/>
      <point x="-7.0" y="0.0" type="curve" smooth="yes"/>
      <point x="499.40000000000003" y="0.0" type="line" smooth="yes"/>
      <point x="509.20000000000005" y="0.0"/>
      <point x="513.0" y="1.8000000000000007"/>
      <point x="513.0" y="7.600000000000001" type="curve" smooth="yes"/>
      <point x="513.0" y="12.0"/>
      <point x="508.8" y="14.200000000000003"/>
      <point x="500.4" y="15.200000000000003" type="curve" smooth="yes"/>
      <point x="371.0" y="27.0" type="line" smooth="yes"/>
      <point x="346.8" y="29.0"/>
      <point x="339.00000000000006" y="46.39999999999999"/>
      <point x="344.79999999999995" y="71.19999999999999" type="curve" smooth="yes"/>
      <point x="354.40000000000003" y="117.59999999999997"/>
      <point x="657.2" y="1235.3999999999999"/>
      <point x="683.4" y="1316.2" type="curve" smooth="yes"/>
      <point x="698.6" y="1364.2"/>
      <point x="740.6" y="1386.1999999999998"/>
      <point x="810.8" y="1386.1999999999998" type="curve" smooth="yes"/>
      <point x="1004.6000000000001" y="1386.1999999999998"/>
      <point x="1130.2" y="1268.4"/>
      <point x="1083.2" y="972.0" type="curve" smooth="yes"/>
      <point x="1033.0" y="662.1999999999999"/>
      <point x="878.4000000000001" y="520.5999999999999"/>
      <point x="650.0" y="520.5999999999999" type="curve" smooth="yes"/>
      <point x="574.0" y="520.5999999999999"/>
      <point x="517.6" y="532.0"/>
      <point x="434.0" y="573.0" type="curve"/>
      <point x="428.59999999999997" y="562.8000000000001" type="line"/>
      <point x="503.40000000000003" y="521.2"/>
      <point x="566.0" y="502.6"/>
      <point x="671.5999999999999" y="502.6" type="curve" smooth="yes"/>
      <point x="999.8000000000001" y="502.6"/>
      <point x="1234.0" y="682.2"/>
    </contour>
  </outline>
</glyph>
<glyph name="Q" format="2">
  <advance width="1374.6"/>
  <unicode hex="0051"/>
  <outline>
    <contour>
      <point x="646.8" y="352.0" type="curve" smooth="yes"/>
      <point x="528.4" y="-89.0"/>
      <point x="640.8" y="-311.2"/>
      <point x="887.6" y="-324.0" type="curve" smooth="yes"/>
      <point x="928.6" y="-327.59999999999997"/>
      <point x="953.6" y="-321.59999999999997"/>
      <point x="967.4" y="-302.59999999999997" type="curve" smooth="yes"/>
      <point x="1048.6000000000001" y="-194.0" type="line" smooth="yes"/>
      <point x="1053.0" y="-187.0"/>
      <point x="1054.2" y="-180.4"/>
      <point x="1050.2" y="-177.2" type="curve" smooth="yes"/>
      <point x="1038.6" y="-167.6"/>
      <point x="987.0" y="-214.2"/>
      <point x="851.1999999999999" y="-198.59999999999997" type="curve" smooth="yes"/>
      <point x="659.8000000000001" y="-177.4"/>
      <point x="553.4" y="-56.8"/>
      <point x="659.8000000000001" y="348.8" type="curve" smooth="yes"/>
      <point x="661.8000000000001" y="357.0"/>
      <point x="661.1999999999999" y="360.4"/>
      <point x="656.6" y="361.8" type="curve" smooth="yes"/>
      <point x="651.4" y="363.2"/>
      <point x="648.2" y="359.0"/>
    </contour>
    <contour>
      <point x="952.6" y="1421.6000000000001" type="curve" smooth="yes"/>
      <point x="591.0" y="1421.6000000000001"/>
      <point x="276.8" y="1129.6"/>
      <point x="167.6" y="729.0" type="curve" smooth="yes"/>
      <point x="40.6" y="257.2"/>
      <point x="247.0" y="-20.0"/>
      <point x="564.8" y="-20.0" type="curve" smooth="yes"/>
      <point x="910.4" y="-20.0"/>
      <point x="1239.8" y="242.2"/>
      <point x="1347.8" y="684.4" type="curve" smooth="yes"/>
      <point x="1457.1999999999998" y="1132.2"/>
      <point x="1262.2" y="1421.6000000000001"/>
    </contour>
    <contour>
      <point x="571.4" y="-4.0" type="curve" smooth="yes"/>
      <point x="420.2" y="-4.0"/>
      <point x="324.20000000000005" y="102.59999999999998"/>
      <point x="325.2" y="328.6" type="curve" smooth="yes"/>
      <point x="325.59999999999997" y="423.2"/>
      <point x="344.0" y="547.1999999999999"/>
      <point x="385.2" y="713.2" type="curve" smooth="yes"/>
      <point x="500.4" y="1174.4"/>
      <point x="724.6" y="1407.2"/>
      <point x="947.6" y="1407.2" type="curve" smooth="yes"/>
      <point x="1084.6000000000001" y="1407.2"/>
      <point x="1190.6" y="1296.2"/>
      <point x="1188.3999999999999" y="1067.1999999999998" type="curve" smooth="yes"/>
      <point x="1188.3999999999999" y="972.4"/>
      <point x="1169.6000000000001" y="849.4000000000001"/>
      <point x="1128.6" y="692.6" type="curve" smooth="yes"/>
      <point x="989.0" y="175.2"/>
      <point x="777.8000000000001" y="-4.0"/>
    </contour>
  </outline>
</glyph>
<glyph name="R" format="2">
  <advance width="1225.8000000000002"/>
  <unicode hex="0052"/>
  <anchor x="883.4" y="1485.0" name="center"/>
  <outline>
    <contour>
      <point x="430.6" y="621.5999999999999" type="line"/>
      <point x="481.4" y="590.4"/>
      <point x="548.6" y="564.0"/>
      <point x="655.4" y="564.0" type="curve" smooth="yes"/>
      <point x="992.5999999999999" y="564.0"/>
      <point x="1213.2" y="742.0"/>
      <point x="1252.2" y="977.8000000000001" type="curve" smooth="yes"/>
      <point x="1297.4" y="1241.4"/>
      <point x="1126.8" y="1400.0"/>
      <point x="843.6" y="1400.0" type="curve" smooth="yes"/>
      <point x="353.2" y="1400.0" type="line" smooth="yes"/>
      <point x="347.20000000000005" y="1400.0"/>
      <point x="342.8" y="1397.6"/>
      <point x="342.8" y="1393.2" type="curve" smooth="yes"/>
      <point x="342.79999999999995" y="1388.8"/>
      <point x="344.2" y="1386.0"/>
      <point x="355.8" y="1384.3999999999999" type="curve" smooth="yes"/>
      <point x="459.8" y="1370.8" type="line" smooth="yes"/>
      <point x="480.59999999999997" y="1368.0"/>
      <point x="491.59999999999997" y="1356.4"/>
      <point x="486.8" y="1331.6000000000001" type="curve" smooth="yes"/>
      <point x="426.59999999999997" y="1094.0"/>
      <point x="212.0" y="312.0"/>
      <point x="141.6" y="73.59999999999998" type="curve" smooth="yes"/>
      <point x="132.39999999999998" y="45.2"/>
      <point x="120.4" y="29.200000000000003"/>
      <point x="95.19999999999999" y="26.799999999999997" type="curve" smooth="yes"/>
      <point x="-5.399999999999999" y="15.200000000000003" type="line" smooth="yes"/>
      <point x="-12.600000000000001" y="14.799999999999997"/>
      <point x="-17.8" y="12.0"/>
      <point x="-17.8" y="6.399999999999999" type="curve" smooth="yes"/>
      <point x="-17.8" y="2.0"/>
      <point x="-13.800000000000004" y="0.0"/>
      <point x="-6.999999999999986" y="0.0" type="curve" smooth="yes"/>
      <point x="479.0" y="0.0" type="line" smooth="yes"/>
      <point x="485.8" y="0.0"/>
      <point x="489.0" y="2.400000000000002"/>
      <point x="489.0" y="7.199999999999996" type="curve" smooth="yes"/>
      <point x="489.0" y="11.600000000000009"/>
      <point x="484.6" y="14.0"/>
      <point x="477.0" y="14.799999999999997" type="curve" smooth="yes"/>
      <point x="369.20000000000005" y="26.0" type="line" smooth="yes"/>
      <point x="346.0" y="28.799999999999997"/>
      <point x="339.0" y="49.19999999999999"/>
      <point x="344.79999999999995" y="72.39999999999998" type="curve" smooth="yes"/>
      <point x="403.59999999999997" y="310.8"/>
      <point x="611.0" y="1071.6000000000001"/>
      <point x="681.0" y="1312.0" type="curve" smooth="yes"/>
      <point x="697.4" y="1366.0"/>
      <point x="742.4" y="1385.6"/>
      <point x="813.1999999999999" y="1385.6" type="curve" smooth="yes"/>
      <point x="1017.6" y="1385.6"/>
      <point x="1123.4" y="1260.6"/>
      <point x="1071.4" y="991.0" type="curve" smooth="yes"/>
      <point x="1022.6" y="736.2"/>
      <point x="875.8" y="582.0"/>
      <point x="635.4" y="582.0" type="curve" smooth="yes"/>
      <point x="564.6" y="582.0"/>
      <point x="498.8" y="599.4"/>
      <point x="436.59999999999997" y="632.4" type="curve"/>
    </contour>
    <contour>
      <point x="667.0" y="568.8" type="line"/>
      <point x="770.2" y="186.39999999999998" type="line" smooth="yes"/>
      <point x="814.8000000000001" y="27.2"/>
      <point x="862.4000000000001" y="-24.0"/>
      <point x="944.0" y="-24.0" type="curve" smooth="yes"/>
      <point x="1039.2" y="-24.0"/>
      <point x="1125.6" y="34.0"/>
      <point x="1157.3999999999999" y="110.4" type="curve" smooth="yes"/>
      <point x="1158.6" y="114.0"/>
      <point x="1159.0" y="116.8"/>
      <point x="1156.2" y="117.6" type="curve" smooth="yes"/>
      <point x="1153.4" y="118.39999999999999"/>
      <point x="1150.6" y="116.0"/>
      <point x="1146.8" y="110.4" type="curve" smooth="yes"/>
      <point x="1125.6000000000001" y="75.2"/>
      <point x="1105.3999999999999" y="61.2"/>
      <point x="1078.6" y="61.2" type="curve" smooth="yes"/>
      <point x="1038.2" y="61.2"/>
      <point x="1008.0" y="89.6"/>
      <point x="967.4" y="216.8" type="curve" smooth="yes"/>
      <point x="843.4" y="596.0" type="line"/>
    </contour>
  </outline>
</glyph>
<glyph name="S" format="2">
  <advance width="1042.4"/>
  <unicode hex="0053"/>
  <anchor x="825.4" y="1528.0" name="center"/>
  <outline>
    <contour>
      <point x="461.8" y="-20.0" type="curve" smooth="yes"/>
      <point x="682.2" y="-20.0"/>
      <point x="871.2" y="112.79999999999998"/>
      <point x="892.1999999999999" y="332.0" type="curve" smooth="yes"/>
      <point x="908.4" y="464.79999999999995"/>
      <point x="859.1999999999999" y="584.0"/>
      <point x="667.2" y="744.4000000000001" type="curve" smooth="yes"/>
      <point x="509.40000000000003" y="877.6"/>
      <point x="453.8" y="975.6"/>
      <point x="464.2" y="1110.4" type="curve" smooth="yes"/>
      <point x="474.4" y="1270.3999999999999"/>
      <point x="601.0" y="1407.2"/>
      <point x="785.4" y="1407.2" type="curve" smooth="yes"/>
      <point x="897.8" y="1407.2"/>
      <point x="970.6" y="1344.8000000000002"/>
      <point x="1000.0" y="1191.2" type="curve" smooth="yes"/>
      <point x="1016.6" y="1098.3999999999999" type="line" smooth="yes"/>
      <point x="1026.0" y="1046.8000000000002"/>
      <point x="1044.4" y="1023.2"/>
      <point x="1075.6" y="1023.2" type="curve" smooth="yes"/>
      <point x="1121.2" y="1023.2"/>
      <point x="1151.0" y="1061.6000000000001"/>
      <point x="1154.3999999999999" y="1129.6" type="curve" smooth="yes"/>
      <point x="1162.2" y="1281.2"/>
      <point x="1047.2" y="1421.6000000000001"/>
      <point x="797.2" y="1421.6000000000001" type="curve" smooth="yes"/>
      <point x="496.40000000000003" y="1421.6000000000001"/>
      <point x="298.0" y="1214.3999999999999"/>
      <point x="284.8" y="999.2" type="curve" smooth="yes"/>
      <point x="275.0" y="849.2"/>
      <point x="337.2" y="739.1999999999999"/>
      <point x="519.8" y="598.0" type="curve" smooth="yes"/>
      <point x="673.6" y="478.0"/>
      <point x="721.8000000000001" y="376.0"/>
      <point x="706.2" y="254.39999999999998" type="curve" smooth="yes"/>
      <point x="692.4547488711166" y="112.49774569351887"/>
      <point x="581.1999999999999" y="2.3999999999999915"/>
      <point x="423.6" y="2.3999999999999915" type="curve" smooth="yes"/>
      <point x="279.6" y="2.3999999999999915"/>
      <point x="173.55352834981596" y="90.91275447440094"/>
      <point x="146.79999999999998" y="276.4" type="curve" smooth="yes"/>
      <point x="122.39999999999999" y="415.2" type="line" smooth="yes"/>
      <point x="121.80000000000001" y="423.2"/>
      <point x="119.79999999999998" y="426.40000000000003"/>
      <point x="116.19999999999999" y="426.40000000000003" type="curve" smooth="yes"/>
      <point x="112.2" y="426.40000000000003"/>
      <point x="111.4" y="422.8"/>
      <point x="109.19999999999999" y="414.0" type="curve" smooth="yes"/>
      <point x="35.599999999999994" y="14.0" type="line" smooth="yes"/>
      <point x="34.4" y="5.6000000000000005"/>
      <point x="36.8" y="0.8000000000000007"/>
      <point x="42.39999999999999" y="0.8000000000000007" type="curve" smooth="yes"/>
      <point x="57.648780487804885" y="0.8000000000000007"/>
      <point x="148.2" y="112.0"/>
      <point x="169.0" y="112.0" type="curve" smooth="yes"/>
      <point x="190.2" y="112.0"/>
      <point x="242.96433121019106" y="-20.0"/>
    </contour>
  </outline>
</glyph>
<glyph name="T" format="2">
  <advance width="1027.4"/>
  <unicode hex="0054"/>
  <anchor x="409.8" y="1516.0" name="center"/>
  <outline>
    <contour>
      <point x="491.8" y="1424.4" type="curve" smooth="yes"/>
      <point x="325.4" y="1424.4"/>
      <point x="230.2" y="1338.6000000000001"/>
      <point x="214.0" y="1224.0" type="curve" smooth="yes"/>
      <point x="198.2" y="1134.2"/>
      <point x="234.4" y="1073.3999999999999"/>
      <point x="291.0" y="1071.0" type="curve" smooth="yes"/>
      <point x="339.59999999999997" y="1069.8"/>
      <point x="370.6" y="1101.6"/>
      <point x="372.8" y="1145.6000000000001" type="curve" smooth="yes"/>
      <point x="376.0" y="1204.8"/>
      <point x="321.8" y="1238.4"/>
      <point x="335.4" y="1319.6000000000001" type="curve" smooth="yes"/>
      <point x="343.6" y="1377.1999999999998"/>
      <point x="393.0" y="1412.8"/>
      <point x="490.20000000000005" y="1412.8" type="curve" smooth="yes"/>
      <point x="628.3455040871935" y="1412.8"/>
      <point x="1008.8705570291776" y="1294.0"/>
      <point x="1146.6" y="1294.0" type="curve" smooth="yes"/>
      <point x="1246.8" y="1294.0"/>
      <point x="1329.8" y="1362.4"/>
      <point x="1332.2" y="1464.8000000000002" type="curve" smooth="yes"/>
      <point x="1333.2" y="1520.6"/>
      <point x="1303.2" y="1554.0"/>
      <point x="1263.8" y="1554.0" type="curve" smooth="yes"/>
      <point x="1222.8" y="1554.0"/>
      <point x="1192.2" y="1523.2"/>
      <point x="1188.2" y="1474.8" type="curve" smooth="yes"/>
      <point x="1183.6" y="1429.8000000000002"/>
      <point x="1194.0" y="1389.0"/>
      <point x="1189.4" y="1361.0" type="curve" smooth="yes"/>
      <point x="1182.8000000000002" y="1327.8"/>
      <point x="1156.0" y="1312.2"/>
      <point x="1106.6000000000001" y="1312.2" type="curve" smooth="yes"/>
      <point x="1029.036994219653" y="1312.2"/>
      <point x="630.4142857142857" y="1424.4"/>
    </contour>
    <contour>
      <point x="539.0" y="76.4" type="curve" smooth="yes"/>
      <point x="601.8" y="297.79999999999995"/>
      <point x="820.6" y="1082.0"/>
      <point x="902.0" y="1344.8" type="curve"/>
      <point x="712.8" y="1385.1999999999998" type="line"/>
      <point x="640.8000000000001" y="1124.8"/>
      <point x="410.5501374348422" y="314.44747921245846"/>
      <point x="335.40000000000003" y="73.6" type="curve" smooth="yes"/>
      <point x="325.4" y="43.19999999999999"/>
      <point x="312.59999999999997" y="29.200000000000003"/>
      <point x="288.6" y="26.799999999999997" type="curve" smooth="yes"/>
      <point x="188.0" y="15.200000000000003" type="line" smooth="yes"/>
      <point x="180.79999999999998" y="14.799999999999997"/>
      <point x="175.6" y="12.399999999999991"/>
      <point x="175.6" y="6.799999999999997" type="curve" smooth="yes"/>
      <point x="175.6" y="2.3999999999999986"/>
      <point x="179.6" y="0.0"/>
      <point x="186.39999999999998" y="0.0" type="curve" smooth="yes"/>
      <point x="671.1999999999999" y="0.0" type="line" smooth="yes"/>
      <point x="679.2" y="0.0"/>
      <point x="682.4" y="2.8000000000000007"/>
      <point x="682.4" y="7.200000000000003" type="curve" smooth="yes"/>
      <point x="682.4" y="11.599999999999994"/>
      <point x="677.2" y="14.399999999999991"/>
      <point x="670.4" y="14.799999999999997" type="curve" smooth="yes"/>
      <point x="566.2" y="26.0" type="line" smooth="yes"/>
      <point x="539.0" y="28.799999999999997"/>
      <point x="529.8" y="44.400000000000006"/>
    </contour>
  </outline>
</glyph>
<glyph name="U" format="2">
  <advance width="1211.2"/>
  <unicode hex="0055"/>
  <anchor x="977.2" y="1479.0" name="center"/>
  <outline>
    <contour>
      <point x="996.1999999999999" y="402.0" type="line" smooth="yes"/>
      <point x="915.1999999999999" y="131.6"/>
      <point x="772.0" y="18.799999999999997"/>
      <point x="602.0" y="18.799999999999997" type="curve" smooth="yes"/>
      <point x="456.80000000000007" y="18.799999999999997"/>
      <point x="362.6" y="97.20000000000002"/>
      <point x="366.20000000000005" y="256.8" type="curve" smooth="yes"/>
      <point x="368.00000000000006" y="332.8"/>
      <point x="393.6" y="447.6"/>
      <point x="449.40000000000003" y="645.2" type="curve" smooth="yes"/>
      <point x="639.6" y="1316.0" type="line" smooth="yes"/>
      <point x="651.0" y="1355.6000000000001"/>
      <point x="661.1999999999999" y="1365.6000000000001"/>
      <point x="681.2" y="1368.4" type="curve" smooth="yes"/>
      <point x="790.8000000000001" y="1386.0" type="line" smooth="yes"/>
      <point x="801.4" y="1387.6"/>
      <point x="803.8" y="1390.8"/>
      <point x="803.8" y="1394.8000000000002" type="curve" smooth="yes"/>
      <point x="803.8" y="1398.0"/>
      <point x="801.0" y="1400.0"/>
      <point x="795.4" y="1400.0" type="curve" smooth="yes"/>
      <point x="311.4" y="1400.0" type="line" smooth="yes"/>
      <point x="305.40000000000003" y="1400.0"/>
      <point x="301.0" y="1397.6000000000001"/>
      <point x="301.0" y="1393.2" type="curve" smooth="yes"/>
      <point x="301.0" y="1388.0"/>
      <point x="303.59999999999997" y="1386.0"/>
      <point x="314.0" y="1384.4" type="curve" smooth="yes"/>
      <point x="418.0" y="1370.8000000000002" type="line" smooth="yes"/>
      <point x="437.6" y="1368.0"/>
      <point x="451.8" y="1355.2"/>
      <point x="445.40000000000003" y="1332.8" type="curve" smooth="yes"/>
      <point x="250.2" y="646.4000000000001" type="line" smooth="yes"/>
      <point x="214.0" y="522.4"/>
      <point x="173.0" y="354.0"/>
      <point x="171.8" y="292.0" type="curve" smooth="yes"/>
      <point x="168.2" y="108.8"/>
      <point x="287.8" y="-20.0"/>
      <point x="520.6" y="-20.0" type="curve"/>
      <point x="779.0" y="-20.0"/>
      <point x="926.4" y="110.4"/>
      <point x="1015.0" y="406.4" type="curve" smooth="yes"/>
      <point x="1246.0" y="1168.4" type="line" smooth="yes"/>
      <point x="1286.6000000000001" y="1304.8000000000002"/>
      <point x="1345.0" y="1361.8"/>
      <point x="1413.0" y="1376.8" type="curve" smooth="yes"/>
      <point x="1465.2" y="1386.0" type="line" smooth="yes"/>
      <point x="1475.8000000000002" y="1388.4"/>
      <point x="1477.8000000000002" y="1390.8000000000002"/>
      <point x="1477.8000000000002" y="1394.8" type="curve" smooth="yes"/>
      <point x="1477.8000000000002" y="1398.0"/>
      <point x="1475.0" y="1400.0"/>
      <point x="1469.4" y="1400.0" type="curve" smooth="yes"/>
      <point x="1095.8" y="1400.0" type="line" smooth="yes"/>
      <point x="1089.8" y="1400.0"/>
      <point x="1085.4" y="1397.6"/>
      <point x="1085.4" y="1393.2" type="curve" smooth="yes"/>
      <point x="1085.3999999999999" y="1388.4"/>
      <point x="1087.6" y="1386.0"/>
      <point x="1098.4" y="1384.3999999999999" type="curve" smooth="yes"/>
      <point x="1150.8" y="1377.6" type="line" smooth="yes"/>
      <point x="1229.6000000000001" y="1366.4"/>
      <point x="1267.2" y="1300.4"/>
      <point x="1229.8" y="1171.6000000000001" type="curve" smooth="yes"/>
    </contour>
  </outline>
</glyph>
<glyph name="V" format="2">
  <advance width="1067.6000000000001"/>
  <unicode hex="0056"/>
  <outline>
    <contour>
      <point x="1007.4" y="1393.1999999999998" type="curve" smooth="yes"/>
      <point x="1007.4" y="1388.4"/>
      <point x="1010.8000000000001" y="1385.8"/>
      <point x="1020.4" y="1384.4" type="curve" smooth="yes"/>
      <point x="1068.0" y="1376.0" type="line" smooth="yes"/>
      <point x="1147.6000000000001" y="1358.8"/>
      <point x="1197.8" y="1277.2"/>
      <point x="1131.6" y="1172.6" type="curve" smooth="yes"/>
      <point x="469.4" y="123.19999999999999" type="line"/>
      <point x="501.2" y="159.0" type="line"/>
      <point x="514.8000000000001" y="579.8"/>
      <point x="528.4" y="1019.1999999999999"/>
      <point x="537.4" y="1289.2" type="curve" smooth="yes"/>
      <point x="538.4000000000001" y="1330.0"/>
      <point x="550.1999999999999" y="1362.0"/>
      <point x="586.8000000000001" y="1368.0" type="curve" smooth="yes"/>
      <point x="694.4000000000001" y="1386.0" type="line" smooth="yes"/>
      <point x="705.0" y="1388.0"/>
      <point x="707.4" y="1390.8000000000002"/>
      <point x="707.4" y="1394.8" type="curve" smooth="yes"/>
      <point x="707.4" y="1397.6000000000001"/>
      <point x="705.0" y="1400.0"/>
      <point x="699.0" y="1400.0" type="curve" smooth="yes"/>
      <point x="238.20000000000002" y="1400.0" type="line" smooth="yes"/>
      <point x="231.8" y="1400.0"/>
      <point x="227.0" y="1398.0"/>
      <point x="227.0" y="1393.1999999999998" type="curve" smooth="yes"/>
      <point x="227.0" y="1388.8000000000002"/>
      <point x="228.79999999999998" y="1387.0"/>
      <point x="240.0" y="1384.3999999999999" type="curve" smooth="yes"/>
      <point x="312.4" y="1368.0" type="line" smooth="yes"/>
      <point x="341.40000000000003" y="1361.4"/>
      <point x="348.0" y="1343.2"/>
      <point x="346.6" y="1296.0" type="curve" smooth="yes"/>
      <point x="342.2" y="1033.2"/>
      <point x="326.4" y="294.6"/>
      <point x="318.59999999999997" y="177.2" type="curve" smooth="yes"/>
      <point x="317.40000000000003" y="161.40000000000003"/>
      <point x="315.6" y="144.8"/>
      <point x="310.0" y="124.80000000000001" type="curve" smooth="yes"/>
      <point x="285.59999999999997" y="36.4" type="line" smooth="yes"/>
      <point x="279.0" y="13.200000000000006"/>
      <point x="285.0" y="0.0"/>
      <point x="305.0" y="0.0" type="curve" smooth="yes"/>
      <point x="419.8" y="0.0" type="line" smooth="yes"/>
      <point x="439.80000000000007" y="0.0"/>
      <point x="452.4" y="9.2"/>
      <point x="458.4" y="29.600000000000005" type="curve" smooth="yes"/>
      <point x="479.4000000000001" y="97.19999999999999" type="line" smooth="yes"/>
      <point x="487.19999999999993" y="121.4"/>
      <point x="495.80000000000007" y="139.39999999999998"/>
      <point x="507.20000000000005" y="158.0" type="curve" smooth="yes"/>
      <point x="1144.6" y="1164.0" type="line" smooth="yes"/>
      <point x="1209.0" y="1265.4"/>
      <point x="1285.6000000000001" y="1353.3999999999999"/>
      <point x="1346.4" y="1376.0" type="curve" smooth="yes"/>
      <point x="1376.8000000000002" y="1386.0" type="line" smooth="yes"/>
      <point x="1387.0" y="1389.3999999999999"/>
      <point x="1389.4" y="1390.8"/>
      <point x="1389.4" y="1394.8000000000002" type="curve" smooth="yes"/>
      <point x="1389.4" y="1398.0"/>
      <point x="1386.6000000000001" y="1400.0"/>
      <point x="1381.0" y="1400.0" type="curve" smooth="yes"/>
      <point x="1017.8" y="1400.0" type="line" smooth="yes"/>
      <point x="1011.8" y="1400.0"/>
      <point x="1007.4" y="1397.6000000000001"/>
    </contour>
  </outline>
</glyph>
<glyph name="W" format="2">
  <advance width="1702.3999999999999"/>
  <unicode hex="0057"/>
  <anchor x="1199.4" y="1478.0" name="center"/>
  <outline>
    <contour>
      <point x="1067.2" y="1188.0" type="line"/>
      <point x="458.0" y="139.6" type="line"/>
      <point x="488.00000000000006" y="168.79999999999998" type="line"/>
      <point x="507.00000000000006" y="583.0"/>
      <point x="530.4" y="1100.8000000000002"/>
      <point x="536.8000000000001" y="1287.0" type="curve" smooth="yes"/>
      <point x="540.2" y="1339.6"/>
      <point x="553.0" y="1363.4"/>
      <point x="594.0" y="1369.8" type="curve" smooth="yes"/>
      <point x="692.0" y="1385.3999999999999" type="line" smooth="yes"/>
      <point x="703.2" y="1387.4"/>
      <point x="706.8000000000001" y="1389.6000000000001"/>
      <point x="706.8000000000001" y="1393.6000000000001" type="curve" smooth="yes"/>
      <point x="706.8" y="1397.6"/>
      <point x="703.8" y="1400.0"/>
      <point x="694.2" y="1400.0" type="curve" smooth="yes"/>
      <point x="241.2" y="1400.0" type="line" smooth="yes"/>
      <point x="232.39999999999998" y="1400.0"/>
      <point x="228.2" y="1398.6"/>
      <point x="228.2" y="1393.8" type="curve" smooth="yes"/>
      <point x="228.2" y="1389.3999999999999"/>
      <point x="231.20000000000002" y="1387.0"/>
      <point x="241.79999999999998" y="1384.3999999999999" type="curve" smooth="yes"/>
      <point x="307.0" y="1369.2" type="line" smooth="yes"/>
      <point x="338.4" y="1362.0"/>
      <point x="347.0" y="1345.6"/>
      <point x="346.59999999999997" y="1300.8" type="curve" smooth="yes"/>
      <point x="342.79999999999995" y="991.5999999999999"/>
      <point x="314.0" y="277.8"/>
      <point x="306.0" y="175.60000000000002" type="curve" smooth="yes"/>
      <point x="305.4" y="162.20000000000002"/>
      <point x="301.4" y="141.00000000000003"/>
      <point x="296.20000000000005" y="122.99999999999999" type="curve" smooth="yes"/>
      <point x="271.2" y="31.599999999999994" type="line" smooth="yes"/>
      <point x="265.2" y="10.8"/>
      <point x="276.0" y="0.0"/>
      <point x="296.0" y="0.0" type="curve" smooth="yes"/>
      <point x="403.6" y="0.0" type="line" smooth="yes"/>
      <point x="425.40000000000003" y="0.0"/>
      <point x="438.59999999999997" y="9.8"/>
      <point x="445.20000000000005" y="29.6" type="curve" smooth="yes"/>
      <point x="468.6" y="105.4" type="line" smooth="yes"/>
      <point x="478.40000000000003" y="139.2"/>
      <point x="483.4" y="156.6"/>
      <point x="499.4" y="185.0" type="curve" smooth="yes"/>
      <point x="1079.2" y="1174.2" type="line"/>
    </contour>
    <contour>
      <point x="1628.4" y="1393.2" type="curve" smooth="yes"/>
      <point x="1628.4" y="1389.3999999999999"/>
      <point x="1632.0" y="1386.8"/>
      <point x="1639.6000000000001" y="1385.0" type="curve" smooth="yes"/>
      <point x="1696.8" y="1375.4" type="line" smooth="yes"/>
      <point x="1790.0" y="1356.4"/>
      <point x="1816.6" y="1284.6"/>
      <point x="1767.1999999999998" y="1195.4" type="curve" smooth="yes"/>
      <point x="1150.3999999999999" y="139.40000000000003" type="line"/>
      <point x="1178.4" y="170.0" type="line"/>
      <point x="1181.2" y="340.59999999999997"/>
      <point x="1220.3999999999999" y="1146.8"/>
      <point x="1226.0" y="1288.3999999999999" type="curve" smooth="yes"/>
      <point x="1228.1999999999998" y="1344.4"/>
      <point x="1244.6" y="1362.6"/>
      <point x="1283.8" y="1369.8" type="curve" smooth="yes"/>
      <point x="1372.0" y="1385.3999999999999" type="line" smooth="yes"/>
      <point x="1384.0" y="1387.4"/>
      <point x="1388.0" y="1390.8"/>
      <point x="1388.0" y="1394.2" type="curve" smooth="yes"/>
      <point x="1388.0" y="1398.0"/>
      <point x="1385.2" y="1400.0"/>
      <point x="1379.0" y="1400.0" type="curve" smooth="yes"/>
      <point x="950.0" y="1400.0" type="line" smooth="yes"/>
      <point x="943.0" y="1400.0"/>
      <point x="937.6" y="1398.6000000000001"/>
      <point x="937.6" y="1393.1999999999998" type="curve" smooth="yes"/>
      <point x="937.6" y="1388.8"/>
      <point x="943.0" y="1385.8"/>
      <point x="950.0" y="1384.4" type="curve" smooth="yes"/>
      <point x="1005.6" y="1372.4" type="line" smooth="yes"/>
      <point x="1040.3999999999999" y="1364.6"/>
      <point x="1049.2" y="1344.0"/>
      <point x="1048.6" y="1305.6000000000001" type="curve" smooth="yes"/>
      <point x="1044.4" y="1153.8"/>
      <point x="1008.0" y="296.2"/>
      <point x="1002.0" y="182.4" type="curve" smooth="yes"/>
      <point x="1000.1999999999999" y="159.39999999999998"/>
      <point x="997.2" y="134.0"/>
      <point x="990.4" y="110.2" type="curve" smooth="yes"/>
      <point x="967.4000000000001" y="36.4" type="line" smooth="yes"/>
      <point x="959.4" y="10.600000000000005"/>
      <point x="969.8" y="0.0"/>
      <point x="985.5999999999999" y="0.0" type="curve" smooth="yes"/>
      <point x="1095.0" y="0.0" type="line" smooth="yes"/>
      <point x="1114.2" y="0.0"/>
      <point x="1128.8" y="8.4"/>
      <point x="1136.8" y="32.0" type="curve" smooth="yes"/>
      <point x="1159.6" y="104.0" type="line" smooth="yes"/>
      <point x="1171.6000000000001" y="140.60000000000002"/>
      <point x="1179.0" y="158.8"/>
      <point x="1187.0" y="173.40000000000003" type="curve" smooth="yes"/>
      <point x="1779.8" y="1188.2" type="line" smooth="yes"/>
      <point x="1827.4" y="1274.8"/>
      <point x="1906.6" y="1352.2"/>
      <point x="1964.4" y="1374.8" type="curve" smooth="yes"/>
      <point x="1979.8" y="1380.6" type="line" smooth="yes"/>
      <point x="2002.3999999999999" y="1388.2"/>
      <point x="2010.3999999999999" y="1390.2"/>
      <point x="2010.4" y="1394.2" type="curve" smooth="yes"/>
      <point x="2010.4" y="1398.4"/>
      <point x="2006.8" y="1400.0"/>
      <point x="1999.6" y="1400.0" type="curve" smooth="yes"/>
      <point x="1638.8" y="1400.0" type="line" smooth="yes"/>
      <point x="1632.1999999999998" y="1400.0"/>
      <point x="1628.4" y="1397.6"/>
    </contour>
  </outline>
</glyph>
<glyph name="X" format="2">
  <advance width="1151.2"/>
  <unicode hex="0058"/>
  <outline>
    <contour>
      <point x="609.0" y="712.8" type="line"/>
      <point x="207.6" y="190.0" type="line" smooth="yes"/>
      <point x="130.8" y="90.20000000000002"/>
      <point x="16.799999999999997" y="23.80000000000001"/>
      <point x="-54.99999999999999" y="19.799999999999997" type="curve" smooth="yes"/>
      <point x="-69.4" y="15.400000000000006"/>
      <point x="-77.4" y="14.600000000000009"/>
      <point x="-78.0" y="6.600000000000001" type="curve" smooth="yes"/>
      <point x="-78.0" y="2.599999999999998"/>
      <point x="-76.39999999999999" y="0.0"/>
      <point x="-68.4" y="0.0" type="curve" smooth="yes"/>
      <point x="304.0" y="0.0" type="line" smooth="yes"/>
      <point x="313.6" y="0.0"/>
      <point x="319.2" y="3.599999999999998"/>
      <point x="319.2" y="9.199999999999996" type="curve" smooth="yes"/>
      <point x="319.8" y="14.599999999999994"/>
      <point x="314.0" y="17.200000000000003"/>
      <point x="302.6" y="18.0" type="curve" smooth="yes"/>
      <point x="244.8" y="24.200000000000003" type="line" smooth="yes"/>
      <point x="155.8" y="37.0"/>
      <point x="147.60000000000002" y="82.19999999999999"/>
      <point x="221.79999999999998" y="178.8" type="curve" smooth="yes"/>
      <point x="616.0" y="699.6" type="line"/>
    </contour>
    <contour>
      <point x="608.2" y="1303.2" type="curve" smooth="yes"/>
      <point x="596.0" y="1348.8"/>
      <point x="612.5999999999999" y="1372.0"/>
      <point x="658.8" y="1377.3999999999999" type="curve" smooth="yes"/>
      <point x="732.8" y="1386.2" type="line" smooth="yes"/>
      <point x="741.4" y="1387.1999999999998"/>
      <point x="744.0" y="1390.0"/>
      <point x="744.0" y="1393.8" type="curve" smooth="yes"/>
      <point x="744.0" y="1397.6000000000001"/>
      <point x="740.8000000000001" y="1400.0"/>
      <point x="734.1999999999999" y="1400.0" type="curve" smooth="yes"/>
      <point x="283.0" y="1400.0" type="line" smooth="yes"/>
      <point x="276.4" y="1400.0"/>
      <point x="272.20000000000005" y="1397.8"/>
      <point x="272.20000000000005" y="1393.8" type="curve" smooth="yes"/>
      <point x="272.20000000000005" y="1389.3999999999999"/>
      <point x="275.40000000000003" y="1386.6"/>
      <point x="293.4" y="1384.2" type="curve" smooth="yes"/>
      <point x="370.8" y="1375.6"/>
      <point x="391.40000000000003" y="1357.6000000000001"/>
      <point x="405.6" y="1308.6" type="curve" smooth="yes"/>
      <point x="453.2" y="1153.0"/>
      <point x="718.1999999999999" y="240.20000000000002"/>
      <point x="748.2" y="119.60000000000002" type="curve" smooth="yes"/>
      <point x="763.8" y="59.60000000000002"/>
      <point x="762.4" y="35.0"/>
      <point x="715.4" y="28.400000000000006" type="curve" smooth="yes"/>
      <point x="634.0" y="16.60000000000001" type="line" smooth="yes"/>
      <point x="621.0" y="14.599999999999994"/>
      <point x="616.0" y="12.799999999999997"/>
      <point x="616.0" y="7.200000000000003" type="curve" smooth="yes"/>
      <point x="616.0" y="1.8000000000000007"/>
      <point x="621.0" y="0.0"/>
      <point x="632.0" y="0.0" type="curve" smooth="yes"/>
      <point x="1086.8000000000002" y="0.0" type="line" smooth="yes"/>
      <point x="1094.2" y="0.0"/>
      <point x="1097.6000000000001" y="1.8000000000000007"/>
      <point x="1097.6000000000001" y="6.200000000000003" type="curve" smooth="yes"/>
      <point x="1097.6000000000001" y="10.0"/>
      <point x="1095.4" y="13.0"/>
      <point x="1085.2" y="14.0" type="curve" smooth="yes"/>
      <point x="993.2" y="25.599999999999994"/>
      <point x="975.4" y="41.000000000000014"/>
      <point x="954.2" y="109.6" type="curve" smooth="yes"/>
      <point x="908.8000000000001" y="257.40000000000003"/>
      <point x="648.8000000000001" y="1150.6000000000001"/>
    </contour>
    <contour>
      <point x="716.0" y="726.8000000000001" type="line"/>
      <point x="1011.4000000000001" y="1147.8" type="line" smooth="yes"/>
      <point x="1087.0" y="1254.6"/>
      <point x="1148.0" y="1285.0"/>
      <point x="1215.2" y="1294.2" type="curve" smooth="yes"/>
      <point x="1243.6000000000001" y="1295.8000000000002"/>
      <point x="1267.0" y="1286.4"/>
      <point x="1307.3999999999999" y="1289.2" type="curve" smooth="yes"/>
      <point x="1356.4" y="1295.6000000000001"/>
      <point x="1389.0" y="1323.2"/>
      <point x="1389.0" y="1363.3999999999999" type="curve" smooth="yes"/>
      <point x="1389.6" y="1399.3999999999999"/>
      <point x="1365.8" y="1426.8"/>
      <point x="1310.2" y="1426.8" type="curve" smooth="yes"/>
      <point x="1225.0" y="1426.8"/>
      <point x="1148.2" y="1370.6000000000001"/>
      <point x="1066.4" y="1253.3999999999999" type="curve" smooth="yes"/>
      <point x="701.1999999999999" y="733.6" type="line"/>
    </contour>
  </outline>
</glyph>
<glyph name="Y" format="2">
  <advance width="1039.6"/>
  <unicode hex="0059"/>
  <anchor x="874.0" y="1498.0" name="center"/>
  <outline>
    <contour>
      <point x="621.8000000000001" y="446.0" type="line"/>
      <point x="629.0" y="450.40000000000003" type="line"/>
      <point x="621.4" y="535.0"/>
      <point x="542.1999999999999" y="1292.8"/>
      <point x="535.6" y="1347.8" type="curve" smooth="yes"/>
      <point x="531.2" y="1380.3999999999999"/>
      <point x="515.4" y="1400.0"/>
      <point x="482.00000000000006" y="1400.0" type="curve" smooth="yes"/>
      <point x="238.79999999999998" y="1400.0" type="line" smooth="yes"/>
      <point x="232.2" y="1400.0"/>
      <point x="228.39999999999998" y="1398.2"/>
      <point x="228.4" y="1393.2" type="curve" smooth="yes"/>
      <point x="228.4" y="1387.4"/>
      <point x="231.79999999999998" y="1385.3999999999999"/>
      <point x="240.4" y="1384.6" type="curve" smooth="yes"/>
      <point x="318.2" y="1377.8000000000002"/>
      <point x="338.0" y="1361.0"/>
      <point x="344.0" y="1319.4" type="curve" smooth="yes"/>
      <point x="350.8" y="1271.6"/>
      <point x="424.2" y="543.6"/>
      <point x="429.20000000000005" y="484.40000000000003" type="curve" smooth="yes"/>
      <point x="431.6" y="456.2"/>
      <point x="434.59999999999997" y="435.40000000000003"/>
      <point x="427.4" y="408.6" type="curve" smooth="yes"/>
      <point x="339.2" y="78.4" type="line" smooth="yes"/>
      <point x="332.0" y="50.999999999999986"/>
      <point x="312.59999999999997" y="29.000000000000014"/>
      <point x="270.0" y="25.0" type="curve" smooth="yes"/>
      <point x="182.6" y="16.400000000000006" type="line" smooth="yes"/>
      <point x="174.2" y="15.400000000000006"/>
      <point x="168.4" y="12.599999999999994"/>
      <point x="168.39999999999998" y="7.600000000000001" type="curve" smooth="yes"/>
      <point x="168.39999999999998" y="3.1999999999999993"/>
      <point x="171.79999999999998" y="0.0"/>
      <point x="179.2" y="0.0" type="curve" smooth="yes"/>
      <point x="656.1999999999999" y="0.0" type="line" smooth="yes"/>
      <point x="666.5999999999999" y="0.0"/>
      <point x="674.5999999999999" y="2.400000000000002"/>
      <point x="674.6" y="9.0" type="curve" smooth="yes"/>
      <point x="674.6" y="12.799999999999997"/>
      <point x="669.5999999999999" y="15.200000000000003"/>
      <point x="657.8" y="16.60000000000001" type="curve" smooth="yes"/>
      <point x="576.4" y="24.799999999999997" type="line" smooth="yes"/>
      <point x="539.0" y="28.799999999999997"/>
      <point x="531.1999999999999" y="44.19999999999999"/>
      <point x="537.5999999999999" y="70.60000000000001" type="curve" smooth="yes"/>
      <point x="621.4" y="400.0" type="line" smooth="yes"/>
      <point x="626.0" y="418.0"/>
      <point x="630.8" y="433.4"/>
      <point x="642.0" y="454.0" type="curve" smooth="yes"/>
      <point x="1022.0000000000001" y="1106.0" type="line" smooth="yes"/>
      <point x="1073.0" y="1195.6"/>
      <point x="1127.8" y="1236.8"/>
      <point x="1208.3999999999999" y="1261.4" type="curve" smooth="yes"/>
      <point x="1286.2" y="1288.3999999999999"/>
      <point x="1329.2" y="1319.2"/>
      <point x="1329.8" y="1369.0" type="curve" smooth="yes"/>
      <point x="1330.4" y="1402.3999999999999"/>
      <point x="1306.6000000000001" y="1428.0"/>
      <point x="1266.6" y="1428.0" type="curve" smooth="yes"/>
      <point x="1205.0" y="1428.0"/>
      <point x="1151.4" y="1379.4"/>
      <point x="1063.0" y="1221.6000000000001" type="curve" smooth="yes"/>
    </contour>
  </outline>
</glyph>
<glyph name="Z" format="2">
  <advance width="1097.2"/>
  <unicode hex="005A"/>
  <anchor x="894.0" y="1504.0" name="center"/>
  <outline>
    <contour>
      <point x="651.2" y="0.0" type="line" smooth="yes"/>
      <point x="689.0" y="0.0"/>
      <point x="718.4000000000001" y="-18.8"/>
      <point x="755.0" y="-18.8" type="curve" smooth="yes"/>
      <point x="872.0" y="-18.8"/>
      <point x="992.8" y="139.2"/>
      <point x="1008.5999999999999" y="359.6" type="curve" smooth="yes"/>
      <point x="1009.5999999999999" y="366.40000000000003"/>
      <point x="1008.4" y="371.59999999999997"/>
      <point x="1004.0" y="371.59999999999997" type="curve" smooth="yes"/>
      <point x="1000.1999999999999" y="372.2"/>
      <point x="998.4" y="369.40000000000003"/>
      <point x="992.2" y="359.2" type="curve" smooth="yes"/>
      <point x="840.6" y="79.80000000000001"/>
      <point x="709.8" y="16.200000000000003"/>
      <point x="588.8" y="16.200000000000003" type="curve" smooth="yes"/>
      <point x="179.4" y="16.200000000000003" type="line"/>
      <point x="195.4" y="5.6000000000000085" type="line"/>
      <point x="285.0" y="119.80000000000001"/>
      <point x="1160.8" y="1186.0"/>
      <point x="1295.4" y="1369.2" type="curve" smooth="yes"/>
      <point x="1301.0" y="1377.6000000000001"/>
      <point x="1305.2" y="1382.3999999999999"/>
      <point x="1305.8" y="1389.8" type="curve" smooth="yes"/>
      <point x="1305.8" y="1397.2"/>
      <point x="1300.0" y="1400.0"/>
      <point x="1289.0" y="1400.0" type="curve" smooth="yes"/>
      <point x="567.8" y="1400.0" type="line" smooth="yes"/>
      <point x="512.6" y="1400.0"/>
      <point x="482.6" y="1430.0"/>
      <point x="466.40000000000003" y="1430.0" type="curve" smooth="yes"/>
      <point x="456.6" y="1430.0"/>
      <point x="453.4" y="1424.8000000000002"/>
      <point x="443.79999999999995" y="1408.1999999999998" type="curve" smooth="yes"/>
      <point x="311.2" y="1138.0" type="line" smooth="yes"/>
      <point x="305.59999999999997" y="1128.2"/>
      <point x="303.6" y="1120.8"/>
      <point x="308.4" y="1117.2" type="curve" smooth="yes"/>
      <point x="314.2" y="1113.0"/>
      <point x="321.59999999999997" y="1118.0"/>
      <point x="328.0" y="1127.3999999999999" type="curve" smooth="yes"/>
      <point x="449.8" y="1294.3999999999999"/>
      <point x="575.1999999999999" y="1383.2"/>
      <point x="699.8" y="1383.2" type="curve" smooth="yes"/>
      <point x="1103.0" y="1383.2" type="line"/>
      <point x="1087.2" y="1395.3999999999999" type="line"/>
      <point x="1035.2" y="1329.8"/>
      <point x="81.2" y="149.99999999999997"/>
      <point x="-16.0" y="32.39999999999998" type="curve" smooth="yes"/>
      <point x="-22.400000000000006" y="24.200000000000003"/>
      <point x="-26.000000000000007" y="17.39999999999999"/>
      <point x="-26.6" y="11.600000000000001" type="curve" smooth="yes"/>
      <point x="-26.6" y="4.0"/>
      <point x="-20.60000000000001" y="0.0"/>
      <point x="-11.599999999999994" y="0.0" type="curve" smooth="yes"/>
    </contour>
  </outline>
</glyph>
<glyph name="bracketleft" format="2">
  <advance width="647.0"/>
  <unicode hex="005B"/>
  <outline>
    <contour>
      <point x="659.2" y="1420.8" type="line" smooth="yes"/>
      <point x="661.4" y="1428.8000000000002"/>
      <point x="665.0" y="1432.4"/>
      <point x="672.2" y="1432.4" type="curve" smooth="yes"/>
      <point x="883.4000000000001" y="1432.4" type="line" smooth="yes"/>
      <point x="888.8" y="1432.4"/>
      <point x="893.6" y="1434.1999999999998"/>
      <point x="895.4" y="1439.8" type="curve" smooth="yes"/>
      <point x="897.4000000000001" y="1445.0"/>
      <point x="894.4" y="1448.0"/>
      <point x="888.6" y="1448.0" type="curve" smooth="yes"/>
      <point x="537.4" y="1448.0" type="line" smooth="yes"/>
      <point x="526.1999999999999" y="1448.0"/>
      <point x="518.6" y="1442.0"/>
      <point x="515.0" y="1429.4" type="curve" smooth="yes"/>
      <point x="42.8" y="-205.4" type="line" smooth="yes"/>
      <point x="38.599999999999994" y="-218.0"/>
      <point x="42.8" y="-224.0"/>
      <point x="53.99999999999999" y="-224.0" type="curve" smooth="yes"/>
      <point x="405.2" y="-224.0" type="line" smooth="yes"/>
      <point x="411.0" y="-224.0"/>
      <point x="415.20000000000005" y="-221.0"/>
      <point x="416.59999999999997" y="-215.8" type="curve" smooth="yes"/>
      <point x="417.88321224863097" y="-210.3255448811605"/>
      <point x="415.8" y="-208.4"/>
      <point x="410.4" y="-208.4" type="curve" smooth="yes"/>
      <point x="199.2" y="-208.4" type="line" smooth="yes"/>
      <point x="191.6" y="-208.4"/>
      <point x="189.20000000000002" y="-204.79999999999998"/>
      <point x="191.4" y="-196.8" type="curve" smooth="yes"/>
    </contour>
  </outline>
</glyph>
<glyph name="asciicircum" format="2">
  <advance width="596.0"/>
  <unicode hex="005E"/>
  <outline>
    <contour>
      <point x="563.0" y="1413.0" type="line"/>
      <point x="148.39999999999998" y="837.2" type="line" smooth="yes"/>
      <point x="142.2622182413039" y="828.6250037663975"/>
      <point x="138.04000000000002" y="827.4"/>
      <point x="133.60000000000002" y="827.4" type="curve" smooth="yes"/>
      <point x="128.0" y="827.4"/>
      <point x="128.6" y="833.0"/>
      <point x="134.6" y="841.4" type="curve" smooth="yes"/>
      <point x="532.8" y="1403.2" type="line" smooth="yes"/>
      <point x="542.6" y="1417.2"/>
      <point x="548.1999999999999" y="1420.0"/>
      <point x="555.1999999999999" y="1420.0" type="curve" smooth="yes"/>
      <point x="562.2" y="1420.0"/>
      <point x="566.4" y="1417.2"/>
      <point x="569.1999999999999" y="1403.2" type="curve" smooth="yes"/>
      <point x="674.4000000000001" y="837.4" type="line" smooth="yes"/>
      <point x="676.0" y="829.1999999999999"/>
      <point x="672.1999999999999" y="825.5999999999999"/>
      <point x="668.0" y="825.5999999999999" type="curve" smooth="yes"/>
      <point x="664.1692307692307" y="825.5999999999999"/>
      <point x="661.2083090843182" y="827.9877728601309"/>
      <point x="660.0" y="834.0" type="curve" smooth="yes"/>
      <point x="546.2" y="1413.0" type="line"/>
    </contour>
  </outline>
</glyph>
<glyph name="underscore" format="2">
  <advance width="699.8"/>
  <unicode hex="005F"/>
  <outline>
    <contour>
      <point x="-104.0" y="-193.6" type="curve" smooth="yes"/>
      <point x="-105.2" y="-206.2"/>
      <point x="-101.80000000000001" y="-209.0"/>
      <point x="-93.4" y="-209.0" type="curve" smooth="yes"/>
      <point x="638.6" y="-209.0" type="line" smooth="yes"/>
      <point x="647.4" y="-209.0"/>
      <point x="650.8" y="-206.2"/>
      <point x="652.0" y="-194.4" type="curve" smooth="yes"/>
      <point x="653.2" y="-181.79999999999998"/>
      <point x="649.8000000000001" y="-179.0"/>
      <point x="641.4000000000001" y="-179.0" type="curve" smooth="yes"/>
      <point x="-90.6" y="-179.0" type="line" smooth="yes"/>
      <point x="-99.4" y="-179.0"/>
      <point x="-102.8" y="-181.39999999999998"/>
    </contour>
  </outline>
</glyph>
<glyph name="a" format="2">
  <advance width="918.0"/>
  <unicode hex="0061"/>
  <anchor x="626.4" y="1010.0" name="center"/>
  <outline>
    <contour>
      <point x="717.0" y="224.6" type="curve" smooth="yes"/>
      <point x="869.6" y="799.6" type="line" smooth="yes"/>
      <point x="874.6" y="818.5999999999999"/>
      <point x="903.6" y="819.0"/>
      <point x="903.6" y="835.8" type="curve" smooth="yes"/>
      <point x="903.6" y="852.6"/>
      <point x="815.6659793814433" y="886.0"/>
      <point x="692.0" y="886.0" type="curve" smooth="yes"/>
      <point x="373.6" y="886.0"/>
      <point x="78.8" y="602.0"/>
      <point x="42.2" y="286.8" type="curve" smooth="yes"/>
      <point x="12.799999999999997" y="78.4"/>
      <point x="84.0" y="-17.0"/>
      <point x="209.0" y="-17.0" type="curve" smooth="yes"/>
      <point x="380.6" y="-17.0"/>
      <point x="511.0" y="162.2"/>
      <point x="614.8" y="434.8" type="curve"/>
      <point x="607.0" y="438.79999999999995" type="line"/>
      <point x="548.8000000000001" y="239.0"/>
      <point x="521.6" y="124.80000000000001"/>
      <point x="521.6" y="73.8" type="curve" smooth="yes"/>
      <point x="521.6" y="13.400000000000002"/>
      <point x="551.7739130434784" y="-17.0"/>
      <point x="617.2" y="-17.0" type="curve" smooth="yes"/>
      <point x="714.0" y="-17.0"/>
      <point x="795.2" y="38.800000000000004"/>
      <point x="852.8" y="132.8" type="curve" smooth="yes"/>
      <point x="858.1999999999999" y="143.20000000000002"/>
      <point x="858.4" y="149.0"/>
      <point x="854.8000000000001" y="150.2" type="curve" smooth="yes"/>
      <point x="851.0" y="151.39999999999998"/>
      <point x="848.8000000000001" y="149.4"/>
      <point x="842.2" y="140.60000000000002" type="curve" smooth="yes"/>
      <point x="788.0" y="73.2"/>
      <point x="754.8" y="53.80000000000001"/>
      <point x="726.4000000000001" y="53.80000000000001" type="curve" smooth="yes"/>
      <point x="687.0" y="53.80000000000001"/>
      <point x="679.8000000000001" y="84.00000000000001"/>
    </contour>
    <contour>
      <point x="217.2" y="259.79999999999995" type="curve" smooth="yes"/>
      <point x="259.8" y="562.4"/>
      <point x="457.40000000000003" y="866.5999999999999"/>
      <point x="666.0" y="866.5999999999999" type="curve" smooth="yes"/>
      <point x="711.2" y="866.5999999999999"/>
      <point x="713.0" y="830.8000000000001"/>
      <point x="695.8000000000001" y="767.2" type="curve" smooth="yes"/>
      <point x="558.4" y="272.4"/>
      <point x="412.0" y="40.599999999999994"/>
      <point x="294.4" y="40.599999999999994" type="curve" smooth="yes"/>
      <point x="235.79999999999998" y="40.599999999999994"/>
      <point x="191.4" y="104.4"/>
    </contour>
  </outline>
</glyph>
<glyph name="b" format="2">
  <advance width="925.6"/>
  <unicode hex="0062"/>
  <outline>
    <contour>
      <point x="502.59999999999997" y="1157.6" type="line" smooth="yes"/>
      <point x="547.6" y="1318.4"/>
      <point x="639.5999999999999" y="1411.2"/>
      <point x="750.5999999999999" y="1411.2" type="curve" smooth="yes"/>
      <point x="828.0435331230284" y="1411.2"/>
      <point x="894.7671924290221" y="1311.6000000000001"/>
      <point x="979.0" y="1311.6000000000001" type="curve" smooth="yes"/>
      <point x="1025.1586206896552" y="1311.6000000000001"/>
      <point x="1053.4" y="1336.4"/>
      <point x="1053.4" y="1370.0" type="curve" smooth="yes"/>
      <point x="1053.4" y="1416.6"/>
      <point x="1002.7999999999998" y="1450.8"/>
      <point x="896.0" y="1450.8" type="curve" smooth="yes"/>
      <point x="553.6000000000001" y="1450.8"/>
      <point x="363.40000000000003" y="1268.6"/>
      <point x="275.8" y="946.8" type="curve" smooth="yes"/>
      <point x="24.2" y="25.60000000000001" type="line" smooth="yes"/>
      <point x="18.199999999999996" y="2.200000000000003"/>
      <point x="17.2" y="-5.800000000000001"/>
      <point x="23.400000000000006" y="-6.4" type="curve" smooth="yes"/>
      <point x="29.400000000000006" y="-7.0"/>
      <point x="35.2" y="-3.5999999999999996"/>
      <point x="40.000000000000014" y="2.0" type="curve" smooth="yes"/>
      <point x="239.4" y="161.20000000000002" type="line"/>
      <point x="225.0" y="174.8" type="line"/>
      <point x="225.0" y="34.4"/>
      <point x="291.20000000000005" y="-17.0"/>
      <point x="413.00000000000006" y="-17.0" type="curve" smooth="yes"/>
      <point x="625.8000000000001" y="-17.0"/>
      <point x="860.8" y="245.39999999999998"/>
      <point x="890.8" y="556.1999999999999" type="curve" smooth="yes"/>
      <point x="915.4" y="773.0"/>
      <point x="833.6" y="885.4"/>
      <point x="707.1999999999999" y="885.4" type="curve" smooth="yes"/>
      <point x="554.6318289786224" y="885.4"/>
      <point x="389.7232633348866" y="744.2960861549338"/>
      <point x="293.79999999999995" y="480.20000000000005" type="curve"/>
      <point x="305.79999999999995" y="479.79999999999995" type="line"/>
    </contour>
    <contour>
      <point x="618.0" y="820.1999999999999" type="curve" smooth="yes"/>
      <point x="686.6" y="823.8"/>
      <point x="733.0" y="758.8000000000001"/>
      <point x="710.8" y="578.0" type="curve" smooth="yes"/>
      <point x="683.8" y="313.0"/>
      <point x="508.20000000000005" y="12.200000000000003"/>
      <point x="365.0" y="12.200000000000003" type="curve" smooth="yes"/>
      <point x="291.6575342465754" y="12.200000000000003"/>
      <point x="244.60000000000002" y="64.19999999999999"/>
      <point x="247.40000000000003" y="174.0" type="curve" smooth="yes"/>
      <point x="257.0" y="440.0"/>
      <point x="445.5087248322148" y="811.4"/>
    </contour>
  </outline>
</glyph>
<glyph name="c" format="2">
  <advance width="766.2"/>
  <unicode hex="0063"/>
  <anchor x="551.6" y="984.0" name="center"/>
  <outline>
    <contour>
      <point x="537.0" y="872.0" type="curve" smooth="yes"/>
      <point x="603.6" y="872.0"/>
      <point x="640.6" y="834.4"/>
      <point x="640.6" y="784.8" type="curve" smooth="yes"/>
      <point x="640.6" y="741.2"/>
      <point x="627.0" y="713.2"/>
      <point x="625.8000000000001" y="674.0" type="curve" smooth="yes"/>
      <point x="623.8000000000001" y="632.4000000000001"/>
      <point x="652.0" y="606.0"/>
      <point x="687.6" y="606.0" type="curve" smooth="yes"/>
      <point x="726.8000000000001" y="606.0"/>
      <point x="762.4000000000001" y="635.1999999999999"/>
      <point x="766.8000000000001" y="701.6" type="curve" smooth="yes"/>
      <point x="774.4000000000001" y="808.2"/>
      <point x="690.1999999999999" y="892.4"/>
      <point x="536.2" y="892.4" type="curve" smooth="yes"/>
      <point x="306.0" y="892.4"/>
      <point x="84.85343612430904" y="655.5519863918437"/>
      <point x="46.0" y="377.0" type="curve" smooth="yes"/>
      <point x="8.407764740411693" y="116.78920110069112"/>
      <point x="108.4" y="-20.0"/>
      <point x="297.8" y="-20.0" type="curve" smooth="yes"/>
      <point x="468.0" y="-20.0"/>
      <point x="626.0760168950733" y="88.00858083401326"/>
      <point x="694.4" y="293.6" type="curve" smooth="yes"/>
      <point x="697.6" y="302.2"/>
      <point x="695.5999999999999" y="307.8"/>
      <point x="691.0" y="308.6" type="curve" smooth="yes"/>
      <point x="686.8" y="309.40000000000003"/>
      <point x="684.2" y="306.4"/>
      <point x="680.4000000000001" y="298.0" type="curve" smooth="yes"/>
      <point x="619.8" y="140.79999999999998"/>
      <point x="511.8" y="72.0"/>
      <point x="408.8" y="72.0" type="curve" smooth="yes"/>
      <point x="270.65088757396455" y="72.0"/>
      <point x="200.0028696995388" y="184.82357253192592"/>
      <point x="233.6" y="428.4" type="curve" smooth="yes"/>
      <point x="268.39834915164175" y="692.1864722148421"/>
      <point x="416.44816753926705" y="872.0"/>
    </contour>
  </outline>
</glyph>
<glyph name="d" format="2">
  <advance width="913.6"/>
  <unicode hex="0064"/>
  <anchor x="362.8" y="1022.0" name="center"/>
  <outline>
    <contour>
      <point x="755.2" y="772.4000000000001" type="line"/>
      <point x="763.2" y="836.8000000000001"/>
      <point x="725.8" y="886.0"/>
      <point x="606.2" y="886.0" type="curve" smooth="yes"/>
      <point x="331.8" y="886.0"/>
      <point x="51.8" y="560.2"/>
      <point x="23.0" y="265.4" type="curve" smooth="yes"/>
      <point x="-0.3999999999999999" y="66.60000000000001"/>
      <point x="77.8" y="-17.0"/>
      <point x="185.6" y="-17.0" type="curve" smooth="yes"/>
      <point x="327.0" y="-17.0"/>
      <point x="491.2" y="132.0"/>
      <point x="611.8" y="408.6" type="curve"/>
      <point x="596.8" y="411.0" type="line"/>
      <point x="532.6" y="199.2"/>
      <point x="515.4" y="123.6"/>
      <point x="515.4" y="73.8" type="curve" smooth="yes"/>
      <point x="515.4" y="14.400000000000002"/>
      <point x="549.8" y="-17.0"/>
      <point x="620.4" y="-17.0" type="curve" smooth="yes"/>
      <point x="717.2" y="-17.0"/>
      <point x="798.4" y="38.800000000000004"/>
      <point x="856.0" y="132.8" type="curve" smooth="yes"/>
      <point x="861.4" y="143.2"/>
      <point x="861.6" y="149.0"/>
      <point x="858.0" y="150.2" type="curve" smooth="yes"/>
      <point x="854.1999999999999" y="151.4"/>
      <point x="852.0" y="149.4"/>
      <point x="845.4" y="140.60000000000002" type="curve" smooth="yes"/>
      <point x="791.2" y="73.2"/>
      <point x="758.0" y="53.80000000000001"/>
      <point x="729.6" y="53.80000000000001" type="curve" smooth="yes"/>
      <point x="688.0" y="53.80000000000001"/>
      <point x="680.6" y="86.0"/>
      <point x="716.6" y="211.0" type="curve" smooth="yes"/>
      <point x="955.0" y="1044.4" type="line" smooth="yes"/>
      <point x="993.2" y="1184.6"/>
      <point x="896.1999999999999" y="1221.8"/>
      <point x="896.8" y="1287.6" type="curve" smooth="yes"/>
      <point x="898.6000194458343" y="1350.8005574472495"/>
      <point x="942.9345132743363" y="1394.6000000000001"/>
      <point x="984.0" y="1394.6000000000001" type="curve" smooth="yes"/>
      <point x="1038.1381818181817" y="1394.6000000000001"/>
      <point x="1103.6000000000001" y="1326.8"/>
      <point x="1166.2" y="1326.8" type="curve" smooth="yes"/>
      <point x="1207.8" y="1326.8"/>
      <point x="1229.8" y="1351.2181818181816"/>
      <point x="1229.8" y="1382.2" type="curve" smooth="yes"/>
      <point x="1229.8" y="1420.15"/>
      <point x="1191.0" y="1450.8"/>
      <point x="1116.2" y="1450.8" type="curve" smooth="yes"/>
      <point x="961.4" y="1450.8"/>
      <point x="878.0" y="1381.2"/>
      <point x="837.4" y="1237.2" type="curve" smooth="yes"/>
      <point x="639.0" y="540.8" type="line" smooth="yes"/>
      <point x="551.4" y="238.0"/>
      <point x="361.4" y="42.39999999999999"/>
      <point x="281.40000000000003" y="42.39999999999999" type="curve" smooth="yes"/>
      <point x="220.20000000000002" y="42.39999999999999"/>
      <point x="180.6" y="99.6"/>
      <point x="202.20000000000002" y="259.6" type="curve" smooth="yes"/>
      <point x="231.6" y="535.4"/>
      <point x="438.20000000000005" y="869.5999999999999"/>
      <point x="625.1999999999999" y="869.5999999999999" type="curve" smooth="yes"/>
      <point x="701.0" y="869.5999999999999"/>
      <point x="717.0" y="822.0"/>
      <point x="704.8000000000001" y="771.6" type="curve"/>
    </contour>
  </outline>
</glyph>
<glyph name="e" format="2">
  <advance width="770.4"/>
  <unicode hex="0065"/>
  <anchor x="527.8" y="1035.0" name="center"/>
  <outline>
    <contour>
      <point x="138.8" y="422.2" type="curve"/>
      <point x="142.8" y="405.6" type="line"/>
      <point x="142.8" y="405.6"/>
      <point x="730.0" y="616.0"/>
      <point x="775.1999999999999" y="630.0" type="curve" smooth="yes"/>
      <point x="781.5999999999999" y="632.4"/>
      <point x="784.8000000000001" y="635.8"/>
      <point x="783.6" y="640.0" type="curve" smooth="yes"/>
      <point x="782.4" y="644.0"/>
      <point x="779.8" y="645.8"/>
      <point x="771.6" y="645.4" type="curve" smooth="yes"/>
      <point x="750.4" y="643.1999999999999"/>
      <point x="743.6" y="651.4"/>
      <point x="744.4" y="666.0" type="curve" smooth="yes"/>
      <point x="747.5999999999999" y="784.0"/>
      <point x="676.0" y="889.4"/>
      <point x="531.1999999999999" y="889.4" type="curve" smooth="yes"/>
      <point x="296.59999999999997" y="889.4"/>
      <point x="80.2" y="647.2"/>
      <point x="41.2" y="356.20000000000005" type="curve" smooth="yes"/>
      <point x="8.799999999999999" y="112.39999999999999"/>
      <point x="113.20000000000002" y="-17.0"/>
      <point x="293.4" y="-17.0" type="curve" smooth="yes"/>
      <point x="489.80000000000007" y="-17.0"/>
      <point x="632.2" y="97.4"/>
      <point x="709.6" y="296.0" type="curve" smooth="yes"/>
      <point x="713.4" y="305.2"/>
      <point x="711.2" y="310.8"/>
      <point x="707.2" y="311.6" type="curve" smooth="yes"/>
      <point x="702.4000000000001" y="312.4"/>
      <point x="699.2" y="308.79999999999995"/>
      <point x="695.6" y="301.59999999999997" type="curve" smooth="yes"/>
      <point x="627.4" y="144.79999999999998"/>
      <point x="526.0" y="72.00000000000001"/>
      <point x="409.0" y="72.00000000000001" type="curve" smooth="yes"/>
      <point x="270.340350877193" y="72.00000000000001"/>
      <point x="198.41187115362965" y="185.07888573057113"/>
      <point x="227.8" y="391.40000000000003" type="curve" smooth="yes"/>
      <point x="269.9913211752382" y="685.5424363663763"/>
      <point x="401.05935828877006" y="871.1999999999999"/>
      <point x="523.6" y="871.1999999999999" type="curve" smooth="yes"/>
      <point x="577.0" y="871.1999999999999"/>
      <point x="610.8000000000001" y="803.4000000000001"/>
      <point x="610.4000000000001" y="708.8000000000001" type="curve" smooth="yes"/>
      <point x="609.6" y="645.1999999999999"/>
      <point x="601.2" y="604.0"/>
      <point x="589.1999999999999" y="577.2" type="curve"/>
      <point x="607.6" y="595.0" type="line"/>
      <point x="518.4" y="564.2"/>
      <point x="138.8" y="422.2"/>
    </contour>
  </outline>
</glyph>
<glyph name="f" format="2">
  <advance width="491.2"/>
  <unicode hex="0066"/>
  <outline>
    <contour>
      <point x="361.59999999999997" y="852.2" type="line"/>
      <point x="584.8000000000001" y="852.2" type="line" smooth="yes"/>
      <point x="594.4" y="852.2"/>
      <point x="601.2" y="855.5999999999999"/>
      <point x="601.2" y="861.6" type="curve" smooth="yes"/>
      <point x="601.2" y="865.8"/>
      <point x="597.4000000000001" y="868.4"/>
      <point x="591.0" y="868.4" type="curve" smooth="yes"/>
      <point x="369.2" y="868.4" type="line"/>
    </contour>
    <contour>
      <point x="132.79999999999998" y="860.6" type="curve" smooth="yes"/>
      <point x="132.79999999999998" y="857.2"/>
      <point x="135.6" y="852.2"/>
      <point x="144.6" y="852.2" type="curve" smooth="yes"/>
      <point x="246.79999999999998" y="849.2"/>
      <point x="261.59999999999997" y="823.2"/>
      <point x="243.2" y="756.0" type="curve" smooth="yes"/>
      <point x="-38.60000000000001" y="-245.59999999999997" type="line" smooth="yes"/>
      <point x="-64.8" y="-341.4"/>
      <point x="-52.2" y="-380.4"/>
      <point x="10.400000000000006" y="-380.4" type="curve" smooth="yes"/>
      <point x="99.0" y="-380.4"/>
      <point x="177.00000000000003" y="-337.6"/>
      <point x="177.00000000000003" y="-308.4" type="curve" smooth="yes"/>
      <point x="177.00000000000003" y="-287.19999999999993"/>
      <point x="144.2" y="-272.4"/>
      <point x="144.2" y="-228.40000000000003" type="curve" smooth="yes"/>
      <point x="144.2" y="-204.39999999999995"/>
      <point x="150.6" y="-172.8"/>
      <point x="163.4" y="-126.4" type="curve" smooth="yes"/>
      <point x="457.59999999999997" y="932.6" type="line" smooth="yes"/>
      <point x="485.5913451379339" y="1036.421877539148"/>
      <point x="401.1902623500577" y="1162.1358460709687"/>
      <point x="417.6" y="1250.8" type="curve" smooth="yes"/>
      <point x="431.8" y="1319.0"/>
      <point x="484.84623115577887" y="1374.8"/>
      <point x="540.6" y="1374.8" type="curve" smooth="yes"/>
      <point x="589.8" y="1374.8"/>
      <point x="621.2" y="1303.2"/>
      <point x="692.8000000000001" y="1303.2" type="curve" smooth="yes"/>
      <point x="741.4000000000001" y="1303.2"/>
      <point x="771.8" y="1332.7749999999999"/>
      <point x="771.8" y="1371.3999999999999" type="curve" smooth="yes"/>
      <point x="771.8" y="1409.703816793893"/>
      <point x="738.1999999999999" y="1442.3999999999999"/>
      <point x="670.8000000000001" y="1442.3999999999999" type="curve" smooth="yes"/>
      <point x="511.99999999999994" y="1442.3999999999999"/>
      <point x="407.2253178189837" y="1343.8904538022387"/>
      <point x="352.0" y="1147.8" type="curve" smooth="yes"/>
      <point x="273.2" y="868.4" type="line"/>
      <point x="144.0" y="868.4" type="line" smooth="yes"/>
      <point x="136.79999999999998" y="868.4"/>
      <point x="132.79999999999998" y="865.2"/>
    </contour>
  </outline>
</glyph>
<glyph name="g" format="2">
  <advance width="856.4000000000001"/>
  <unicode hex="0067"/>
  <anchor x="626.4" y="1010.0" name="center"/>
  <outline>
    <contour>
      <point x="652.8" y="24.000000000000007" type="curve" smooth="yes"/>
      <point x="858.4" y="800.2" type="line" smooth="yes"/>
      <point x="863.4" y="819.8000000000001"/>
      <point x="892.4" y="818.4"/>
      <point x="892.4000000000001" y="835.8000000000001" type="curve" smooth="yes"/>
      <point x="892.4" y="855.6"/>
      <point x="797.6" y="885.4"/>
      <point x="681.4" y="885.4" type="curve"/>
      <point x="339.8" y="885.4"/>
      <point x="56.599999999999994" y="590.0"/>
      <point x="20.0" y="246.79999999999998" type="curve" smooth="yes"/>
      <point x="-2.200000000000001" y="58.00000000000001"/>
      <point x="85.20000000000002" y="-17.6"/>
      <point x="193.4" y="-17.6" type="curve" smooth="yes"/>
      <point x="336.0" y="-17.6"/>
      <point x="476.79999999999995" y="111.19999999999999"/>
      <point x="600.0" y="419.8" type="curve"/>
      <point x="592.5999999999999" y="423.2" type="line"/>
      <point x="429.0" y="-166.20000000000002" type="line" smooth="yes"/>
      <point x="374.2" y="-368.20000000000005"/>
      <point x="273.0" y="-448.0"/>
      <point x="180.6" y="-448.0" type="curve" smooth="yes"/>
      <point x="94.99999999999999" y="-448.0"/>
      <point x="23.0" y="-347.19999999999993"/>
      <point x="-66.2" y="-347.19999999999993" type="curve" smooth="yes"/>
      <point x="-116.19999999999999" y="-347.19999999999993"/>
      <point x="-142.2" y="-373.2"/>
      <point x="-142.2" y="-406.8" type="curve" smooth="yes"/>
      <point x="-142.2" y="-454.0"/>
      <point x="-88.60000000000001" y="-490.0"/>
      <point x="20.599999999999994" y="-490.0" type="curve" smooth="yes"/>
      <point x="329.40000000000003" y="-490.0"/>
      <point x="555.5893436007476" y="-343.73888082246134"/>
    </contour>
    <contour>
      <point x="199.20000000000002" y="245.99999999999997" type="curve" smooth="yes"/>
      <point x="231.0" y="556.4"/>
      <point x="445.40000000000003" y="865.4"/>
      <point x="643.8000000000001" y="865.4" type="curve" smooth="yes"/>
      <point x="684.2" y="865.4"/>
      <point x="686.6" y="830.2"/>
      <point x="675.4" y="773.4000000000001" type="curve" smooth="yes"/>
      <point x="634.5999999999999" y="449.40000000000003"/>
      <point x="427.0" y="40.599999999999994"/>
      <point x="277.6" y="40.599999999999994" type="curve" smooth="yes"/>
      <point x="232.8" y="40.599999999999994"/>
      <point x="178.8" y="78.6"/>
    </contour>
  </outline>
</glyph>
<glyph name="h" format="2">
  <advance width="951.2"/>
  <unicode hex="0068"/>
  <anchor x="379.2" y="980.0" name="center"/>
  <outline>
    <contour>
      <point x="262.40000000000003" y="307.2" type="curve" smooth="yes"/>
      <point x="228.6" y="198.6"/>
      <point x="223.6" y="140.0"/>
      <point x="223.6" y="102.8" type="curve" smooth="yes"/>
      <point x="223.6" y="80.4"/>
      <point x="237.60000000000002" y="68.80000000000001"/>
      <point x="237.60000000000002" y="50.400000000000006" type="curve" smooth="yes"/>
      <point x="237.60000000000002" y="10.8"/>
      <point x="178.4" y="-17.0"/>
      <point x="82.0" y="-17.0" type="curve" smooth="yes"/>
      <point x="17.6" y="-17.0"/>
      <point x="12.599999999999998" y="3.799999999999997"/>
      <point x="36.0" y="87.60000000000001" type="curve" smooth="yes"/>
      <point x="268.40000000000003" y="929.6" type="line" smooth="yes"/>
      <point x="364.40000000000003" y="1277.6"/>
      <point x="544.8000000000001" y="1450.8"/>
      <point x="925.0" y="1450.8" type="curve" smooth="yes"/>
      <point x="1026.6" y="1450.8"/>
      <point x="1077.8000000000002" y="1416.6"/>
      <point x="1077.8000000000002" y="1370.0" type="curve" smooth="yes"/>
      <point x="1077.8000000000002" y="1336.4"/>
      <point x="1049.7535714285714" y="1311.6000000000001"/>
      <point x="1003.4000000000001" y="1311.6000000000001" type="curve" smooth="yes"/>
      <point x="921.2117647058824" y="1311.6000000000001"/>
      <point x="852.9305882352942" y="1411.2"/>
      <point x="766.5999999999999" y="1411.2" type="curve" smooth="yes"/>
      <point x="666.5571428571428" y="1411.2"/>
      <point x="556.3712107924684" y="1354.0969986130538"/>
      <point x="507.8" y="1179.8" type="curve" smooth="yes"/>
      <point x="305.0" y="455.80000000000007" type="line"/>
      <point x="301.2" y="457.8" type="line"/>
      <point x="452.8" y="767.8000000000001"/>
      <point x="637.6" y="885.4"/>
      <point x="781.5999999999999" y="885.4" type="curve" smooth="yes"/>
      <point x="905.0" y="885.4"/>
      <point x="915.0" y="788.8000000000001"/>
      <point x="870.0" y="646.2" type="curve" smooth="yes"/>
      <point x="731.4" y="205.40000000000003" type="line" smooth="yes"/>
      <point x="692.2" y="81.2"/>
      <point x="711.063157894737" y="53.80000000000001"/>
      <point x="745.0" y="53.80000000000001" type="curve" smooth="yes"/>
      <point x="773.812213740458" y="53.80000000000001"/>
      <point x="808.6462917881347" y="73.37783213422523"/>
      <point x="862.6" y="140.6" type="curve" smooth="yes"/>
      <point x="869.2" y="149.39999999999998"/>
      <point x="871.4000000000001" y="151.39999999999998"/>
      <point x="875.2" y="150.2" type="curve" smooth="yes"/>
      <point x="878.8000000000001" y="149.0"/>
      <point x="878.6" y="143.20000000000002"/>
      <point x="873.2" y="132.8" type="curve" smooth="yes"/>
      <point x="815.6" y="38.800000000000004"/>
      <point x="735.5999999999999" y="-17.0"/>
      <point x="630.0" y="-17.0" type="curve" smooth="yes"/>
      <point x="532.6" y="-17.0"/>
      <point x="508.8" y="40.99999999999999"/>
      <point x="547.0" y="163.40000000000003" type="curve" smooth="yes"/>
      <point x="691.6" y="622.1999999999999" type="line" smooth="yes"/>
      <point x="734.2" y="757.8"/>
      <point x="714.4" y="795.8"/>
      <point x="654.2" y="795.8" type="curve" smooth="yes"/>
      <point x="552.0" y="795.8"/>
      <point x="361.79999999999995" y="628.2"/>
    </contour>
  </outline>
</glyph>
<glyph name="i" format="2">
  <advance width="493.2"/>
  <unicode hex="0069"/>
  <outline>
    <contour>
      <point x="263.79999999999995" y="205.39999999999998" type="curve" smooth="yes"/>
      <point x="424.79999999999995" y="690.0" type="line" smooth="yes"/>
      <point x="469.4" y="826.4"/>
      <point x="428.6" y="885.4"/>
      <point x="342.6" y="885.4" type="curve" smooth="yes"/>
      <point x="254.60000000000002" y="885.4"/>
      <point x="166.6" y="823.6"/>
      <point x="95.80000000000001" y="716.4" type="curve" smooth="yes"/>
      <point x="92.0" y="710.4"/>
      <point x="90.2" y="705.8000000000001"/>
      <point x="93.80000000000001" y="704.6" type="curve" smooth="yes"/>
      <point x="97.4" y="703.4000000000001"/>
      <point x="101.4" y="706.1999999999999"/>
      <point x="106.39999999999999" y="711.8000000000001" type="curve" smooth="yes"/>
      <point x="166.8" y="782.6"/>
      <point x="201.4" y="801.8000000000001"/>
      <point x="229.8" y="801.8000000000001" type="curve" smooth="yes"/>
      <point x="269.4" y="801.8000000000001"/>
      <point x="280.4" y="766.0"/>
      <point x="237.8" y="640.2" type="curve" smooth="yes"/>
      <point x="79.19999999999999" y="163.39999999999998" type="line" smooth="yes"/>
      <point x="39.199999999999996" y="40.4"/>
      <point x="66.60000000000001" y="-17.0"/>
      <point x="162.0" y="-17.0" type="curve" smooth="yes"/>
      <point x="266.8" y="-17.0"/>
      <point x="348.00000000000006" y="38.800000000000004"/>
      <point x="405.6" y="132.8" type="curve" smooth="yes"/>
      <point x="411.00000000000006" y="143.2"/>
      <point x="411.2" y="149.0"/>
      <point x="407.59999999999997" y="150.2" type="curve" smooth="yes"/>
      <point x="403.8" y="151.39999999999998"/>
      <point x="401.59999999999997" y="149.40000000000003"/>
      <point x="395.0" y="140.60000000000002" type="curve" smooth="yes"/>
      <point x="340.8" y="73.19999999999999"/>
      <point x="306.40000000000003" y="53.80000000000001"/>
      <point x="277.40000000000003" y="53.80000000000001" type="curve" smooth="yes"/>
      <point x="241.6" y="53.80000000000001"/>
      <point x="224.6" y="86.0"/>
    </contour>
    <contour>
      <point x="392.4" y="1034.0" type="curve" smooth="yes"/>
      <point x="477.2" y="1034.0"/>
      <point x="539.5999999999999" y="1129.2"/>
      <point x="539.5999999999999" y="1207.6000000000001" type="curve" smooth="yes"/>
      <point x="539.6" y="1246.0"/>
      <point x="517.6" y="1276.0"/>
      <point x="460.4" y="1276.0" type="curve" smooth="yes"/>
      <point x="382.8" y="1276.0"/>
      <point x="317.6" y="1168.4"/>
      <point x="317.6" y="1102.8000000000002" type="curve" smooth="yes"/>
      <point x="317.6" y="1062.8"/>
      <point x="343.2" y="1034.0"/>
    </contour>
  </outline>
</glyph>
<glyph name="j" format="2">
  <advance width="435.4"/>
  <unicode hex="006A"/>
  <outline>
    <contour>
      <point x="397.40000000000003" y="689.4" type="line" smooth="yes"/>
      <point x="437.2" y="827.8000000000001"/>
      <point x="402.4" y="885.4"/>
      <point x="315.20000000000005" y="885.4" type="curve" smooth="yes"/>
      <point x="227.2" y="885.4"/>
      <point x="139.2" y="823.6"/>
      <point x="68.4" y="716.4" type="curve" smooth="yes"/>
      <point x="64.6" y="710.4"/>
      <point x="62.8" y="705.8"/>
      <point x="66.4" y="704.6" type="curve" smooth="yes"/>
      <point x="70.0" y="703.4000000000001"/>
      <point x="74.0" y="706.2"/>
      <point x="79.0" y="711.8" type="curve" smooth="yes"/>
      <point x="139.39999999999998" y="782.5999999999999"/>
      <point x="174.0" y="801.8000000000001"/>
      <point x="202.4" y="801.8000000000001" type="curve" smooth="yes"/>
      <point x="242.0" y="801.8000000000001"/>
      <point x="247.2" y="767.8"/>
      <point x="210.4" y="640.2" type="curve" smooth="yes"/>
      <point x="7.800000000000006" y="-64.39999999999999" type="line" smooth="yes"/>
      <point x="-20.0" y="-161.4"/>
      <point x="81.4" y="-249.4"/>
      <point x="65.4" y="-330.8" type="curve" smooth="yes"/>
      <point x="54.20000000000002" y="-386.0"/>
      <point x="22.200000000000017" y="-410.6"/>
      <point x="-15.0" y="-410.6" type="curve" smooth="yes"/>
      <point x="-70.8" y="-410.6"/>
      <point x="-118.80000000000001" y="-349.0"/>
      <point x="-190.2" y="-349.0" type="curve" smooth="yes"/>
      <point x="-236.4" y="-349.0"/>
      <point x="-264.0" y="-379.8"/>
      <point x="-264.0" y="-412.6" type="curve" smooth="yes"/>
      <point x="-264.0" y="-453.40000000000003"/>
      <point x="-230.4" y="-484.0"/>
      <point x="-158.99999999999997" y="-484.0" type="curve" smooth="yes"/>
      <point x="-21.399999999999995" y="-484.0"/>
      <point x="79.20000000000002" y="-412.8"/>
      <point x="126.00000000000001" y="-251.2" type="curve" smooth="yes"/>
    </contour>
    <contour>
      <point x="371.0" y="1034.0" type="curve" smooth="yes"/>
      <point x="455.8" y="1034.0"/>
      <point x="518.2" y="1129.2"/>
      <point x="518.2" y="1207.6" type="curve" smooth="yes"/>
      <point x="518.1999999999999" y="1246.0"/>
      <point x="496.2" y="1276.0"/>
      <point x="439.0" y="1276.0" type="curve" smooth="yes"/>
      <point x="361.4" y="1276.0"/>
      <point x="296.2" y="1168.3999999999999"/>
      <point x="296.2" y="1102.8" type="curve" smooth="yes"/>
      <point x="296.2" y="1062.8"/>
      <point x="321.8" y="1034.0"/>
    </contour>
  </outline>
</glyph>
